ISO-10303-21;
HEADER;
/* Generated by software containing ST-Developer
 * from STEP Tools, Inc. (www.steptools.com) 
 */

FILE_DESCRIPTION(
/* description */ (''),
/* implementation_level */ '2;1');

FILE_NAME(
/* name */ 'Case.step',
/* time_stamp */ '2026-07-31T13:33:46+01:00',
/* author */ (''),
/* organization */ (''),
/* preprocessor_version */ 'ST-DEVELOPER v20.1',
/* originating_system */ 'Autodesk Translation Framework v15.8.0.0',
/* authorisation */ '');

FILE_SCHEMA (('AUTOMOTIVE_DESIGN { 1 0 10303 214 3 1 1 }'));
ENDSEC;

DATA;
#10=MECHANICAL_DESIGN_GEOMETRIC_PRESENTATION_REPRESENTATION('',(#13),#1092);
#11=SHAPE_REPRESENTATION_RELATIONSHIP('SRR','None',#1099,#12);
#12=ADVANCED_BREP_SHAPE_REPRESENTATION('',(#14),#1091);
#13=STYLED_ITEM('',(#1110),#14);
#14=MANIFOLD_SOLID_BREP('case',#640);
#15=CYLINDRICAL_SURFACE('',#701,0.799999999999983);
#16=CYLINDRICAL_SURFACE('',#702,0.800000000000001);
#17=CYLINDRICAL_SURFACE('',#703,0.799999999999983);
#18=CYLINDRICAL_SURFACE('',#704,0.799999999999983);
#19=CYLINDRICAL_SURFACE('',#705,0.799999999999983);
#20=CYLINDRICAL_SURFACE('',#706,0.8);
#21=CYLINDRICAL_SURFACE('',#707,0.8);
#22=CYLINDRICAL_SURFACE('',#708,0.800000000000001);
#23=CYLINDRICAL_SURFACE('',#709,0.8);
#24=CYLINDRICAL_SURFACE('',#710,0.800000000000001);
#25=CYLINDRICAL_SURFACE('',#714,0.799999999999983);
#26=CYLINDRICAL_SURFACE('',#715,0.799999999999983);
#27=CYLINDRICAL_SURFACE('',#716,0.800000000000001);
#28=FACE_BOUND('',#114,.T.);
#29=FACE_BOUND('',#115,.T.);
#30=FACE_BOUND('',#116,.T.);
#31=FACE_BOUND('',#117,.T.);
#32=FACE_BOUND('',#118,.T.);
#33=FACE_BOUND('',#119,.T.);
#34=FACE_BOUND('',#120,.T.);
#35=FACE_BOUND('',#121,.T.);
#36=FACE_BOUND('',#122,.T.);
#37=FACE_BOUND('',#123,.T.);
#38=FACE_BOUND('',#124,.T.);
#39=FACE_BOUND('',#125,.T.);
#40=FACE_BOUND('',#126,.T.);
#41=FACE_BOUND('',#143,.T.);
#42=CIRCLE('',#659,0.799999999999983);
#43=CIRCLE('',#660,0.800000000000001);
#44=CIRCLE('',#661,0.799999999999983);
#45=CIRCLE('',#662,0.799999999999983);
#46=CIRCLE('',#663,0.799999999999983);
#47=CIRCLE('',#664,0.8);
#48=CIRCLE('',#665,0.8);
#49=CIRCLE('',#666,0.800000000000001);
#50=CIRCLE('',#667,0.8);
#51=CIRCLE('',#668,0.800000000000001);
#52=CIRCLE('',#669,0.799999999999983);
#53=CIRCLE('',#670,0.799999999999983);
#54=CIRCLE('',#671,0.800000000000001);
#55=CIRCLE('',#676,0.800000000000001);
#56=CIRCLE('',#678,0.799999999999983);
#57=CIRCLE('',#680,0.799999999999983);
#58=CIRCLE('',#682,0.800000000000001);
#59=CIRCLE('',#684,0.8);
#60=CIRCLE('',#686,0.800000000000001);
#61=CIRCLE('',#688,0.8);
#62=CIRCLE('',#690,0.799999999999983);
#63=CIRCLE('',#692,0.799999999999983);
#64=CIRCLE('',#694,0.799999999999983);
#65=CIRCLE('',#696,0.800000000000001);
#66=CIRCLE('',#698,0.799999999999983);
#67=CIRCLE('',#700,0.8);
#68=FACE_OUTER_BOUND('',#109,.T.);
#69=FACE_OUTER_BOUND('',#110,.T.);
#70=FACE_OUTER_BOUND('',#111,.T.);
#71=FACE_OUTER_BOUND('',#112,.T.);
#72=FACE_OUTER_BOUND('',#113,.T.);
#73=FACE_OUTER_BOUND('',#127,.T.);
#74=FACE_OUTER_BOUND('',#128,.T.);
#75=FACE_OUTER_BOUND('',#129,.T.);
#76=FACE_OUTER_BOUND('',#130,.T.);
#77=FACE_OUTER_BOUND('',#131,.T.);
#78=FACE_OUTER_BOUND('',#132,.T.);
#79=FACE_OUTER_BOUND('',#133,.T.);
#80=FACE_OUTER_BOUND('',#134,.T.);
#81=FACE_OUTER_BOUND('',#135,.T.);
#82=FACE_OUTER_BOUND('',#136,.T.);
#83=FACE_OUTER_BOUND('',#137,.T.);
#84=FACE_OUTER_BOUND('',#138,.T.);
#85=FACE_OUTER_BOUND('',#139,.T.);
#86=FACE_OUTER_BOUND('',#140,.T.);
#87=FACE_OUTER_BOUND('',#141,.T.);
#88=FACE_OUTER_BOUND('',#142,.T.);
#89=FACE_OUTER_BOUND('',#144,.T.);
#90=FACE_OUTER_BOUND('',#145,.T.);
#91=FACE_OUTER_BOUND('',#146,.T.);
#92=FACE_OUTER_BOUND('',#147,.T.);
#93=FACE_OUTER_BOUND('',#148,.T.);
#94=FACE_OUTER_BOUND('',#149,.T.);
#95=FACE_OUTER_BOUND('',#150,.T.);
#96=FACE_OUTER_BOUND('',#151,.T.);
#97=FACE_OUTER_BOUND('',#152,.T.);
#98=FACE_OUTER_BOUND('',#153,.T.);
#99=FACE_OUTER_BOUND('',#154,.T.);
#100=FACE_OUTER_BOUND('',#155,.T.);
#101=FACE_OUTER_BOUND('',#156,.T.);
#102=FACE_OUTER_BOUND('',#157,.T.);
#103=FACE_OUTER_BOUND('',#158,.T.);
#104=FACE_OUTER_BOUND('',#159,.T.);
#105=FACE_OUTER_BOUND('',#160,.T.);
#106=FACE_OUTER_BOUND('',#161,.T.);
#107=FACE_OUTER_BOUND('',#162,.T.);
#108=FACE_OUTER_BOUND('',#163,.T.);
#109=EDGE_LOOP('',(#409,#410,#411,#412,#413,#414));
#110=EDGE_LOOP('',(#415,#416,#417,#418));
#111=EDGE_LOOP('',(#419,#420,#421,#422));
#112=EDGE_LOOP('',(#423,#424,#425,#426,#427,#428));
#113=EDGE_LOOP('',(#429,#430,#431,#432,#433,#434,#435,#436,#437,#438,#439,
#440));
#114=EDGE_LOOP('',(#441));
#115=EDGE_LOOP('',(#442));
#116=EDGE_LOOP('',(#443));
#117=EDGE_LOOP('',(#444));
#118=EDGE_LOOP('',(#445));
#119=EDGE_LOOP('',(#446));
#120=EDGE_LOOP('',(#447));
#121=EDGE_LOOP('',(#448));
#122=EDGE_LOOP('',(#449));
#123=EDGE_LOOP('',(#450));
#124=EDGE_LOOP('',(#451));
#125=EDGE_LOOP('',(#452));
#126=EDGE_LOOP('',(#453));
#127=EDGE_LOOP('',(#454,#455,#456,#457,#458,#459,#460,#461));
#128=EDGE_LOOP('',(#462,#463,#464,#465));
#129=EDGE_LOOP('',(#466,#467,#468,#469));
#130=EDGE_LOOP('',(#470));
#131=EDGE_LOOP('',(#471));
#132=EDGE_LOOP('',(#472));
#133=EDGE_LOOP('',(#473));
#134=EDGE_LOOP('',(#474));
#135=EDGE_LOOP('',(#475));
#136=EDGE_LOOP('',(#476));
#137=EDGE_LOOP('',(#477));
#138=EDGE_LOOP('',(#478));
#139=EDGE_LOOP('',(#479));
#140=EDGE_LOOP('',(#480));
#141=EDGE_LOOP('',(#481));
#142=EDGE_LOOP('',(#482,#483,#484,#485));
#143=EDGE_LOOP('',(#486));
#144=EDGE_LOOP('',(#487,#488,#489,#490));
#145=EDGE_LOOP('',(#491,#492,#493,#494));
#146=EDGE_LOOP('',(#495,#496,#497,#498));
#147=EDGE_LOOP('',(#499,#500,#501,#502));
#148=EDGE_LOOP('',(#503,#504,#505,#506));
#149=EDGE_LOOP('',(#507,#508,#509,#510));
#150=EDGE_LOOP('',(#511,#512,#513,#514));
#151=EDGE_LOOP('',(#515,#516,#517,#518));
#152=EDGE_LOOP('',(#519,#520,#521,#522));
#153=EDGE_LOOP('',(#523,#524,#525,#526));
#154=EDGE_LOOP('',(#527,#528,#529,#530));
#155=EDGE_LOOP('',(#531,#532,#533,#534));
#156=EDGE_LOOP('',(#535,#536,#537,#538));
#157=EDGE_LOOP('',(#539,#540,#541,#542));
#158=EDGE_LOOP('',(#543,#544,#545,#546));
#159=EDGE_LOOP('',(#547,#548,#549,#550));
#160=EDGE_LOOP('',(#551,#552,#553,#554));
#161=EDGE_LOOP('',(#555,#556,#557,#558,#559,#560,#561,#562));
#162=EDGE_LOOP('',(#563,#564,#565,#566));
#163=EDGE_LOOP('',(#567,#568,#569,#570));
#164=LINE('',#916,#219);
#165=LINE('',#918,#220);
#166=LINE('',#920,#221);
#167=LINE('',#922,#222);
#168=LINE('',#924,#223);
#169=LINE('',#925,#224);
#170=LINE('',#928,#225);
#171=LINE('',#930,#226);
#172=LINE('',#931,#227);
#173=LINE('',#934,#228);
#174=LINE('',#935,#229);
#175=LINE('',#939,#230);
#176=LINE('',#940,#231);
#177=LINE('',#942,#232);
#178=LINE('',#943,#233);
#179=LINE('',#946,#234);
#180=LINE('',#948,#235);
#181=LINE('',#950,#236);
#182=LINE('',#952,#237);
#183=LINE('',#953,#238);
#184=LINE('',#955,#239);
#185=LINE('',#957,#240);
#186=LINE('',#959,#241);
#187=LINE('',#961,#242);
#188=LINE('',#962,#243);
#189=LINE('',#991,#244);
#190=LINE('',#993,#245);
#191=LINE('',#995,#246);
#192=LINE('',#997,#247);
#193=LINE('',#998,#248);
#194=LINE('',#1000,#249);
#195=LINE('',#1002,#250);
#196=LINE('',#1042,#251);
#197=LINE('',#1044,#252);
#198=LINE('',#1046,#253);
#199=LINE('',#1047,#254);
#200=LINE('',#1051,#255);
#201=LINE('',#1053,#256);
#202=LINE('',#1055,#257);
#203=LINE('',#1057,#258);
#204=LINE('',#1059,#259);
#205=LINE('',#1061,#260);
#206=LINE('',#1063,#261);
#207=LINE('',#1065,#262);
#208=LINE('',#1067,#263);
#209=LINE('',#1069,#264);
#210=LINE('',#1071,#265);
#211=LINE('',#1073,#266);
#212=LINE('',#1076,#267);
#213=LINE('',#1078,#268);
#214=LINE('',#1080,#269);
#215=LINE('',#1082,#270);
#216=LINE('',#1083,#271);
#217=LINE('',#1085,#272);
#218=LINE('',#1087,#273);
#219=VECTOR('',#725,10.);
#220=VECTOR('',#726,10.);
#221=VECTOR('',#727,10.);
#222=VECTOR('',#728,10.);
#223=VECTOR('',#729,10.);
#224=VECTOR('',#730,10.);
#225=VECTOR('',#733,10.);
#226=VECTOR('',#734,10.);
#227=VECTOR('',#735,10.);
#228=VECTOR('',#738,10.);
#229=VECTOR('',#739,10.);
#230=VECTOR('',#742,10.);
#231=VECTOR('',#743,10.);
#232=VECTOR('',#744,10.);
#233=VECTOR('',#745,10.);
#234=VECTOR('',#748,10.);
#235=VECTOR('',#749,10.);
#236=VECTOR('',#750,10.);
#237=VECTOR('',#751,10.);
#238=VECTOR('',#752,10.);
#239=VECTOR('',#753,10.);
#240=VECTOR('',#754,10.);
#241=VECTOR('',#755,10.);
#242=VECTOR('',#756,10.);
#243=VECTOR('',#757,10.);
#244=VECTOR('',#786,10.);
#245=VECTOR('',#787,10.);
#246=VECTOR('',#788,10.);
#247=VECTOR('',#789,10.);
#248=VECTOR('',#790,10.);
#249=VECTOR('',#793,10.);
#250=VECTOR('',#796,10.);
#251=VECTOR('',#847,10.);
#252=VECTOR('',#848,10.);
#253=VECTOR('',#849,10.);
#254=VECTOR('',#850,10.);
#255=VECTOR('',#855,0.799999999999983);
#256=VECTOR('',#858,0.800000000000001);
#257=VECTOR('',#861,0.799999999999983);
#258=VECTOR('',#864,0.799999999999983);
#259=VECTOR('',#867,0.799999999999983);
#260=VECTOR('',#870,0.8);
#261=VECTOR('',#873,0.8);
#262=VECTOR('',#876,0.800000000000001);
#263=VECTOR('',#879,0.8);
#264=VECTOR('',#882,0.800000000000001);
#265=VECTOR('',#885,10.);
#266=VECTOR('',#888,10.);
#267=VECTOR('',#893,0.799999999999983);
#268=VECTOR('',#896,0.799999999999983);
#269=VECTOR('',#899,0.800000000000001);
#270=VECTOR('',#902,10.);
#271=VECTOR('',#903,10.);
#272=VECTOR('',#906,10.);
#273=VECTOR('',#909,10.);
#274=VERTEX_POINT('',#914);
#275=VERTEX_POINT('',#915);
#276=VERTEX_POINT('',#917);
#277=VERTEX_POINT('',#919);
#278=VERTEX_POINT('',#921);
#279=VERTEX_POINT('',#923);
#280=VERTEX_POINT('',#927);
#281=VERTEX_POINT('',#929);
#282=VERTEX_POINT('',#933);
#283=VERTEX_POINT('',#937);
#284=VERTEX_POINT('',#938);
#285=VERTEX_POINT('',#941);
#286=VERTEX_POINT('',#945);
#287=VERTEX_POINT('',#947);
#288=VERTEX_POINT('',#949);
#289=VERTEX_POINT('',#951);
#290=VERTEX_POINT('',#954);
#291=VERTEX_POINT('',#956);
#292=VERTEX_POINT('',#958);
#293=VERTEX_POINT('',#960);
#294=VERTEX_POINT('',#963);
#295=VERTEX_POINT('',#965);
#296=VERTEX_POINT('',#967);
#297=VERTEX_POINT('',#969);
#298=VERTEX_POINT('',#971);
#299=VERTEX_POINT('',#973);
#300=VERTEX_POINT('',#975);
#301=VERTEX_POINT('',#977);
#302=VERTEX_POINT('',#979);
#303=VERTEX_POINT('',#981);
#304=VERTEX_POINT('',#983);
#305=VERTEX_POINT('',#985);
#306=VERTEX_POINT('',#987);
#307=VERTEX_POINT('',#990);
#308=VERTEX_POINT('',#992);
#309=VERTEX_POINT('',#994);
#310=VERTEX_POINT('',#996);
#311=VERTEX_POINT('',#1004);
#312=VERTEX_POINT('',#1007);
#313=VERTEX_POINT('',#1010);
#314=VERTEX_POINT('',#1013);
#315=VERTEX_POINT('',#1016);
#316=VERTEX_POINT('',#1019);
#317=VERTEX_POINT('',#1022);
#318=VERTEX_POINT('',#1025);
#319=VERTEX_POINT('',#1028);
#320=VERTEX_POINT('',#1031);
#321=VERTEX_POINT('',#1034);
#322=VERTEX_POINT('',#1037);
#323=VERTEX_POINT('',#1040);
#324=VERTEX_POINT('',#1041);
#325=VERTEX_POINT('',#1043);
#326=VERTEX_POINT('',#1045);
#327=VERTEX_POINT('',#1048);
#328=EDGE_CURVE('',#274,#275,#164,.T.);
#329=EDGE_CURVE('',#276,#274,#165,.T.);
#330=EDGE_CURVE('',#277,#276,#166,.T.);
#331=EDGE_CURVE('',#277,#278,#167,.T.);
#332=EDGE_CURVE('',#278,#279,#168,.T.);
#333=EDGE_CURVE('',#275,#279,#169,.T.);
#334=EDGE_CURVE('',#279,#280,#170,.T.);
#335=EDGE_CURVE('',#281,#278,#171,.T.);
#336=EDGE_CURVE('',#280,#281,#172,.T.);
#337=EDGE_CURVE('',#282,#277,#173,.T.);
#338=EDGE_CURVE('',#282,#281,#174,.T.);
#339=EDGE_CURVE('',#283,#284,#175,.T.);
#340=EDGE_CURVE('',#280,#283,#176,.T.);
#341=EDGE_CURVE('',#285,#282,#177,.T.);
#342=EDGE_CURVE('',#284,#285,#178,.T.);
#343=EDGE_CURVE('',#274,#286,#179,.T.);
#344=EDGE_CURVE('',#286,#287,#180,.T.);
#345=EDGE_CURVE('',#287,#288,#181,.T.);
#346=EDGE_CURVE('',#288,#289,#182,.T.);
#347=EDGE_CURVE('',#289,#284,#183,.T.);
#348=EDGE_CURVE('',#285,#290,#184,.T.);
#349=EDGE_CURVE('',#290,#291,#185,.T.);
#350=EDGE_CURVE('',#291,#292,#186,.T.);
#351=EDGE_CURVE('',#292,#293,#187,.T.);
#352=EDGE_CURVE('',#293,#276,#188,.T.);
#353=EDGE_CURVE('',#294,#294,#42,.T.);
#354=EDGE_CURVE('',#295,#295,#43,.T.);
#355=EDGE_CURVE('',#296,#296,#44,.T.);
#356=EDGE_CURVE('',#297,#297,#45,.T.);
#357=EDGE_CURVE('',#298,#298,#46,.T.);
#358=EDGE_CURVE('',#299,#299,#47,.T.);
#359=EDGE_CURVE('',#300,#300,#48,.T.);
#360=EDGE_CURVE('',#301,#301,#49,.T.);
#361=EDGE_CURVE('',#302,#302,#50,.T.);
#362=EDGE_CURVE('',#303,#303,#51,.T.);
#363=EDGE_CURVE('',#304,#304,#52,.T.);
#364=EDGE_CURVE('',#305,#305,#53,.T.);
#365=EDGE_CURVE('',#306,#306,#54,.T.);
#366=EDGE_CURVE('',#307,#283,#189,.T.);
#367=EDGE_CURVE('',#308,#307,#190,.T.);
#368=EDGE_CURVE('',#309,#308,#191,.T.);
#369=EDGE_CURVE('',#310,#309,#192,.T.);
#370=EDGE_CURVE('',#275,#310,#193,.T.);
#371=EDGE_CURVE('',#307,#289,#194,.T.);
#372=EDGE_CURVE('',#310,#286,#195,.T.);
#373=EDGE_CURVE('',#311,#311,#55,.T.);
#374=EDGE_CURVE('',#312,#312,#56,.T.);
#375=EDGE_CURVE('',#313,#313,#57,.T.);
#376=EDGE_CURVE('',#314,#314,#58,.T.);
#377=EDGE_CURVE('',#315,#315,#59,.T.);
#378=EDGE_CURVE('',#316,#316,#60,.T.);
#379=EDGE_CURVE('',#317,#317,#61,.T.);
#380=EDGE_CURVE('',#318,#318,#62,.T.);
#381=EDGE_CURVE('',#319,#319,#63,.T.);
#382=EDGE_CURVE('',#320,#320,#64,.T.);
#383=EDGE_CURVE('',#321,#321,#65,.T.);
#384=EDGE_CURVE('',#322,#322,#66,.T.);
#385=EDGE_CURVE('',#323,#324,#196,.T.);
#386=EDGE_CURVE('',#324,#325,#197,.T.);
#387=EDGE_CURVE('',#325,#326,#198,.T.);
#388=EDGE_CURVE('',#326,#323,#199,.T.);
#389=EDGE_CURVE('',#327,#327,#67,.T.);
#390=EDGE_CURVE('',#294,#322,#200,.T.);
#391=EDGE_CURVE('',#295,#321,#201,.T.);
#392=EDGE_CURVE('',#296,#320,#202,.T.);
#393=EDGE_CURVE('',#297,#319,#203,.T.);
#394=EDGE_CURVE('',#298,#318,#204,.T.);
#395=EDGE_CURVE('',#299,#317,#205,.T.);
#396=EDGE_CURVE('',#300,#327,#206,.T.);
#397=EDGE_CURVE('',#301,#316,#207,.T.);
#398=EDGE_CURVE('',#302,#315,#208,.T.);
#399=EDGE_CURVE('',#303,#314,#209,.T.);
#400=EDGE_CURVE('',#309,#287,#210,.T.);
#401=EDGE_CURVE('',#308,#288,#211,.T.);
#402=EDGE_CURVE('',#304,#313,#212,.T.);
#403=EDGE_CURVE('',#305,#312,#213,.T.);
#404=EDGE_CURVE('',#306,#311,#214,.T.);
#405=EDGE_CURVE('',#291,#324,#215,.T.);
#406=EDGE_CURVE('',#325,#290,#216,.T.);
#407=EDGE_CURVE('',#326,#293,#217,.T.);
#408=EDGE_CURVE('',#323,#292,#218,.T.);
#409=ORIENTED_EDGE('',*,*,#328,.F.);
#410=ORIENTED_EDGE('',*,*,#329,.F.);
#411=ORIENTED_EDGE('',*,*,#330,.F.);
#412=ORIENTED_EDGE('',*,*,#331,.T.);
#413=ORIENTED_EDGE('',*,*,#332,.T.);
#414=ORIENTED_EDGE('',*,*,#333,.F.);
#415=ORIENTED_EDGE('',*,*,#334,.F.);
#416=ORIENTED_EDGE('',*,*,#332,.F.);
#417=ORIENTED_EDGE('',*,*,#335,.F.);
#418=ORIENTED_EDGE('',*,*,#336,.F.);
#419=ORIENTED_EDGE('',*,*,#337,.F.);
#420=ORIENTED_EDGE('',*,*,#338,.T.);
#421=ORIENTED_EDGE('',*,*,#335,.T.);
#422=ORIENTED_EDGE('',*,*,#331,.F.);
#423=ORIENTED_EDGE('',*,*,#339,.F.);
#424=ORIENTED_EDGE('',*,*,#340,.F.);
#425=ORIENTED_EDGE('',*,*,#336,.T.);
#426=ORIENTED_EDGE('',*,*,#338,.F.);
#427=ORIENTED_EDGE('',*,*,#341,.F.);
#428=ORIENTED_EDGE('',*,*,#342,.F.);
#429=ORIENTED_EDGE('',*,*,#329,.T.);
#430=ORIENTED_EDGE('',*,*,#343,.T.);
#431=ORIENTED_EDGE('',*,*,#344,.T.);
#432=ORIENTED_EDGE('',*,*,#345,.T.);
#433=ORIENTED_EDGE('',*,*,#346,.T.);
#434=ORIENTED_EDGE('',*,*,#347,.T.);
#435=ORIENTED_EDGE('',*,*,#342,.T.);
#436=ORIENTED_EDGE('',*,*,#348,.T.);
#437=ORIENTED_EDGE('',*,*,#349,.T.);
#438=ORIENTED_EDGE('',*,*,#350,.T.);
#439=ORIENTED_EDGE('',*,*,#351,.T.);
#440=ORIENTED_EDGE('',*,*,#352,.T.);
#441=ORIENTED_EDGE('',*,*,#353,.T.);
#442=ORIENTED_EDGE('',*,*,#354,.T.);
#443=ORIENTED_EDGE('',*,*,#355,.T.);
#444=ORIENTED_EDGE('',*,*,#356,.T.);
#445=ORIENTED_EDGE('',*,*,#357,.T.);
#446=ORIENTED_EDGE('',*,*,#358,.T.);
#447=ORIENTED_EDGE('',*,*,#359,.T.);
#448=ORIENTED_EDGE('',*,*,#360,.T.);
#449=ORIENTED_EDGE('',*,*,#361,.T.);
#450=ORIENTED_EDGE('',*,*,#362,.T.);
#451=ORIENTED_EDGE('',*,*,#363,.T.);
#452=ORIENTED_EDGE('',*,*,#364,.T.);
#453=ORIENTED_EDGE('',*,*,#365,.T.);
#454=ORIENTED_EDGE('',*,*,#333,.T.);
#455=ORIENTED_EDGE('',*,*,#334,.T.);
#456=ORIENTED_EDGE('',*,*,#340,.T.);
#457=ORIENTED_EDGE('',*,*,#366,.F.);
#458=ORIENTED_EDGE('',*,*,#367,.F.);
#459=ORIENTED_EDGE('',*,*,#368,.F.);
#460=ORIENTED_EDGE('',*,*,#369,.F.);
#461=ORIENTED_EDGE('',*,*,#370,.F.);
#462=ORIENTED_EDGE('',*,*,#339,.T.);
#463=ORIENTED_EDGE('',*,*,#347,.F.);
#464=ORIENTED_EDGE('',*,*,#371,.F.);
#465=ORIENTED_EDGE('',*,*,#366,.T.);
#466=ORIENTED_EDGE('',*,*,#328,.T.);
#467=ORIENTED_EDGE('',*,*,#370,.T.);
#468=ORIENTED_EDGE('',*,*,#372,.T.);
#469=ORIENTED_EDGE('',*,*,#343,.F.);
#470=ORIENTED_EDGE('',*,*,#373,.F.);
#471=ORIENTED_EDGE('',*,*,#374,.F.);
#472=ORIENTED_EDGE('',*,*,#375,.F.);
#473=ORIENTED_EDGE('',*,*,#376,.F.);
#474=ORIENTED_EDGE('',*,*,#377,.F.);
#475=ORIENTED_EDGE('',*,*,#378,.F.);
#476=ORIENTED_EDGE('',*,*,#379,.F.);
#477=ORIENTED_EDGE('',*,*,#380,.F.);
#478=ORIENTED_EDGE('',*,*,#381,.F.);
#479=ORIENTED_EDGE('',*,*,#382,.F.);
#480=ORIENTED_EDGE('',*,*,#383,.F.);
#481=ORIENTED_EDGE('',*,*,#384,.F.);
#482=ORIENTED_EDGE('',*,*,#385,.T.);
#483=ORIENTED_EDGE('',*,*,#386,.T.);
#484=ORIENTED_EDGE('',*,*,#387,.T.);
#485=ORIENTED_EDGE('',*,*,#388,.T.);
#486=ORIENTED_EDGE('',*,*,#389,.T.);
#487=ORIENTED_EDGE('',*,*,#353,.F.);
#488=ORIENTED_EDGE('',*,*,#390,.T.);
#489=ORIENTED_EDGE('',*,*,#384,.T.);
#490=ORIENTED_EDGE('',*,*,#390,.F.);
#491=ORIENTED_EDGE('',*,*,#354,.F.);
#492=ORIENTED_EDGE('',*,*,#391,.T.);
#493=ORIENTED_EDGE('',*,*,#383,.T.);
#494=ORIENTED_EDGE('',*,*,#391,.F.);
#495=ORIENTED_EDGE('',*,*,#355,.F.);
#496=ORIENTED_EDGE('',*,*,#392,.T.);
#497=ORIENTED_EDGE('',*,*,#382,.T.);
#498=ORIENTED_EDGE('',*,*,#392,.F.);
#499=ORIENTED_EDGE('',*,*,#356,.F.);
#500=ORIENTED_EDGE('',*,*,#393,.T.);
#501=ORIENTED_EDGE('',*,*,#381,.T.);
#502=ORIENTED_EDGE('',*,*,#393,.F.);
#503=ORIENTED_EDGE('',*,*,#357,.F.);
#504=ORIENTED_EDGE('',*,*,#394,.T.);
#505=ORIENTED_EDGE('',*,*,#380,.T.);
#506=ORIENTED_EDGE('',*,*,#394,.F.);
#507=ORIENTED_EDGE('',*,*,#358,.F.);
#508=ORIENTED_EDGE('',*,*,#395,.T.);
#509=ORIENTED_EDGE('',*,*,#379,.T.);
#510=ORIENTED_EDGE('',*,*,#395,.F.);
#511=ORIENTED_EDGE('',*,*,#359,.F.);
#512=ORIENTED_EDGE('',*,*,#396,.T.);
#513=ORIENTED_EDGE('',*,*,#389,.F.);
#514=ORIENTED_EDGE('',*,*,#396,.F.);
#515=ORIENTED_EDGE('',*,*,#360,.F.);
#516=ORIENTED_EDGE('',*,*,#397,.T.);
#517=ORIENTED_EDGE('',*,*,#378,.T.);
#518=ORIENTED_EDGE('',*,*,#397,.F.);
#519=ORIENTED_EDGE('',*,*,#361,.F.);
#520=ORIENTED_EDGE('',*,*,#398,.T.);
#521=ORIENTED_EDGE('',*,*,#377,.T.);
#522=ORIENTED_EDGE('',*,*,#398,.F.);
#523=ORIENTED_EDGE('',*,*,#362,.F.);
#524=ORIENTED_EDGE('',*,*,#399,.T.);
#525=ORIENTED_EDGE('',*,*,#376,.T.);
#526=ORIENTED_EDGE('',*,*,#399,.F.);
#527=ORIENTED_EDGE('',*,*,#369,.T.);
#528=ORIENTED_EDGE('',*,*,#400,.T.);
#529=ORIENTED_EDGE('',*,*,#344,.F.);
#530=ORIENTED_EDGE('',*,*,#372,.F.);
#531=ORIENTED_EDGE('',*,*,#367,.T.);
#532=ORIENTED_EDGE('',*,*,#371,.T.);
#533=ORIENTED_EDGE('',*,*,#346,.F.);
#534=ORIENTED_EDGE('',*,*,#401,.F.);
#535=ORIENTED_EDGE('',*,*,#368,.T.);
#536=ORIENTED_EDGE('',*,*,#401,.T.);
#537=ORIENTED_EDGE('',*,*,#345,.F.);
#538=ORIENTED_EDGE('',*,*,#400,.F.);
#539=ORIENTED_EDGE('',*,*,#363,.F.);
#540=ORIENTED_EDGE('',*,*,#402,.T.);
#541=ORIENTED_EDGE('',*,*,#375,.T.);
#542=ORIENTED_EDGE('',*,*,#402,.F.);
#543=ORIENTED_EDGE('',*,*,#364,.F.);
#544=ORIENTED_EDGE('',*,*,#403,.T.);
#545=ORIENTED_EDGE('',*,*,#374,.T.);
#546=ORIENTED_EDGE('',*,*,#403,.F.);
#547=ORIENTED_EDGE('',*,*,#365,.F.);
#548=ORIENTED_EDGE('',*,*,#404,.T.);
#549=ORIENTED_EDGE('',*,*,#373,.T.);
#550=ORIENTED_EDGE('',*,*,#404,.F.);
#551=ORIENTED_EDGE('',*,*,#405,.F.);
#552=ORIENTED_EDGE('',*,*,#349,.F.);
#553=ORIENTED_EDGE('',*,*,#406,.F.);
#554=ORIENTED_EDGE('',*,*,#386,.F.);
#555=ORIENTED_EDGE('',*,*,#330,.T.);
#556=ORIENTED_EDGE('',*,*,#352,.F.);
#557=ORIENTED_EDGE('',*,*,#407,.F.);
#558=ORIENTED_EDGE('',*,*,#387,.F.);
#559=ORIENTED_EDGE('',*,*,#406,.T.);
#560=ORIENTED_EDGE('',*,*,#348,.F.);
#561=ORIENTED_EDGE('',*,*,#341,.T.);
#562=ORIENTED_EDGE('',*,*,#337,.T.);
#563=ORIENTED_EDGE('',*,*,#407,.T.);
#564=ORIENTED_EDGE('',*,*,#351,.F.);
#565=ORIENTED_EDGE('',*,*,#408,.F.);
#566=ORIENTED_EDGE('',*,*,#388,.F.);
#567=ORIENTED_EDGE('',*,*,#408,.T.);
#568=ORIENTED_EDGE('',*,*,#350,.F.);
#569=ORIENTED_EDGE('',*,*,#405,.T.);
#570=ORIENTED_EDGE('',*,*,#385,.F.);
#571=PLANE('',#654);
#572=PLANE('',#655);
#573=PLANE('',#656);
#574=PLANE('',#657);
#575=PLANE('',#658);
#576=PLANE('',#672);
#577=PLANE('',#673);
#578=PLANE('',#674);
#579=PLANE('',#675);
#580=PLANE('',#677);
#581=PLANE('',#679);
#582=PLANE('',#681);
#583=PLANE('',#683);
#584=PLANE('',#685);
#585=PLANE('',#687);
#586=PLANE('',#689);
#587=PLANE('',#691);
#588=PLANE('',#693);
#589=PLANE('',#695);
#590=PLANE('',#697);
#591=PLANE('',#699);
#592=PLANE('',#711);
#593=PLANE('',#712);
#594=PLANE('',#713);
#595=PLANE('',#717);
#596=PLANE('',#718);
#597=PLANE('',#719);
#598=PLANE('',#720);
#599=ADVANCED_FACE('',(#68),#571,.F.);
#600=ADVANCED_FACE('',(#69),#572,.F.);
#601=ADVANCED_FACE('',(#70),#573,.F.);
#602=ADVANCED_FACE('',(#71),#574,.F.);
#603=ADVANCED_FACE('',(#72,#28,#29,#30,#31,#32,#33,#34,#35,#36,#37,#38,
#39,#40),#575,.T.);
#604=ADVANCED_FACE('',(#73),#576,.T.);
#605=ADVANCED_FACE('',(#74),#577,.T.);
#606=ADVANCED_FACE('',(#75),#578,.T.);
#607=ADVANCED_FACE('',(#76),#579,.T.);
#608=ADVANCED_FACE('',(#77),#580,.T.);
#609=ADVANCED_FACE('',(#78),#581,.T.);
#610=ADVANCED_FACE('',(#79),#582,.T.);
#611=ADVANCED_FACE('',(#80),#583,.T.);
#612=ADVANCED_FACE('',(#81),#584,.T.);
#613=ADVANCED_FACE('',(#82),#585,.T.);
#614=ADVANCED_FACE('',(#83),#586,.T.);
#615=ADVANCED_FACE('',(#84),#587,.T.);
#616=ADVANCED_FACE('',(#85),#588,.T.);
#617=ADVANCED_FACE('',(#86),#589,.T.);
#618=ADVANCED_FACE('',(#87),#590,.T.);
#619=ADVANCED_FACE('',(#88,#41),#591,.F.);
#620=ADVANCED_FACE('',(#89),#15,.F.);
#621=ADVANCED_FACE('',(#90),#16,.F.);
#622=ADVANCED_FACE('',(#91),#17,.F.);
#623=ADVANCED_FACE('',(#92),#18,.F.);
#624=ADVANCED_FACE('',(#93),#19,.F.);
#625=ADVANCED_FACE('',(#94),#20,.F.);
#626=ADVANCED_FACE('',(#95),#21,.F.);
#627=ADVANCED_FACE('',(#96),#22,.F.);
#628=ADVANCED_FACE('',(#97),#23,.F.);
#629=ADVANCED_FACE('',(#98),#24,.F.);
#630=ADVANCED_FACE('',(#99),#592,.T.);
#631=ADVANCED_FACE('',(#100),#593,.T.);
#632=ADVANCED_FACE('',(#101),#594,.T.);
#633=ADVANCED_FACE('',(#102),#25,.F.);
#634=ADVANCED_FACE('',(#103),#26,.F.);
#635=ADVANCED_FACE('',(#104),#27,.F.);
#636=ADVANCED_FACE('',(#105),#595,.T.);
#637=ADVANCED_FACE('',(#106),#596,.T.);
#638=ADVANCED_FACE('',(#107),#597,.T.);
#639=ADVANCED_FACE('',(#108),#598,.T.);
#640=CLOSED_SHELL('',(#599,#600,#601,#602,#603,#604,#605,#606,#607,#608,
#609,#610,#611,#612,#613,#614,#615,#616,#617,#618,#619,#620,#621,#622,#623,
#624,#625,#626,#627,#628,#629,#630,#631,#632,#633,#634,#635,#636,#637,#638,
#639));
#641=DERIVED_UNIT_ELEMENT(#643,1.);
#642=DERIVED_UNIT_ELEMENT(#1094,-3.);
#643=(
MASS_UNIT()
NAMED_UNIT(*)
SI_UNIT(.KILO.,.GRAM.)
);
#644=DERIVED_UNIT((#641,#642));
#645=MEASURE_REPRESENTATION_ITEM('density measure',
POSITIVE_RATIO_MEASURE(7850.),#644);
#646=PROPERTY_DEFINITION_REPRESENTATION(#651,#648);
#647=PROPERTY_DEFINITION_REPRESENTATION(#652,#649);
#648=REPRESENTATION('material name',(#650),#1091);
#649=REPRESENTATION('density',(#645),#1091);
#650=DESCRIPTIVE_REPRESENTATION_ITEM('Steel','Steel');
#651=PROPERTY_DEFINITION('material property','material name',#1101);
#652=PROPERTY_DEFINITION('material property','density of part',#1101);
#653=AXIS2_PLACEMENT_3D('',#912,#721,#722);
#654=AXIS2_PLACEMENT_3D('',#913,#723,#724);
#655=AXIS2_PLACEMENT_3D('',#926,#731,#732);
#656=AXIS2_PLACEMENT_3D('',#932,#736,#737);
#657=AXIS2_PLACEMENT_3D('',#936,#740,#741);
#658=AXIS2_PLACEMENT_3D('',#944,#746,#747);
#659=AXIS2_PLACEMENT_3D('',#964,#758,#759);
#660=AXIS2_PLACEMENT_3D('',#966,#760,#761);
#661=AXIS2_PLACEMENT_3D('',#968,#762,#763);
#662=AXIS2_PLACEMENT_3D('',#970,#764,#765);
#663=AXIS2_PLACEMENT_3D('',#972,#766,#767);
#664=AXIS2_PLACEMENT_3D('',#974,#768,#769);
#665=AXIS2_PLACEMENT_3D('',#976,#770,#771);
#666=AXIS2_PLACEMENT_3D('',#978,#772,#773);
#667=AXIS2_PLACEMENT_3D('',#980,#774,#775);
#668=AXIS2_PLACEMENT_3D('',#982,#776,#777);
#669=AXIS2_PLACEMENT_3D('',#984,#778,#779);
#670=AXIS2_PLACEMENT_3D('',#986,#780,#781);
#671=AXIS2_PLACEMENT_3D('',#988,#782,#783);
#672=AXIS2_PLACEMENT_3D('',#989,#784,#785);
#673=AXIS2_PLACEMENT_3D('',#999,#791,#792);
#674=AXIS2_PLACEMENT_3D('',#1001,#794,#795);
#675=AXIS2_PLACEMENT_3D('',#1003,#797,#798);
#676=AXIS2_PLACEMENT_3D('',#1005,#799,#800);
#677=AXIS2_PLACEMENT_3D('',#1006,#801,#802);
#678=AXIS2_PLACEMENT_3D('',#1008,#803,#804);
#679=AXIS2_PLACEMENT_3D('',#1009,#805,#806);
#680=AXIS2_PLACEMENT_3D('',#1011,#807,#808);
#681=AXIS2_PLACEMENT_3D('',#1012,#809,#810);
#682=AXIS2_PLACEMENT_3D('',#1014,#811,#812);
#683=AXIS2_PLACEMENT_3D('',#1015,#813,#814);
#684=AXIS2_PLACEMENT_3D('',#1017,#815,#816);
#685=AXIS2_PLACEMENT_3D('',#1018,#817,#818);
#686=AXIS2_PLACEMENT_3D('',#1020,#819,#820);
#687=AXIS2_PLACEMENT_3D('',#1021,#821,#822);
#688=AXIS2_PLACEMENT_3D('',#1023,#823,#824);
#689=AXIS2_PLACEMENT_3D('',#1024,#825,#826);
#690=AXIS2_PLACEMENT_3D('',#1026,#827,#828);
#691=AXIS2_PLACEMENT_3D('',#1027,#829,#830);
#692=AXIS2_PLACEMENT_3D('',#1029,#831,#832);
#693=AXIS2_PLACEMENT_3D('',#1030,#833,#834);
#694=AXIS2_PLACEMENT_3D('',#1032,#835,#836);
#695=AXIS2_PLACEMENT_3D('',#1033,#837,#838);
#696=AXIS2_PLACEMENT_3D('',#1035,#839,#840);
#697=AXIS2_PLACEMENT_3D('',#1036,#841,#842);
#698=AXIS2_PLACEMENT_3D('',#1038,#843,#844);
#699=AXIS2_PLACEMENT_3D('',#1039,#845,#846);
#700=AXIS2_PLACEMENT_3D('',#1049,#851,#852);
#701=AXIS2_PLACEMENT_3D('',#1050,#853,#854);
#702=AXIS2_PLACEMENT_3D('',#1052,#856,#857);
#703=AXIS2_PLACEMENT_3D('',#1054,#859,#860);
#704=AXIS2_PLACEMENT_3D('',#1056,#862,#863);
#705=AXIS2_PLACEMENT_3D('',#1058,#865,#866);
#706=AXIS2_PLACEMENT_3D('',#1060,#868,#869);
#707=AXIS2_PLACEMENT_3D('',#1062,#871,#872);
#708=AXIS2_PLACEMENT_3D('',#1064,#874,#875);
#709=AXIS2_PLACEMENT_3D('',#1066,#877,#878);
#710=AXIS2_PLACEMENT_3D('',#1068,#880,#881);
#711=AXIS2_PLACEMENT_3D('',#1070,#883,#884);
#712=AXIS2_PLACEMENT_3D('',#1072,#886,#887);
#713=AXIS2_PLACEMENT_3D('',#1074,#889,#890);
#714=AXIS2_PLACEMENT_3D('',#1075,#891,#892);
#715=AXIS2_PLACEMENT_3D('',#1077,#894,#895);
#716=AXIS2_PLACEMENT_3D('',#1079,#897,#898);
#717=AXIS2_PLACEMENT_3D('',#1081,#900,#901);
#718=AXIS2_PLACEMENT_3D('',#1084,#904,#905);
#719=AXIS2_PLACEMENT_3D('',#1086,#907,#908);
#720=AXIS2_PLACEMENT_3D('',#1088,#910,#911);
#721=DIRECTION('axis',(0.,0.,1.));
#722=DIRECTION('refdir',(1.,0.,0.));
#723=DIRECTION('center_axis',(1.,0.,0.));
#724=DIRECTION('ref_axis',(0.,0.,1.));
#725=DIRECTION('',(0.,0.,-1.));
#726=DIRECTION('',(0.,-1.,0.));
#727=DIRECTION('',(0.,0.,1.));
#728=DIRECTION('',(0.,-1.,0.));
#729=DIRECTION('',(0.,0.,1.));
#730=DIRECTION('',(0.,-1.,0.));
#731=DIRECTION('center_axis',(0.,-1.,0.));
#732=DIRECTION('ref_axis',(0.,0.,-1.));
#733=DIRECTION('',(-1.,0.,0.));
#734=DIRECTION('',(1.,0.,9.56106287610426E-17));
#735=DIRECTION('',(0.,0.,-1.));
#736=DIRECTION('center_axis',(9.56106287610426E-17,0.,-1.));
#737=DIRECTION('ref_axis',(1.,0.,9.56106287610426E-17));
#738=DIRECTION('',(1.,0.,9.56106287610426E-17));
#739=DIRECTION('',(0.,-1.,0.));
#740=DIRECTION('center_axis',(-1.,0.,0.));
#741=DIRECTION('ref_axis',(0.,0.,-1.));
#742=DIRECTION('',(0.,0.,1.));
#743=DIRECTION('',(0.,1.,0.));
#744=DIRECTION('',(0.,0.,-1.));
#745=DIRECTION('',(0.,1.,0.));
#746=DIRECTION('center_axis',(0.,0.,1.));
#747=DIRECTION('ref_axis',(1.,0.,0.));
#748=DIRECTION('',(1.,0.,0.));
#749=DIRECTION('',(0.,-1.,0.));
#750=DIRECTION('',(-1.,0.,0.));
#751=DIRECTION('',(0.,1.,0.));
#752=DIRECTION('',(1.,0.,0.));
#753=DIRECTION('',(-1.,0.,0.));
#754=DIRECTION('',(-1.85262315946492E-16,-1.,0.));
#755=DIRECTION('',(1.,-6.96115737599822E-15,0.));
#756=DIRECTION('',(0.,1.,0.));
#757=DIRECTION('',(-1.,0.,0.));
#758=DIRECTION('center_axis',(0.,0.,-1.));
#759=DIRECTION('ref_axis',(1.,0.,0.));
#760=DIRECTION('center_axis',(0.,0.,-1.));
#761=DIRECTION('ref_axis',(1.,0.,0.));
#762=DIRECTION('center_axis',(0.,0.,-1.));
#763=DIRECTION('ref_axis',(1.,0.,0.));
#764=DIRECTION('center_axis',(0.,0.,-1.));
#765=DIRECTION('ref_axis',(1.,0.,0.));
#766=DIRECTION('center_axis',(0.,0.,-1.));
#767=DIRECTION('ref_axis',(1.,0.,0.));
#768=DIRECTION('center_axis',(0.,0.,-1.));
#769=DIRECTION('ref_axis',(1.,0.,0.));
#770=DIRECTION('center_axis',(0.,0.,-1.));
#771=DIRECTION('ref_axis',(1.,0.,0.));
#772=DIRECTION('center_axis',(0.,0.,-1.));
#773=DIRECTION('ref_axis',(1.,0.,0.));
#774=DIRECTION('center_axis',(0.,0.,-1.));
#775=DIRECTION('ref_axis',(1.,0.,0.));
#776=DIRECTION('center_axis',(0.,0.,-1.));
#777=DIRECTION('ref_axis',(1.,0.,0.));
#778=DIRECTION('center_axis',(0.,0.,-1.));
#779=DIRECTION('ref_axis',(1.,0.,0.));
#780=DIRECTION('center_axis',(0.,0.,-1.));
#781=DIRECTION('ref_axis',(1.,0.,0.));
#782=DIRECTION('center_axis',(0.,0.,-1.));
#783=DIRECTION('ref_axis',(1.,0.,0.));
#784=DIRECTION('center_axis',(0.,0.,1.));
#785=DIRECTION('ref_axis',(1.,0.,0.));
#786=DIRECTION('',(1.,0.,0.));
#787=DIRECTION('',(0.,1.,0.));
#788=DIRECTION('',(-1.,0.,0.));
#789=DIRECTION('',(0.,-1.,0.));
#790=DIRECTION('',(1.,0.,0.));
#791=DIRECTION('center_axis',(0.,-1.,0.));
#792=DIRECTION('ref_axis',(1.,0.,0.));
#793=DIRECTION('',(0.,0.,1.));
#794=DIRECTION('center_axis',(0.,-1.,0.));
#795=DIRECTION('ref_axis',(1.,0.,0.));
#796=DIRECTION('',(0.,0.,1.));
#797=DIRECTION('center_axis',(0.,0.,1.));
#798=DIRECTION('ref_axis',(1.,0.,0.));
#799=DIRECTION('center_axis',(0.,0.,-1.));
#800=DIRECTION('ref_axis',(1.,0.,0.));
#801=DIRECTION('center_axis',(0.,0.,1.));
#802=DIRECTION('ref_axis',(1.,0.,0.));
#803=DIRECTION('center_axis',(0.,0.,-1.));
#804=DIRECTION('ref_axis',(1.,0.,0.));
#805=DIRECTION('center_axis',(0.,0.,1.));
#806=DIRECTION('ref_axis',(1.,0.,0.));
#807=DIRECTION('center_axis',(0.,0.,-1.));
#808=DIRECTION('ref_axis',(1.,0.,0.));
#809=DIRECTION('center_axis',(0.,0.,1.));
#810=DIRECTION('ref_axis',(1.,0.,0.));
#811=DIRECTION('center_axis',(0.,0.,-1.));
#812=DIRECTION('ref_axis',(1.,0.,0.));
#813=DIRECTION('center_axis',(0.,0.,1.));
#814=DIRECTION('ref_axis',(1.,0.,0.));
#815=DIRECTION('center_axis',(0.,0.,-1.));
#816=DIRECTION('ref_axis',(1.,0.,0.));
#817=DIRECTION('center_axis',(0.,0.,1.));
#818=DIRECTION('ref_axis',(1.,0.,0.));
#819=DIRECTION('center_axis',(0.,0.,-1.));
#820=DIRECTION('ref_axis',(1.,0.,0.));
#821=DIRECTION('center_axis',(0.,0.,1.));
#822=DIRECTION('ref_axis',(1.,0.,0.));
#823=DIRECTION('center_axis',(0.,0.,-1.));
#824=DIRECTION('ref_axis',(1.,0.,0.));
#825=DIRECTION('center_axis',(0.,0.,1.));
#826=DIRECTION('ref_axis',(1.,0.,0.));
#827=DIRECTION('center_axis',(0.,0.,-1.));
#828=DIRECTION('ref_axis',(1.,0.,0.));
#829=DIRECTION('center_axis',(0.,0.,1.));
#830=DIRECTION('ref_axis',(1.,0.,0.));
#831=DIRECTION('center_axis',(0.,0.,-1.));
#832=DIRECTION('ref_axis',(1.,0.,0.));
#833=DIRECTION('center_axis',(0.,0.,1.));
#834=DIRECTION('ref_axis',(1.,0.,0.));
#835=DIRECTION('center_axis',(0.,0.,-1.));
#836=DIRECTION('ref_axis',(1.,0.,0.));
#837=DIRECTION('center_axis',(0.,0.,1.));
#838=DIRECTION('ref_axis',(1.,0.,0.));
#839=DIRECTION('center_axis',(0.,0.,-1.));
#840=DIRECTION('ref_axis',(1.,0.,0.));
#841=DIRECTION('center_axis',(0.,0.,1.));
#842=DIRECTION('ref_axis',(1.,0.,0.));
#843=DIRECTION('center_axis',(0.,0.,-1.));
#844=DIRECTION('ref_axis',(1.,0.,0.));
#845=DIRECTION('center_axis',(0.,0.,1.));
#846=DIRECTION('ref_axis',(1.,0.,0.));
#847=DIRECTION('',(-1.,6.96115737599822E-15,0.));
#848=DIRECTION('',(1.85262315946492E-16,1.,0.));
#849=DIRECTION('',(1.,0.,0.));
#850=DIRECTION('',(0.,-1.,0.));
#851=DIRECTION('center_axis',(0.,0.,1.));
#852=DIRECTION('ref_axis',(1.,0.,0.));
#853=DIRECTION('center_axis',(0.,0.,1.));
#854=DIRECTION('ref_axis',(1.,0.,0.));
#855=DIRECTION('',(0.,0.,-1.));
#856=DIRECTION('center_axis',(0.,0.,1.));
#857=DIRECTION('ref_axis',(1.,0.,0.));
#858=DIRECTION('',(0.,0.,-1.));
#859=DIRECTION('center_axis',(0.,0.,1.));
#860=DIRECTION('ref_axis',(1.,0.,0.));
#861=DIRECTION('',(0.,0.,-1.));
#862=DIRECTION('center_axis',(0.,0.,1.));
#863=DIRECTION('ref_axis',(1.,0.,0.));
#864=DIRECTION('',(0.,0.,-1.));
#865=DIRECTION('center_axis',(0.,0.,1.));
#866=DIRECTION('ref_axis',(1.,0.,0.));
#867=DIRECTION('',(0.,0.,-1.));
#868=DIRECTION('center_axis',(0.,0.,1.));
#869=DIRECTION('ref_axis',(1.,0.,0.));
#870=DIRECTION('',(0.,0.,-1.));
#871=DIRECTION('center_axis',(0.,0.,1.));
#872=DIRECTION('ref_axis',(1.,0.,0.));
#873=DIRECTION('',(0.,0.,-1.));
#874=DIRECTION('center_axis',(0.,0.,1.));
#875=DIRECTION('ref_axis',(1.,0.,0.));
#876=DIRECTION('',(0.,0.,-1.));
#877=DIRECTION('center_axis',(0.,0.,1.));
#878=DIRECTION('ref_axis',(1.,0.,0.));
#879=DIRECTION('',(0.,0.,-1.));
#880=DIRECTION('center_axis',(0.,0.,1.));
#881=DIRECTION('ref_axis',(1.,0.,0.));
#882=DIRECTION('',(0.,0.,-1.));
#883=DIRECTION('center_axis',(-1.,0.,0.));
#884=DIRECTION('ref_axis',(0.,-1.,0.));
#885=DIRECTION('',(0.,0.,1.));
#886=DIRECTION('center_axis',(1.,0.,0.));
#887=DIRECTION('ref_axis',(0.,1.,0.));
#888=DIRECTION('',(0.,0.,1.));
#889=DIRECTION('center_axis',(0.,1.,0.));
#890=DIRECTION('ref_axis',(-1.,0.,0.));
#891=DIRECTION('center_axis',(0.,0.,1.));
#892=DIRECTION('ref_axis',(1.,0.,0.));
#893=DIRECTION('',(0.,0.,-1.));
#894=DIRECTION('center_axis',(0.,0.,1.));
#895=DIRECTION('ref_axis',(1.,0.,0.));
#896=DIRECTION('',(0.,0.,-1.));
#897=DIRECTION('center_axis',(0.,0.,1.));
#898=DIRECTION('ref_axis',(1.,0.,0.));
#899=DIRECTION('',(0.,0.,-1.));
#900=DIRECTION('center_axis',(-1.,1.85262315946492E-16,0.));
#901=DIRECTION('ref_axis',(-1.85262315946492E-16,-1.,0.));
#902=DIRECTION('',(0.,0.,-1.));
#903=DIRECTION('',(0.,0.,1.));
#904=DIRECTION('center_axis',(0.,1.,0.));
#905=DIRECTION('ref_axis',(-1.,0.,0.));
#906=DIRECTION('',(0.,0.,1.));
#907=DIRECTION('center_axis',(1.,0.,0.));
#908=DIRECTION('ref_axis',(0.,1.,0.));
#909=DIRECTION('',(0.,0.,1.));
#910=DIRECTION('center_axis',(-6.96115737599822E-15,-1.,0.));
#911=DIRECTION('ref_axis',(1.,-6.96115737599822E-15,0.));
#912=CARTESIAN_POINT('',(0.,0.,0.));
#913=CARTESIAN_POINT('Origin',(343.591432188135,10.,-170.036213776907));
#914=CARTESIAN_POINT('',(343.591432188135,0.,-152.));
#915=CARTESIAN_POINT('',(343.591432188135,0.,-170.));
#916=CARTESIAN_POINT('',(343.591432188135,0.,-170.018106888454));
#917=CARTESIAN_POINT('',(343.591432188135,10.,-152.));
#918=CARTESIAN_POINT('',(343.591432188135,-25.95625,-152.));
#919=CARTESIAN_POINT('',(343.591432188135,10.,-170.036213776907));
#920=CARTESIAN_POINT('',(343.591432188135,10.,-170.018106888454));
#921=CARTESIAN_POINT('',(343.591432188135,-15.,-170.036213776907));
#922=CARTESIAN_POINT('',(343.591432188135,10.,-170.036213776907));
#923=CARTESIAN_POINT('',(343.591432188135,-15.,-170.));
#924=CARTESIAN_POINT('',(343.591432188135,-15.,-152.));
#925=CARTESIAN_POINT('',(343.591432188135,-58.376966094066,-170.));
#926=CARTESIAN_POINT('Origin',(297.14375,-15.,-161.018106888454));
#927=CARTESIAN_POINT('',(250.696067811865,-15.,-170.));
#928=CARTESIAN_POINT('',(145.250002793708,-15.,-170.));
#929=CARTESIAN_POINT('',(250.696067811865,-15.,-170.036213776907));
#930=CARTESIAN_POINT('',(343.591432188135,-15.,-170.036213776907));
#931=CARTESIAN_POINT('',(250.696067811865,-15.,-152.));
#932=CARTESIAN_POINT('Origin',(250.696067811865,10.,-170.036213776907));
#933=CARTESIAN_POINT('',(250.696067811865,10.,-170.036213776907));
#934=CARTESIAN_POINT('',(313.704283905933,10.,-170.036213776907));
#935=CARTESIAN_POINT('',(250.696067811865,10.,-170.036213776907));
#936=CARTESIAN_POINT('Origin',(250.696067811865,10.,-152.));
#937=CARTESIAN_POINT('',(250.696067811865,0.,-170.));
#938=CARTESIAN_POINT('',(250.696067811865,0.,-152.));
#939=CARTESIAN_POINT('',(250.696067811865,0.,-161.));
#940=CARTESIAN_POINT('',(250.696067811865,-58.376966094066,-170.));
#941=CARTESIAN_POINT('',(250.696067811865,10.,-152.));
#942=CARTESIAN_POINT('',(250.696067811865,10.,-161.));
#943=CARTESIAN_POINT('',(250.696067811865,-25.95625,-152.));
#944=CARTESIAN_POINT('Origin',(181.498843887776,-61.9125,-152.));
#945=CARTESIAN_POINT('',(366.7125,0.,-152.));
#946=CARTESIAN_POINT('',(-3.71481222444882,0.,-152.));
#947=CARTESIAN_POINT('',(366.7125,-123.824999999997,-152.));
#948=CARTESIAN_POINT('',(366.7125,0.,-152.));
#949=CARTESIAN_POINT('',(-3.71481222444883,-123.824999999997,-152.));
#950=CARTESIAN_POINT('',(366.7125,-123.824999999997,-152.));
#951=CARTESIAN_POINT('',(-3.71481222444883,0.,-152.));
#952=CARTESIAN_POINT('',(-3.71481222444882,-123.824999999997,-152.));
#953=CARTESIAN_POINT('',(-3.71481222444882,0.,-152.));
#954=CARTESIAN_POINT('',(-13.7148122244488,10.,-152.));
#955=CARTESIAN_POINT('',(-13.7148122244488,10.,-152.));
#956=CARTESIAN_POINT('',(-13.7148122244488,-133.824999999997,-152.));
#957=CARTESIAN_POINT('',(-13.7148122244488,-133.824999999997,-152.));
#958=CARTESIAN_POINT('',(376.7125,-133.825,-152.));
#959=CARTESIAN_POINT('',(-13.7148122244488,-133.824999999997,-152.));
#960=CARTESIAN_POINT('',(376.7125,10.,-152.));
#961=CARTESIAN_POINT('',(376.7125,-133.825,-152.));
#962=CARTESIAN_POINT('',(-13.7148122244488,10.,-152.));
#963=CARTESIAN_POINT('',(230.14544884192,-126.753932188135,-152.));
#964=CARTESIAN_POINT('Origin',(230.94544884192,-126.753932188135,-152.));
#965=CARTESIAN_POINT('',(139.621067811865,-126.753932188135,-152.));
#966=CARTESIAN_POINT('Origin',(140.421067811865,-126.753932188135,-152.));
#967=CARTESIAN_POINT('',(244.396067811865,-126.753932188135,-152.));
#968=CARTESIAN_POINT('Origin',(245.196067811865,-126.753932188135,-152.));
#969=CARTESIAN_POINT('',(244.396067811865,2.92893218813453,-152.));
#970=CARTESIAN_POINT('Origin',(245.196067811865,2.92893218813453,-152.));
#971=CARTESIAN_POINT('',(368.841432188135,2.92893218813453,-152.));
#972=CARTESIAN_POINT('Origin',(369.641432188135,2.92893218813453,-152.));
#973=CARTESIAN_POINT('',(-3.72893218813452,2.92893218813453,-152.));
#974=CARTESIAN_POINT('Origin',(-2.92893218813452,2.92893218813453,-152.));
#975=CARTESIAN_POINT('',(-7.44374441258332,2.92893218813453,-152.));
#976=CARTESIAN_POINT('Origin',(-6.64374441258332,2.92893218813453,-152.));
#977=CARTESIAN_POINT('',(125.929138074924,2.92893218813453,-152.));
#978=CARTESIAN_POINT('Origin',(126.729138074924,2.92893218813453,-152.));
#979=CARTESIAN_POINT('',(-7.44374441258445,-126.753932188132,-152.));
#980=CARTESIAN_POINT('Origin',(-6.64374441258445,-126.753932188132,-152.));
#981=CARTESIAN_POINT('',(125.929138074924,-126.753932188135,-152.));
#982=CARTESIAN_POINT('Origin',(126.729138074924,-126.753932188135,-152.));
#983=CARTESIAN_POINT('',(230.14544884192,2.92893218813453,-152.));
#984=CARTESIAN_POINT('Origin',(230.94544884192,2.92893218813453,-152.));
#985=CARTESIAN_POINT('',(368.841432188136,-126.753932188132,-152.));
#986=CARTESIAN_POINT('Origin',(369.641432188136,-126.753932188132,-152.));
#987=CARTESIAN_POINT('',(139.621067811865,2.92893218813453,-152.));
#988=CARTESIAN_POINT('Origin',(140.421067811865,2.92893218813453,-152.));
#989=CARTESIAN_POINT('Origin',(-6.64374441258445,-126.753932188132,-170.));
#990=CARTESIAN_POINT('',(-3.71481222444882,0.,-170.));
#991=CARTESIAN_POINT('',(-3.71481222444882,0.,-170.));
#992=CARTESIAN_POINT('',(-3.71481222444882,-123.824999999997,-170.));
#993=CARTESIAN_POINT('',(-3.71481222444882,-123.824999999997,-170.));
#994=CARTESIAN_POINT('',(366.7125,-123.824999999997,-170.));
#995=CARTESIAN_POINT('',(366.7125,-123.824999999997,-170.));
#996=CARTESIAN_POINT('',(366.7125,0.,-170.));
#997=CARTESIAN_POINT('',(366.7125,0.,-170.));
#998=CARTESIAN_POINT('',(-3.71481222444882,0.,-170.));
#999=CARTESIAN_POINT('Origin',(-3.71481222444882,0.,-170.));
#1000=CARTESIAN_POINT('',(-3.71481222444882,0.,-170.));
#1001=CARTESIAN_POINT('Origin',(-3.71481222444882,0.,-170.));
#1002=CARTESIAN_POINT('',(366.7125,0.,-170.));
#1003=CARTESIAN_POINT('Origin',(-6.64374441258445,-126.753932188132,-170.));
#1004=CARTESIAN_POINT('',(139.621067811865,2.92893218813453,-170.));
#1005=CARTESIAN_POINT('Origin',(140.421067811865,2.92893218813453,-170.));
#1006=CARTESIAN_POINT('Origin',(-6.64374441258445,-126.753932188132,-170.));
#1007=CARTESIAN_POINT('',(368.841432188136,-126.753932188132,-170.));
#1008=CARTESIAN_POINT('Origin',(369.641432188136,-126.753932188132,-170.));
#1009=CARTESIAN_POINT('Origin',(-6.64374441258445,-126.753932188132,-170.));
#1010=CARTESIAN_POINT('',(230.14544884192,2.92893218813453,-170.));
#1011=CARTESIAN_POINT('Origin',(230.94544884192,2.92893218813453,-170.));
#1012=CARTESIAN_POINT('Origin',(-6.64374441258445,-126.753932188132,-170.));
#1013=CARTESIAN_POINT('',(125.929138074924,-126.753932188135,-170.));
#1014=CARTESIAN_POINT('Origin',(126.729138074924,-126.753932188135,-170.));
#1015=CARTESIAN_POINT('Origin',(-6.64374441258445,-126.753932188132,-170.));
#1016=CARTESIAN_POINT('',(-7.44374441258445,-126.753932188132,-170.));
#1017=CARTESIAN_POINT('Origin',(-6.64374441258445,-126.753932188132,-170.));
#1018=CARTESIAN_POINT('Origin',(-6.64374441258445,-126.753932188132,-170.));
#1019=CARTESIAN_POINT('',(125.929138074924,2.92893218813453,-170.));
#1020=CARTESIAN_POINT('Origin',(126.729138074924,2.92893218813453,-170.));
#1021=CARTESIAN_POINT('Origin',(-6.64374441258445,-126.753932188132,-170.));
#1022=CARTESIAN_POINT('',(-3.72893218813452,2.92893218813453,-170.));
#1023=CARTESIAN_POINT('Origin',(-2.92893218813452,2.92893218813453,-170.));
#1024=CARTESIAN_POINT('Origin',(-6.64374441258445,-126.753932188132,-170.));
#1025=CARTESIAN_POINT('',(368.841432188135,2.92893218813453,-170.));
#1026=CARTESIAN_POINT('Origin',(369.641432188135,2.92893218813453,-170.));
#1027=CARTESIAN_POINT('Origin',(-6.64374441258445,-126.753932188132,-170.));
#1028=CARTESIAN_POINT('',(244.396067811865,2.92893218813453,-170.));
#1029=CARTESIAN_POINT('Origin',(245.196067811865,2.92893218813453,-170.));
#1030=CARTESIAN_POINT('Origin',(-6.64374441258445,-126.753932188132,-170.));
#1031=CARTESIAN_POINT('',(244.396067811865,-126.753932188135,-170.));
#1032=CARTESIAN_POINT('Origin',(245.196067811865,-126.753932188135,-170.));
#1033=CARTESIAN_POINT('Origin',(-6.64374441258445,-126.753932188132,-170.));
#1034=CARTESIAN_POINT('',(139.621067811865,-126.753932188135,-170.));
#1035=CARTESIAN_POINT('Origin',(140.421067811865,-126.753932188135,-170.));
#1036=CARTESIAN_POINT('Origin',(-6.64374441258445,-126.753932188132,-170.));
#1037=CARTESIAN_POINT('',(230.14544884192,-126.753932188135,-170.));
#1038=CARTESIAN_POINT('Origin',(230.94544884192,-126.753932188135,-170.));
#1039=CARTESIAN_POINT('Origin',(-6.64374441258445,-126.753932188132,-172.));
#1040=CARTESIAN_POINT('',(376.7125,-133.825,-172.));
#1041=CARTESIAN_POINT('',(-13.7148122244488,-133.824999999997,-172.));
#1042=CARTESIAN_POINT('',(-13.7148122244488,-133.824999999997,-172.));
#1043=CARTESIAN_POINT('',(-13.7148122244488,10.,-172.));
#1044=CARTESIAN_POINT('',(-13.7148122244488,-133.824999999997,-172.));
#1045=CARTESIAN_POINT('',(376.7125,10.,-172.));
#1046=CARTESIAN_POINT('',(-13.7148122244488,10.,-172.));
#1047=CARTESIAN_POINT('',(376.7125,-133.825,-172.));
#1048=CARTESIAN_POINT('',(-7.44374441258332,2.92893218813453,-172.));
#1049=CARTESIAN_POINT('Origin',(-6.64374441258332,2.92893218813453,-172.));
#1050=CARTESIAN_POINT('Origin',(230.94544884192,-126.753932188135,-170.));
#1051=CARTESIAN_POINT('',(230.14544884192,-126.753932188135,-170.));
#1052=CARTESIAN_POINT('Origin',(140.421067811865,-126.753932188135,-170.));
#1053=CARTESIAN_POINT('',(139.621067811865,-126.753932188135,-170.));
#1054=CARTESIAN_POINT('Origin',(245.196067811865,-126.753932188135,-170.));
#1055=CARTESIAN_POINT('',(244.396067811865,-126.753932188135,-170.));
#1056=CARTESIAN_POINT('Origin',(245.196067811865,2.92893218813453,-170.));
#1057=CARTESIAN_POINT('',(244.396067811865,2.92893218813453,-170.));
#1058=CARTESIAN_POINT('Origin',(369.641432188135,2.92893218813453,-170.));
#1059=CARTESIAN_POINT('',(368.841432188135,2.92893218813453,-170.));
#1060=CARTESIAN_POINT('Origin',(-2.92893218813452,2.92893218813453,-170.));
#1061=CARTESIAN_POINT('',(-3.72893218813452,2.92893218813453,-170.));
#1062=CARTESIAN_POINT('Origin',(-6.64374441258332,2.92893218813453,-170.));
#1063=CARTESIAN_POINT('',(-7.44374441258332,2.92893218813453,-170.));
#1064=CARTESIAN_POINT('Origin',(126.729138074924,2.92893218813453,-170.));
#1065=CARTESIAN_POINT('',(125.929138074924,2.92893218813453,-170.));
#1066=CARTESIAN_POINT('Origin',(-6.64374441258445,-126.753932188132,-170.));
#1067=CARTESIAN_POINT('',(-7.44374441258445,-126.753932188132,-170.));
#1068=CARTESIAN_POINT('Origin',(126.729138074924,-126.753932188135,-170.));
#1069=CARTESIAN_POINT('',(125.929138074924,-126.753932188135,-170.));
#1070=CARTESIAN_POINT('Origin',(366.7125,0.,-170.));
#1071=CARTESIAN_POINT('',(366.7125,-123.824999999997,-170.));
#1072=CARTESIAN_POINT('Origin',(-3.71481222444882,-123.824999999997,-170.));
#1073=CARTESIAN_POINT('',(-3.71481222444882,-123.824999999997,-170.));
#1074=CARTESIAN_POINT('Origin',(366.7125,-123.824999999997,-170.));
#1075=CARTESIAN_POINT('Origin',(230.94544884192,2.92893218813453,-170.));
#1076=CARTESIAN_POINT('',(230.14544884192,2.92893218813453,-170.));
#1077=CARTESIAN_POINT('Origin',(369.641432188136,-126.753932188132,-170.));
#1078=CARTESIAN_POINT('',(368.841432188136,-126.753932188132,-170.));
#1079=CARTESIAN_POINT('Origin',(140.421067811865,2.92893218813453,-170.));
#1080=CARTESIAN_POINT('',(139.621067811865,2.92893218813453,-170.));
#1081=CARTESIAN_POINT('Origin',(-13.7148122244488,10.,-170.));
#1082=CARTESIAN_POINT('',(-13.7148122244488,-133.824999999997,-170.));
#1083=CARTESIAN_POINT('',(-13.7148122244488,10.,-170.));
#1084=CARTESIAN_POINT('Origin',(376.7125,10.,-170.));
#1085=CARTESIAN_POINT('',(376.7125,10.,-170.));
#1086=CARTESIAN_POINT('Origin',(376.7125,-133.825,-170.));
#1087=CARTESIAN_POINT('',(376.7125,-133.825,-170.));
#1088=CARTESIAN_POINT('Origin',(-13.7148122244488,-133.824999999997,-170.));
#1089=UNCERTAINTY_MEASURE_WITH_UNIT(LENGTH_MEASURE(0.01),#1093,
'DISTANCE_ACCURACY_VALUE',
'Maximum model space distance between geometric entities at asserted c
onnectivities');
#1090=UNCERTAINTY_MEASURE_WITH_UNIT(LENGTH_MEASURE(0.01),#1093,
'DISTANCE_ACCURACY_VALUE',
'Maximum model space distance between geometric entities at asserted c
onnectivities');
#1091=(
GEOMETRIC_REPRESENTATION_CONTEXT(3)
GLOBAL_UNCERTAINTY_ASSIGNED_CONTEXT((#1089))
GLOBAL_UNIT_ASSIGNED_CONTEXT((#1093,#1095,#1096))
REPRESENTATION_CONTEXT('','3D')
);
#1092=(
GEOMETRIC_REPRESENTATION_CONTEXT(3)
GLOBAL_UNCERTAINTY_ASSIGNED_CONTEXT((#1090))
GLOBAL_UNIT_ASSIGNED_CONTEXT((#1093,#1095,#1096))
REPRESENTATION_CONTEXT('','3D')
);
#1093=(
LENGTH_UNIT()
NAMED_UNIT(*)
SI_UNIT(.MILLI.,.METRE.)
);
#1094=(
LENGTH_UNIT()
NAMED_UNIT(*)
SI_UNIT($,.METRE.)
);
#1095=(
NAMED_UNIT(*)
PLANE_ANGLE_UNIT()
SI_UNIT($,.RADIAN.)
);
#1096=(
NAMED_UNIT(*)
SI_UNIT($,.STERADIAN.)
SOLID_ANGLE_UNIT()
);
#1097=SHAPE_DEFINITION_REPRESENTATION(#1098,#1099);
#1098=PRODUCT_DEFINITION_SHAPE('',$,#1101);
#1099=SHAPE_REPRESENTATION('',(#653),#1091);
#1100=PRODUCT_DEFINITION_CONTEXT('part definition',#1105,'design');
#1101=PRODUCT_DEFINITION('HandwireTKL','HandwireTKL v28',#1102,#1100);
#1102=PRODUCT_DEFINITION_FORMATION('',$,#1107);
#1103=PRODUCT_RELATED_PRODUCT_CATEGORY('HandwireTKL v28',
'HandwireTKL v28',(#1107));
#1104=APPLICATION_PROTOCOL_DEFINITION('international standard',
'automotive_design',2009,#1105);
#1105=APPLICATION_CONTEXT(
'Core Data for Automotive Mechanical Design Process');
#1106=PRODUCT_CONTEXT('part definition',#1105,'mechanical');
#1107=PRODUCT('HandwireTKL','HandwireTKL v28',$,(#1106));
#1108=PRESENTATION_STYLE_ASSIGNMENT((#1111));
#1109=PRESENTATION_STYLE_ASSIGNMENT((#1112));
#1110=PRESENTATION_STYLE_ASSIGNMENT((#1113));
#1111=SURFACE_STYLE_USAGE(.BOTH.,#1114);
#1112=SURFACE_STYLE_USAGE(.BOTH.,#1115);
#1113=SURFACE_STYLE_USAGE(.BOTH.,#1116);
#1114=SURFACE_SIDE_STYLE('',(#1117));
#1115=SURFACE_SIDE_STYLE('',(#1118));
#1116=SURFACE_SIDE_STYLE('',(#1119));
#1117=SURFACE_STYLE_FILL_AREA(#1120);
#1118=SURFACE_STYLE_FILL_AREA(#1121);
#1119=SURFACE_STYLE_FILL_AREA(#1122);
#1120=FILL_AREA_STYLE('Steel - Satin',(#1123));
#1121=FILL_AREA_STYLE('Plastic - Glossy (Black)',(#1124));
#1122=FILL_AREA_STYLE('Aluminum - Polished',(#1125));
#1123=FILL_AREA_STYLE_COLOUR('Steel - Satin',#1126);
#1124=FILL_AREA_STYLE_COLOUR('Plastic - Glossy (Black)',#1127);
#1125=FILL_AREA_STYLE_COLOUR('Aluminum - Polished',#1128);
#1126=COLOUR_RGB('Steel - Satin',0.627450980392157,0.627450980392157,0.627450980392157);
#1127=COLOUR_RGB('Plastic - Glossy (Black)',0.0980392156862745,0.0980392156862745,
0.0980392156862745);
#1128=COLOUR_RGB('Aluminum - Polished',0.96078431372549,0.96078431372549,
0.964705882352941);
ENDSEC;
END-ISO-10303-21;
