ISO-10303-21;
HEADER;
/* Generated by software containing ST-Developer
 * from STEP Tools, Inc. (www.steptools.com) 
 */

FILE_DESCRIPTION(
/* description */ (''),
/* implementation_level */ '2;1');

FILE_NAME(
/* name */ 'Risers.step',
/* time_stamp */ '2026-07-31T13:33:39+01:00',
/* author */ (''),
/* organization */ (''),
/* preprocessor_version */ 'ST-DEVELOPER v20.1',
/* originating_system */ 'Autodesk Translation Framework v15.8.0.0',
/* authorisation */ '');

FILE_SCHEMA (('AUTOMOTIVE_DESIGN { 1 0 10303 214 3 1 1 }'));
ENDSEC;

DATA;
#10=MECHANICAL_DESIGN_GEOMETRIC_PRESENTATION_REPRESENTATION('',(#13,#14,
#15,#16,#17,#18,#19,#20,#21),#2165);
#11=SHAPE_REPRESENTATION_RELATIONSHIP('SRR','None',#2172,#12);
#12=ADVANCED_BREP_SHAPE_REPRESENTATION('',(#22,#23,#24,#25,#26,#27,#28,
#29,#30),#2164);
#13=STYLED_ITEM('',(#2182),#22);
#14=STYLED_ITEM('',(#2182),#23);
#15=STYLED_ITEM('',(#2182),#24);
#16=STYLED_ITEM('',(#2182),#25);
#17=STYLED_ITEM('',(#2182),#26);
#18=STYLED_ITEM('',(#2182),#27);
#19=STYLED_ITEM('',(#2182),#28);
#20=STYLED_ITEM('',(#2182),#29);
#21=STYLED_ITEM('',(#2181),#30);
#22=MANIFOLD_SOLID_BREP('riser2',#1337);
#23=MANIFOLD_SOLID_BREP('corner1',#1338);
#24=MANIFOLD_SOLID_BREP('riser4',#1339);
#25=MANIFOLD_SOLID_BREP('corner4',#1340);
#26=MANIFOLD_SOLID_BREP('riser3',#1341);
#27=MANIFOLD_SOLID_BREP('corner2',#1342);
#28=MANIFOLD_SOLID_BREP('riser1',#1343);
#29=MANIFOLD_SOLID_BREP('corner3',#1344);
#30=MANIFOLD_SOLID_BREP('screenstand',#1345);
#31=FACE_BOUND('',#197,.T.);
#32=FACE_BOUND('',#199,.T.);
#33=FACE_BOUND('',#212,.T.);
#34=FACE_BOUND('',#214,.T.);
#35=FACE_BOUND('',#221,.T.);
#36=FACE_BOUND('',#223,.T.);
#37=FACE_BOUND('',#231,.T.);
#38=FACE_BOUND('',#232,.T.);
#39=FACE_BOUND('',#234,.T.);
#40=FACE_BOUND('',#235,.T.);
#41=FACE_BOUND('',#249,.T.);
#42=FACE_BOUND('',#250,.T.);
#43=FACE_BOUND('',#252,.T.);
#44=FACE_BOUND('',#253,.T.);
#45=FACE_BOUND('',#260,.T.);
#46=FACE_BOUND('',#262,.T.);
#47=PLANE('',#1362);
#48=PLANE('',#1363);
#49=PLANE('',#1364);
#50=PLANE('',#1365);
#51=PLANE('',#1366);
#52=PLANE('',#1367);
#53=PLANE('',#1368);
#54=PLANE('',#1369);
#55=PLANE('',#1370);
#56=PLANE('',#1371);
#57=PLANE('',#1372);
#58=PLANE('',#1373);
#59=PLANE('',#1377);
#60=PLANE('',#1378);
#61=PLANE('',#1379);
#62=PLANE('',#1380);
#63=PLANE('',#1381);
#64=PLANE('',#1382);
#65=PLANE('',#1386);
#66=PLANE('',#1387);
#67=PLANE('',#1388);
#68=PLANE('',#1389);
#69=PLANE('',#1390);
#70=PLANE('',#1391);
#71=PLANE('',#1398);
#72=PLANE('',#1399);
#73=PLANE('',#1400);
#74=PLANE('',#1401);
#75=PLANE('',#1402);
#76=PLANE('',#1403);
#77=PLANE('',#1404);
#78=PLANE('',#1405);
#79=PLANE('',#1406);
#80=PLANE('',#1407);
#81=PLANE('',#1408);
#82=PLANE('',#1409);
#83=PLANE('',#1416);
#84=PLANE('',#1417);
#85=PLANE('',#1418);
#86=PLANE('',#1419);
#87=PLANE('',#1420);
#88=PLANE('',#1421);
#89=PLANE('',#1425);
#90=PLANE('',#1426);
#91=PLANE('',#1427);
#92=PLANE('',#1428);
#93=PLANE('',#1429);
#94=PLANE('',#1430);
#95=PLANE('',#1431);
#96=PLANE('',#1432);
#97=PLANE('',#1433);
#98=PLANE('',#1434);
#99=PLANE('',#1435);
#100=PLANE('',#1436);
#101=PLANE('',#1437);
#102=PLANE('',#1438);
#103=PLANE('',#1439);
#104=PLANE('',#1440);
#105=PLANE('',#1441);
#106=PLANE('',#1442);
#107=PLANE('',#1443);
#108=PLANE('',#1444);
#109=PLANE('',#1445);
#110=PLANE('',#1446);
#111=PLANE('',#1447);
#112=PLANE('',#1448);
#113=PLANE('',#1449);
#114=PLANE('',#1450);
#115=FACE_OUTER_BOUND('',#191,.T.);
#116=FACE_OUTER_BOUND('',#192,.T.);
#117=FACE_OUTER_BOUND('',#193,.T.);
#118=FACE_OUTER_BOUND('',#194,.T.);
#119=FACE_OUTER_BOUND('',#195,.T.);
#120=FACE_OUTER_BOUND('',#196,.T.);
#121=FACE_OUTER_BOUND('',#198,.T.);
#122=FACE_OUTER_BOUND('',#200,.T.);
#123=FACE_OUTER_BOUND('',#201,.T.);
#124=FACE_OUTER_BOUND('',#202,.T.);
#125=FACE_OUTER_BOUND('',#203,.T.);
#126=FACE_OUTER_BOUND('',#204,.T.);
#127=FACE_OUTER_BOUND('',#205,.T.);
#128=FACE_OUTER_BOUND('',#206,.T.);
#129=FACE_OUTER_BOUND('',#207,.T.);
#130=FACE_OUTER_BOUND('',#208,.T.);
#131=FACE_OUTER_BOUND('',#209,.T.);
#132=FACE_OUTER_BOUND('',#210,.T.);
#133=FACE_OUTER_BOUND('',#211,.T.);
#134=FACE_OUTER_BOUND('',#213,.T.);
#135=FACE_OUTER_BOUND('',#215,.T.);
#136=FACE_OUTER_BOUND('',#216,.T.);
#137=FACE_OUTER_BOUND('',#217,.T.);
#138=FACE_OUTER_BOUND('',#218,.T.);
#139=FACE_OUTER_BOUND('',#219,.T.);
#140=FACE_OUTER_BOUND('',#220,.T.);
#141=FACE_OUTER_BOUND('',#222,.T.);
#142=FACE_OUTER_BOUND('',#224,.T.);
#143=FACE_OUTER_BOUND('',#225,.T.);
#144=FACE_OUTER_BOUND('',#226,.T.);
#145=FACE_OUTER_BOUND('',#227,.T.);
#146=FACE_OUTER_BOUND('',#228,.T.);
#147=FACE_OUTER_BOUND('',#229,.T.);
#148=FACE_OUTER_BOUND('',#230,.T.);
#149=FACE_OUTER_BOUND('',#233,.T.);
#150=FACE_OUTER_BOUND('',#236,.T.);
#151=FACE_OUTER_BOUND('',#237,.T.);
#152=FACE_OUTER_BOUND('',#238,.T.);
#153=FACE_OUTER_BOUND('',#239,.T.);
#154=FACE_OUTER_BOUND('',#240,.T.);
#155=FACE_OUTER_BOUND('',#241,.T.);
#156=FACE_OUTER_BOUND('',#242,.T.);
#157=FACE_OUTER_BOUND('',#243,.T.);
#158=FACE_OUTER_BOUND('',#244,.T.);
#159=FACE_OUTER_BOUND('',#245,.T.);
#160=FACE_OUTER_BOUND('',#246,.T.);
#161=FACE_OUTER_BOUND('',#247,.T.);
#162=FACE_OUTER_BOUND('',#248,.T.);
#163=FACE_OUTER_BOUND('',#251,.T.);
#164=FACE_OUTER_BOUND('',#254,.T.);
#165=FACE_OUTER_BOUND('',#255,.T.);
#166=FACE_OUTER_BOUND('',#256,.T.);
#167=FACE_OUTER_BOUND('',#257,.T.);
#168=FACE_OUTER_BOUND('',#258,.T.);
#169=FACE_OUTER_BOUND('',#259,.T.);
#170=FACE_OUTER_BOUND('',#261,.T.);
#171=FACE_OUTER_BOUND('',#263,.T.);
#172=FACE_OUTER_BOUND('',#264,.T.);
#173=FACE_OUTER_BOUND('',#265,.T.);
#174=FACE_OUTER_BOUND('',#266,.T.);
#175=FACE_OUTER_BOUND('',#267,.T.);
#176=FACE_OUTER_BOUND('',#268,.T.);
#177=FACE_OUTER_BOUND('',#269,.T.);
#178=FACE_OUTER_BOUND('',#270,.T.);
#179=FACE_OUTER_BOUND('',#271,.T.);
#180=FACE_OUTER_BOUND('',#272,.T.);
#181=FACE_OUTER_BOUND('',#273,.T.);
#182=FACE_OUTER_BOUND('',#274,.T.);
#183=FACE_OUTER_BOUND('',#275,.T.);
#184=FACE_OUTER_BOUND('',#276,.T.);
#185=FACE_OUTER_BOUND('',#277,.T.);
#186=FACE_OUTER_BOUND('',#278,.T.);
#187=FACE_OUTER_BOUND('',#279,.T.);
#188=FACE_OUTER_BOUND('',#280,.T.);
#189=FACE_OUTER_BOUND('',#281,.T.);
#190=FACE_OUTER_BOUND('',#282,.T.);
#191=EDGE_LOOP('',(#905,#906,#907,#908));
#192=EDGE_LOOP('',(#909,#910,#911,#912));
#193=EDGE_LOOP('',(#913,#914,#915,#916));
#194=EDGE_LOOP('',(#917,#918,#919,#920));
#195=EDGE_LOOP('',(#921,#922,#923,#924));
#196=EDGE_LOOP('',(#925,#926,#927,#928));
#197=EDGE_LOOP('',(#929));
#198=EDGE_LOOP('',(#930,#931,#932,#933));
#199=EDGE_LOOP('',(#934));
#200=EDGE_LOOP('',(#935,#936,#937,#938));
#201=EDGE_LOOP('',(#939,#940,#941,#942));
#202=EDGE_LOOP('',(#943,#944,#945,#946));
#203=EDGE_LOOP('',(#947,#948,#949,#950));
#204=EDGE_LOOP('',(#951,#952,#953,#954));
#205=EDGE_LOOP('',(#955,#956,#957,#958));
#206=EDGE_LOOP('',(#959,#960,#961,#962));
#207=EDGE_LOOP('',(#963,#964,#965,#966));
#208=EDGE_LOOP('',(#967,#968,#969,#970));
#209=EDGE_LOOP('',(#971,#972,#973,#974));
#210=EDGE_LOOP('',(#975,#976,#977,#978));
#211=EDGE_LOOP('',(#979,#980,#981,#982));
#212=EDGE_LOOP('',(#983));
#213=EDGE_LOOP('',(#984,#985,#986,#987));
#214=EDGE_LOOP('',(#988));
#215=EDGE_LOOP('',(#989,#990,#991,#992));
#216=EDGE_LOOP('',(#993,#994,#995,#996));
#217=EDGE_LOOP('',(#997,#998,#999,#1000));
#218=EDGE_LOOP('',(#1001,#1002,#1003,#1004));
#219=EDGE_LOOP('',(#1005,#1006,#1007,#1008));
#220=EDGE_LOOP('',(#1009,#1010,#1011,#1012));
#221=EDGE_LOOP('',(#1013));
#222=EDGE_LOOP('',(#1014,#1015,#1016,#1017));
#223=EDGE_LOOP('',(#1018));
#224=EDGE_LOOP('',(#1019,#1020,#1021,#1022));
#225=EDGE_LOOP('',(#1023,#1024,#1025,#1026));
#226=EDGE_LOOP('',(#1027,#1028,#1029,#1030));
#227=EDGE_LOOP('',(#1031,#1032,#1033,#1034));
#228=EDGE_LOOP('',(#1035,#1036,#1037,#1038));
#229=EDGE_LOOP('',(#1039,#1040,#1041,#1042));
#230=EDGE_LOOP('',(#1043,#1044,#1045,#1046));
#231=EDGE_LOOP('',(#1047));
#232=EDGE_LOOP('',(#1048));
#233=EDGE_LOOP('',(#1049,#1050,#1051,#1052));
#234=EDGE_LOOP('',(#1053));
#235=EDGE_LOOP('',(#1054));
#236=EDGE_LOOP('',(#1055,#1056,#1057,#1058));
#237=EDGE_LOOP('',(#1059,#1060,#1061,#1062));
#238=EDGE_LOOP('',(#1063,#1064,#1065,#1066));
#239=EDGE_LOOP('',(#1067,#1068,#1069,#1070));
#240=EDGE_LOOP('',(#1071,#1072,#1073,#1074));
#241=EDGE_LOOP('',(#1075,#1076,#1077,#1078));
#242=EDGE_LOOP('',(#1079,#1080,#1081,#1082));
#243=EDGE_LOOP('',(#1083,#1084,#1085,#1086));
#244=EDGE_LOOP('',(#1087,#1088,#1089,#1090));
#245=EDGE_LOOP('',(#1091,#1092,#1093,#1094));
#246=EDGE_LOOP('',(#1095,#1096,#1097,#1098));
#247=EDGE_LOOP('',(#1099,#1100,#1101,#1102));
#248=EDGE_LOOP('',(#1103,#1104,#1105,#1106));
#249=EDGE_LOOP('',(#1107));
#250=EDGE_LOOP('',(#1108));
#251=EDGE_LOOP('',(#1109,#1110,#1111,#1112));
#252=EDGE_LOOP('',(#1113));
#253=EDGE_LOOP('',(#1114));
#254=EDGE_LOOP('',(#1115,#1116,#1117,#1118));
#255=EDGE_LOOP('',(#1119,#1120,#1121,#1122));
#256=EDGE_LOOP('',(#1123,#1124,#1125,#1126));
#257=EDGE_LOOP('',(#1127,#1128,#1129,#1130));
#258=EDGE_LOOP('',(#1131,#1132,#1133,#1134));
#259=EDGE_LOOP('',(#1135,#1136,#1137,#1138));
#260=EDGE_LOOP('',(#1139));
#261=EDGE_LOOP('',(#1140,#1141,#1142,#1143));
#262=EDGE_LOOP('',(#1144));
#263=EDGE_LOOP('',(#1145,#1146,#1147,#1148,#1149,#1150,#1151,#1152));
#264=EDGE_LOOP('',(#1153,#1154,#1155,#1156,#1157,#1158,#1159,#1160));
#265=EDGE_LOOP('',(#1161,#1162,#1163,#1164,#1165,#1166,#1167,#1168));
#266=EDGE_LOOP('',(#1169,#1170,#1171,#1172,#1173,#1174));
#267=EDGE_LOOP('',(#1175,#1176,#1177,#1178));
#268=EDGE_LOOP('',(#1179,#1180,#1181,#1182));
#269=EDGE_LOOP('',(#1183,#1184,#1185,#1186));
#270=EDGE_LOOP('',(#1187,#1188,#1189,#1190));
#271=EDGE_LOOP('',(#1191,#1192,#1193,#1194,#1195,#1196));
#272=EDGE_LOOP('',(#1197,#1198,#1199,#1200));
#273=EDGE_LOOP('',(#1201,#1202,#1203,#1204));
#274=EDGE_LOOP('',(#1205,#1206,#1207,#1208));
#275=EDGE_LOOP('',(#1209,#1210,#1211,#1212,#1213,#1214,#1215,#1216,#1217,
#1218,#1219,#1220));
#276=EDGE_LOOP('',(#1221,#1222,#1223,#1224));
#277=EDGE_LOOP('',(#1225,#1226,#1227,#1228,#1229,#1230,#1231,#1232));
#278=EDGE_LOOP('',(#1233,#1234,#1235,#1236));
#279=EDGE_LOOP('',(#1237,#1238,#1239,#1240));
#280=EDGE_LOOP('',(#1241,#1242,#1243,#1244));
#281=EDGE_LOOP('',(#1245,#1246,#1247,#1248));
#282=EDGE_LOOP('',(#1249,#1250,#1251,#1252));
#283=LINE('',#1800,#441);
#284=LINE('',#1805,#442);
#285=LINE('',#1807,#443);
#286=LINE('',#1809,#444);
#287=LINE('',#1810,#445);
#288=LINE('',#1813,#446);
#289=LINE('',#1815,#447);
#290=LINE('',#1816,#448);
#291=LINE('',#1819,#449);
#292=LINE('',#1821,#450);
#293=LINE('',#1822,#451);
#294=LINE('',#1824,#452);
#295=LINE('',#1825,#453);
#296=LINE('',#1831,#454);
#297=LINE('',#1833,#455);
#298=LINE('',#1835,#456);
#299=LINE('',#1836,#457);
#300=LINE('',#1839,#458);
#301=LINE('',#1841,#459);
#302=LINE('',#1842,#460);
#303=LINE('',#1845,#461);
#304=LINE('',#1847,#462);
#305=LINE('',#1848,#463);
#306=LINE('',#1850,#464);
#307=LINE('',#1851,#465);
#308=LINE('',#1858,#466);
#309=LINE('',#1863,#467);
#310=LINE('',#1865,#468);
#311=LINE('',#1867,#469);
#312=LINE('',#1868,#470);
#313=LINE('',#1871,#471);
#314=LINE('',#1873,#472);
#315=LINE('',#1874,#473);
#316=LINE('',#1877,#474);
#317=LINE('',#1879,#475);
#318=LINE('',#1880,#476);
#319=LINE('',#1882,#477);
#320=LINE('',#1883,#478);
#321=LINE('',#1890,#479);
#322=LINE('',#1895,#480);
#323=LINE('',#1897,#481);
#324=LINE('',#1899,#482);
#325=LINE('',#1900,#483);
#326=LINE('',#1903,#484);
#327=LINE('',#1905,#485);
#328=LINE('',#1906,#486);
#329=LINE('',#1909,#487);
#330=LINE('',#1911,#488);
#331=LINE('',#1912,#489);
#332=LINE('',#1914,#490);
#333=LINE('',#1915,#491);
#334=LINE('',#1922,#492);
#335=LINE('',#1928,#493);
#336=LINE('',#1933,#494);
#337=LINE('',#1935,#495);
#338=LINE('',#1937,#496);
#339=LINE('',#1938,#497);
#340=LINE('',#1941,#498);
#341=LINE('',#1943,#499);
#342=LINE('',#1944,#500);
#343=LINE('',#1947,#501);
#344=LINE('',#1949,#502);
#345=LINE('',#1950,#503);
#346=LINE('',#1952,#504);
#347=LINE('',#1953,#505);
#348=LINE('',#1959,#506);
#349=LINE('',#1961,#507);
#350=LINE('',#1963,#508);
#351=LINE('',#1964,#509);
#352=LINE('',#1967,#510);
#353=LINE('',#1969,#511);
#354=LINE('',#1970,#512);
#355=LINE('',#1973,#513);
#356=LINE('',#1975,#514);
#357=LINE('',#1976,#515);
#358=LINE('',#1978,#516);
#359=LINE('',#1979,#517);
#360=LINE('',#1986,#518);
#361=LINE('',#1992,#519);
#362=LINE('',#1997,#520);
#363=LINE('',#1999,#521);
#364=LINE('',#2001,#522);
#365=LINE('',#2002,#523);
#366=LINE('',#2005,#524);
#367=LINE('',#2007,#525);
#368=LINE('',#2008,#526);
#369=LINE('',#2011,#527);
#370=LINE('',#2013,#528);
#371=LINE('',#2014,#529);
#372=LINE('',#2016,#530);
#373=LINE('',#2017,#531);
#374=LINE('',#2024,#532);
#375=LINE('',#2029,#533);
#376=LINE('',#2031,#534);
#377=LINE('',#2033,#535);
#378=LINE('',#2034,#536);
#379=LINE('',#2037,#537);
#380=LINE('',#2039,#538);
#381=LINE('',#2040,#539);
#382=LINE('',#2043,#540);
#383=LINE('',#2045,#541);
#384=LINE('',#2046,#542);
#385=LINE('',#2048,#543);
#386=LINE('',#2049,#544);
#387=LINE('',#2055,#545);
#388=LINE('',#2057,#546);
#389=LINE('',#2059,#547);
#390=LINE('',#2061,#548);
#391=LINE('',#2063,#549);
#392=LINE('',#2065,#550);
#393=LINE('',#2067,#551);
#394=LINE('',#2068,#552);
#395=LINE('',#2071,#553);
#396=LINE('',#2073,#554);
#397=LINE('',#2075,#555);
#398=LINE('',#2077,#556);
#399=LINE('',#2079,#557);
#400=LINE('',#2081,#558);
#401=LINE('',#2082,#559);
#402=LINE('',#2085,#560);
#403=LINE('',#2087,#561);
#404=LINE('',#2089,#562);
#405=LINE('',#2091,#563);
#406=LINE('',#2093,#564);
#407=LINE('',#2095,#565);
#408=LINE('',#2096,#566);
#409=LINE('',#2100,#567);
#410=LINE('',#2101,#568);
#411=LINE('',#2103,#569);
#412=LINE('',#2105,#570);
#413=LINE('',#2106,#571);
#414=LINE('',#2110,#572);
#415=LINE('',#2111,#573);
#416=LINE('',#2112,#574);
#417=LINE('',#2115,#575);
#418=LINE('',#2116,#576);
#419=LINE('',#2119,#577);
#420=LINE('',#2120,#578);
#421=LINE('',#2124,#579);
#422=LINE('',#2125,#580);
#423=LINE('',#2126,#581);
#424=LINE('',#2129,#582);
#425=LINE('',#2131,#583);
#426=LINE('',#2132,#584);
#427=LINE('',#2134,#585);
#428=LINE('',#2137,#586);
#429=LINE('',#2138,#587);
#430=LINE('',#2140,#588);
#431=LINE('',#2142,#589);
#432=LINE('',#2144,#590);
#433=LINE('',#2146,#591);
#434=LINE('',#2148,#592);
#435=LINE('',#2149,#593);
#436=LINE('',#2150,#594);
#437=LINE('',#2152,#595);
#438=LINE('',#2156,#596);
#439=LINE('',#2158,#597);
#440=LINE('',#2160,#598);
#441=VECTOR('',#1457,1.00000000000001);
#442=VECTOR('',#1462,10.);
#443=VECTOR('',#1463,10.);
#444=VECTOR('',#1464,10.);
#445=VECTOR('',#1465,10.);
#446=VECTOR('',#1468,10.);
#447=VECTOR('',#1469,10.);
#448=VECTOR('',#1470,10.);
#449=VECTOR('',#1473,10.);
#450=VECTOR('',#1474,10.);
#451=VECTOR('',#1475,10.);
#452=VECTOR('',#1478,10.);
#453=VECTOR('',#1479,10.);
#454=VECTOR('',#1486,10.);
#455=VECTOR('',#1487,10.);
#456=VECTOR('',#1488,10.);
#457=VECTOR('',#1489,10.);
#458=VECTOR('',#1492,10.);
#459=VECTOR('',#1493,10.);
#460=VECTOR('',#1494,10.);
#461=VECTOR('',#1497,10.);
#462=VECTOR('',#1498,10.);
#463=VECTOR('',#1499,10.);
#464=VECTOR('',#1502,10.);
#465=VECTOR('',#1503,10.);
#466=VECTOR('',#1512,1.00000000000001);
#467=VECTOR('',#1517,10.);
#468=VECTOR('',#1518,10.);
#469=VECTOR('',#1519,10.);
#470=VECTOR('',#1520,10.);
#471=VECTOR('',#1523,10.);
#472=VECTOR('',#1524,10.);
#473=VECTOR('',#1525,10.);
#474=VECTOR('',#1528,10.);
#475=VECTOR('',#1529,10.);
#476=VECTOR('',#1530,10.);
#477=VECTOR('',#1533,10.);
#478=VECTOR('',#1534,10.);
#479=VECTOR('',#1543,1.);
#480=VECTOR('',#1548,10.);
#481=VECTOR('',#1549,10.);
#482=VECTOR('',#1550,10.);
#483=VECTOR('',#1551,10.);
#484=VECTOR('',#1554,10.);
#485=VECTOR('',#1555,10.);
#486=VECTOR('',#1556,10.);
#487=VECTOR('',#1559,10.);
#488=VECTOR('',#1560,10.);
#489=VECTOR('',#1561,10.);
#490=VECTOR('',#1564,10.);
#491=VECTOR('',#1565,10.);
#492=VECTOR('',#1574,0.999999999999996);
#493=VECTOR('',#1581,0.999999999999996);
#494=VECTOR('',#1586,10.);
#495=VECTOR('',#1587,10.);
#496=VECTOR('',#1588,10.);
#497=VECTOR('',#1589,10.);
#498=VECTOR('',#1592,10.);
#499=VECTOR('',#1593,10.);
#500=VECTOR('',#1594,10.);
#501=VECTOR('',#1597,10.);
#502=VECTOR('',#1598,10.);
#503=VECTOR('',#1599,10.);
#504=VECTOR('',#1602,10.);
#505=VECTOR('',#1603,10.);
#506=VECTOR('',#1610,10.);
#507=VECTOR('',#1611,10.);
#508=VECTOR('',#1612,10.);
#509=VECTOR('',#1613,10.);
#510=VECTOR('',#1616,10.);
#511=VECTOR('',#1617,10.);
#512=VECTOR('',#1618,10.);
#513=VECTOR('',#1621,10.);
#514=VECTOR('',#1622,10.);
#515=VECTOR('',#1623,10.);
#516=VECTOR('',#1626,10.);
#517=VECTOR('',#1627,10.);
#518=VECTOR('',#1636,0.999999999999996);
#519=VECTOR('',#1643,0.999999999999996);
#520=VECTOR('',#1648,10.);
#521=VECTOR('',#1649,10.);
#522=VECTOR('',#1650,10.);
#523=VECTOR('',#1651,10.);
#524=VECTOR('',#1654,10.);
#525=VECTOR('',#1655,10.);
#526=VECTOR('',#1656,10.);
#527=VECTOR('',#1659,10.);
#528=VECTOR('',#1660,10.);
#529=VECTOR('',#1661,10.);
#530=VECTOR('',#1664,10.);
#531=VECTOR('',#1665,10.);
#532=VECTOR('',#1674,1.);
#533=VECTOR('',#1679,10.);
#534=VECTOR('',#1680,10.);
#535=VECTOR('',#1681,10.);
#536=VECTOR('',#1682,10.);
#537=VECTOR('',#1685,10.);
#538=VECTOR('',#1686,10.);
#539=VECTOR('',#1687,10.);
#540=VECTOR('',#1690,10.);
#541=VECTOR('',#1691,10.);
#542=VECTOR('',#1692,10.);
#543=VECTOR('',#1695,10.);
#544=VECTOR('',#1696,10.);
#545=VECTOR('',#1703,10.);
#546=VECTOR('',#1704,10.);
#547=VECTOR('',#1705,10.);
#548=VECTOR('',#1706,10.);
#549=VECTOR('',#1707,10.);
#550=VECTOR('',#1708,10.);
#551=VECTOR('',#1709,10.);
#552=VECTOR('',#1710,10.);
#553=VECTOR('',#1713,10.);
#554=VECTOR('',#1714,10.);
#555=VECTOR('',#1715,10.);
#556=VECTOR('',#1716,10.);
#557=VECTOR('',#1717,10.);
#558=VECTOR('',#1718,10.);
#559=VECTOR('',#1719,10.);
#560=VECTOR('',#1722,10.);
#561=VECTOR('',#1723,10.);
#562=VECTOR('',#1724,10.);
#563=VECTOR('',#1725,10.);
#564=VECTOR('',#1726,10.);
#565=VECTOR('',#1727,10.);
#566=VECTOR('',#1728,10.);
#567=VECTOR('',#1731,10.);
#568=VECTOR('',#1732,10.);
#569=VECTOR('',#1733,10.);
#570=VECTOR('',#1734,10.);
#571=VECTOR('',#1735,10.);
#572=VECTOR('',#1738,10.);
#573=VECTOR('',#1739,10.);
#574=VECTOR('',#1740,10.);
#575=VECTOR('',#1743,10.);
#576=VECTOR('',#1744,10.);
#577=VECTOR('',#1747,10.);
#578=VECTOR('',#1748,10.);
#579=VECTOR('',#1751,10.);
#580=VECTOR('',#1752,10.);
#581=VECTOR('',#1753,10.);
#582=VECTOR('',#1756,10.);
#583=VECTOR('',#1757,10.);
#584=VECTOR('',#1758,10.);
#585=VECTOR('',#1761,10.);
#586=VECTOR('',#1764,10.);
#587=VECTOR('',#1765,10.);
#588=VECTOR('',#1768,10.);
#589=VECTOR('',#1771,10.);
#590=VECTOR('',#1772,10.);
#591=VECTOR('',#1773,10.);
#592=VECTOR('',#1774,10.);
#593=VECTOR('',#1775,10.);
#594=VECTOR('',#1776,10.);
#595=VECTOR('',#1779,10.);
#596=VECTOR('',#1786,10.);
#597=VECTOR('',#1789,10.);
#598=VECTOR('',#1792,10.);
#599=CIRCLE('',#1360,1.00000000000001);
#600=CIRCLE('',#1361,1.00000000000001);
#601=CIRCLE('',#1375,1.00000000000001);
#602=CIRCLE('',#1376,1.00000000000001);
#603=CIRCLE('',#1384,1.);
#604=CIRCLE('',#1385,1.);
#605=CIRCLE('',#1393,0.999999999999996);
#606=CIRCLE('',#1394,0.999999999999996);
#607=CIRCLE('',#1396,0.999999999999996);
#608=CIRCLE('',#1397,0.999999999999996);
#609=CIRCLE('',#1411,0.999999999999996);
#610=CIRCLE('',#1412,0.999999999999996);
#611=CIRCLE('',#1414,0.999999999999996);
#612=CIRCLE('',#1415,0.999999999999996);
#613=CIRCLE('',#1423,1.);
#614=CIRCLE('',#1424,1.);
#615=VERTEX_POINT('',#1797);
#616=VERTEX_POINT('',#1799);
#617=VERTEX_POINT('',#1803);
#618=VERTEX_POINT('',#1804);
#619=VERTEX_POINT('',#1806);
#620=VERTEX_POINT('',#1808);
#621=VERTEX_POINT('',#1812);
#622=VERTEX_POINT('',#1814);
#623=VERTEX_POINT('',#1818);
#624=VERTEX_POINT('',#1820);
#625=VERTEX_POINT('',#1829);
#626=VERTEX_POINT('',#1830);
#627=VERTEX_POINT('',#1832);
#628=VERTEX_POINT('',#1834);
#629=VERTEX_POINT('',#1838);
#630=VERTEX_POINT('',#1840);
#631=VERTEX_POINT('',#1844);
#632=VERTEX_POINT('',#1846);
#633=VERTEX_POINT('',#1855);
#634=VERTEX_POINT('',#1857);
#635=VERTEX_POINT('',#1861);
#636=VERTEX_POINT('',#1862);
#637=VERTEX_POINT('',#1864);
#638=VERTEX_POINT('',#1866);
#639=VERTEX_POINT('',#1870);
#640=VERTEX_POINT('',#1872);
#641=VERTEX_POINT('',#1876);
#642=VERTEX_POINT('',#1878);
#643=VERTEX_POINT('',#1887);
#644=VERTEX_POINT('',#1889);
#645=VERTEX_POINT('',#1893);
#646=VERTEX_POINT('',#1894);
#647=VERTEX_POINT('',#1896);
#648=VERTEX_POINT('',#1898);
#649=VERTEX_POINT('',#1902);
#650=VERTEX_POINT('',#1904);
#651=VERTEX_POINT('',#1908);
#652=VERTEX_POINT('',#1910);
#653=VERTEX_POINT('',#1919);
#654=VERTEX_POINT('',#1921);
#655=VERTEX_POINT('',#1925);
#656=VERTEX_POINT('',#1927);
#657=VERTEX_POINT('',#1931);
#658=VERTEX_POINT('',#1932);
#659=VERTEX_POINT('',#1934);
#660=VERTEX_POINT('',#1936);
#661=VERTEX_POINT('',#1940);
#662=VERTEX_POINT('',#1942);
#663=VERTEX_POINT('',#1946);
#664=VERTEX_POINT('',#1948);
#665=VERTEX_POINT('',#1957);
#666=VERTEX_POINT('',#1958);
#667=VERTEX_POINT('',#1960);
#668=VERTEX_POINT('',#1962);
#669=VERTEX_POINT('',#1966);
#670=VERTEX_POINT('',#1968);
#671=VERTEX_POINT('',#1972);
#672=VERTEX_POINT('',#1974);
#673=VERTEX_POINT('',#1983);
#674=VERTEX_POINT('',#1985);
#675=VERTEX_POINT('',#1989);
#676=VERTEX_POINT('',#1991);
#677=VERTEX_POINT('',#1995);
#678=VERTEX_POINT('',#1996);
#679=VERTEX_POINT('',#1998);
#680=VERTEX_POINT('',#2000);
#681=VERTEX_POINT('',#2004);
#682=VERTEX_POINT('',#2006);
#683=VERTEX_POINT('',#2010);
#684=VERTEX_POINT('',#2012);
#685=VERTEX_POINT('',#2021);
#686=VERTEX_POINT('',#2023);
#687=VERTEX_POINT('',#2027);
#688=VERTEX_POINT('',#2028);
#689=VERTEX_POINT('',#2030);
#690=VERTEX_POINT('',#2032);
#691=VERTEX_POINT('',#2036);
#692=VERTEX_POINT('',#2038);
#693=VERTEX_POINT('',#2042);
#694=VERTEX_POINT('',#2044);
#695=VERTEX_POINT('',#2053);
#696=VERTEX_POINT('',#2054);
#697=VERTEX_POINT('',#2056);
#698=VERTEX_POINT('',#2058);
#699=VERTEX_POINT('',#2060);
#700=VERTEX_POINT('',#2062);
#701=VERTEX_POINT('',#2064);
#702=VERTEX_POINT('',#2066);
#703=VERTEX_POINT('',#2070);
#704=VERTEX_POINT('',#2072);
#705=VERTEX_POINT('',#2074);
#706=VERTEX_POINT('',#2076);
#707=VERTEX_POINT('',#2078);
#708=VERTEX_POINT('',#2080);
#709=VERTEX_POINT('',#2084);
#710=VERTEX_POINT('',#2086);
#711=VERTEX_POINT('',#2088);
#712=VERTEX_POINT('',#2090);
#713=VERTEX_POINT('',#2092);
#714=VERTEX_POINT('',#2094);
#715=VERTEX_POINT('',#2098);
#716=VERTEX_POINT('',#2099);
#717=VERTEX_POINT('',#2102);
#718=VERTEX_POINT('',#2104);
#719=VERTEX_POINT('',#2108);
#720=VERTEX_POINT('',#2109);
#721=VERTEX_POINT('',#2114);
#722=VERTEX_POINT('',#2118);
#723=VERTEX_POINT('',#2122);
#724=VERTEX_POINT('',#2123);
#725=VERTEX_POINT('',#2128);
#726=VERTEX_POINT('',#2130);
#727=VERTEX_POINT('',#2136);
#728=VERTEX_POINT('',#2143);
#729=VERTEX_POINT('',#2145);
#730=VERTEX_POINT('',#2147);
#731=EDGE_CURVE('',#615,#615,#599,.T.);
#732=EDGE_CURVE('',#615,#616,#283,.T.);
#733=EDGE_CURVE('',#616,#616,#600,.T.);
#734=EDGE_CURVE('',#617,#618,#284,.T.);
#735=EDGE_CURVE('',#617,#619,#285,.T.);
#736=EDGE_CURVE('',#620,#619,#286,.T.);
#737=EDGE_CURVE('',#618,#620,#287,.T.);
#738=EDGE_CURVE('',#618,#621,#288,.T.);
#739=EDGE_CURVE('',#622,#620,#289,.T.);
#740=EDGE_CURVE('',#621,#622,#290,.T.);
#741=EDGE_CURVE('',#623,#621,#291,.T.);
#742=EDGE_CURVE('',#624,#622,#292,.T.);
#743=EDGE_CURVE('',#623,#624,#293,.T.);
#744=EDGE_CURVE('',#617,#623,#294,.T.);
#745=EDGE_CURVE('',#619,#624,#295,.T.);
#746=EDGE_CURVE('',#625,#626,#296,.T.);
#747=EDGE_CURVE('',#625,#627,#297,.T.);
#748=EDGE_CURVE('',#628,#627,#298,.T.);
#749=EDGE_CURVE('',#626,#628,#299,.T.);
#750=EDGE_CURVE('',#626,#629,#300,.T.);
#751=EDGE_CURVE('',#630,#628,#301,.T.);
#752=EDGE_CURVE('',#629,#630,#302,.T.);
#753=EDGE_CURVE('',#629,#631,#303,.T.);
#754=EDGE_CURVE('',#632,#630,#304,.T.);
#755=EDGE_CURVE('',#631,#632,#305,.T.);
#756=EDGE_CURVE('',#631,#625,#306,.T.);
#757=EDGE_CURVE('',#627,#632,#307,.T.);
#758=EDGE_CURVE('',#633,#633,#601,.T.);
#759=EDGE_CURVE('',#633,#634,#308,.T.);
#760=EDGE_CURVE('',#634,#634,#602,.T.);
#761=EDGE_CURVE('',#635,#636,#309,.T.);
#762=EDGE_CURVE('',#635,#637,#310,.T.);
#763=EDGE_CURVE('',#638,#637,#311,.T.);
#764=EDGE_CURVE('',#636,#638,#312,.T.);
#765=EDGE_CURVE('',#636,#639,#313,.T.);
#766=EDGE_CURVE('',#640,#638,#314,.T.);
#767=EDGE_CURVE('',#639,#640,#315,.T.);
#768=EDGE_CURVE('',#641,#639,#316,.T.);
#769=EDGE_CURVE('',#642,#640,#317,.T.);
#770=EDGE_CURVE('',#641,#642,#318,.T.);
#771=EDGE_CURVE('',#635,#641,#319,.T.);
#772=EDGE_CURVE('',#637,#642,#320,.T.);
#773=EDGE_CURVE('',#643,#643,#603,.T.);
#774=EDGE_CURVE('',#643,#644,#321,.T.);
#775=EDGE_CURVE('',#644,#644,#604,.T.);
#776=EDGE_CURVE('',#645,#646,#322,.T.);
#777=EDGE_CURVE('',#645,#647,#323,.T.);
#778=EDGE_CURVE('',#648,#647,#324,.T.);
#779=EDGE_CURVE('',#646,#648,#325,.T.);
#780=EDGE_CURVE('',#646,#649,#326,.T.);
#781=EDGE_CURVE('',#650,#648,#327,.T.);
#782=EDGE_CURVE('',#649,#650,#328,.T.);
#783=EDGE_CURVE('',#649,#651,#329,.T.);
#784=EDGE_CURVE('',#652,#650,#330,.T.);
#785=EDGE_CURVE('',#651,#652,#331,.T.);
#786=EDGE_CURVE('',#651,#645,#332,.T.);
#787=EDGE_CURVE('',#647,#652,#333,.T.);
#788=EDGE_CURVE('',#653,#653,#605,.T.);
#789=EDGE_CURVE('',#653,#654,#334,.T.);
#790=EDGE_CURVE('',#654,#654,#606,.T.);
#791=EDGE_CURVE('',#655,#655,#607,.T.);
#792=EDGE_CURVE('',#655,#656,#335,.T.);
#793=EDGE_CURVE('',#656,#656,#608,.T.);
#794=EDGE_CURVE('',#657,#658,#336,.T.);
#795=EDGE_CURVE('',#658,#659,#337,.T.);
#796=EDGE_CURVE('',#660,#659,#338,.T.);
#797=EDGE_CURVE('',#657,#660,#339,.T.);
#798=EDGE_CURVE('',#661,#657,#340,.T.);
#799=EDGE_CURVE('',#662,#660,#341,.T.);
#800=EDGE_CURVE('',#661,#662,#342,.T.);
#801=EDGE_CURVE('',#663,#661,#343,.T.);
#802=EDGE_CURVE('',#664,#662,#344,.T.);
#803=EDGE_CURVE('',#663,#664,#345,.T.);
#804=EDGE_CURVE('',#658,#663,#346,.T.);
#805=EDGE_CURVE('',#659,#664,#347,.T.);
#806=EDGE_CURVE('',#665,#666,#348,.T.);
#807=EDGE_CURVE('',#665,#667,#349,.T.);
#808=EDGE_CURVE('',#668,#667,#350,.T.);
#809=EDGE_CURVE('',#666,#668,#351,.T.);
#810=EDGE_CURVE('',#666,#669,#352,.T.);
#811=EDGE_CURVE('',#670,#668,#353,.T.);
#812=EDGE_CURVE('',#669,#670,#354,.T.);
#813=EDGE_CURVE('',#669,#671,#355,.T.);
#814=EDGE_CURVE('',#672,#670,#356,.T.);
#815=EDGE_CURVE('',#671,#672,#357,.T.);
#816=EDGE_CURVE('',#671,#665,#358,.T.);
#817=EDGE_CURVE('',#667,#672,#359,.T.);
#818=EDGE_CURVE('',#673,#673,#609,.T.);
#819=EDGE_CURVE('',#673,#674,#360,.T.);
#820=EDGE_CURVE('',#674,#674,#610,.T.);
#821=EDGE_CURVE('',#675,#675,#611,.T.);
#822=EDGE_CURVE('',#675,#676,#361,.T.);
#823=EDGE_CURVE('',#676,#676,#612,.T.);
#824=EDGE_CURVE('',#677,#678,#362,.T.);
#825=EDGE_CURVE('',#677,#679,#363,.T.);
#826=EDGE_CURVE('',#680,#679,#364,.T.);
#827=EDGE_CURVE('',#678,#680,#365,.T.);
#828=EDGE_CURVE('',#678,#681,#366,.T.);
#829=EDGE_CURVE('',#682,#680,#367,.T.);
#830=EDGE_CURVE('',#681,#682,#368,.T.);
#831=EDGE_CURVE('',#681,#683,#369,.T.);
#832=EDGE_CURVE('',#684,#682,#370,.T.);
#833=EDGE_CURVE('',#683,#684,#371,.T.);
#834=EDGE_CURVE('',#683,#677,#372,.T.);
#835=EDGE_CURVE('',#679,#684,#373,.T.);
#836=EDGE_CURVE('',#685,#685,#613,.T.);
#837=EDGE_CURVE('',#685,#686,#374,.T.);
#838=EDGE_CURVE('',#686,#686,#614,.T.);
#839=EDGE_CURVE('',#687,#688,#375,.T.);
#840=EDGE_CURVE('',#687,#689,#376,.T.);
#841=EDGE_CURVE('',#690,#689,#377,.T.);
#842=EDGE_CURVE('',#688,#690,#378,.T.);
#843=EDGE_CURVE('',#688,#691,#379,.T.);
#844=EDGE_CURVE('',#692,#690,#380,.T.);
#845=EDGE_CURVE('',#691,#692,#381,.T.);
#846=EDGE_CURVE('',#691,#693,#382,.T.);
#847=EDGE_CURVE('',#694,#692,#383,.T.);
#848=EDGE_CURVE('',#693,#694,#384,.T.);
#849=EDGE_CURVE('',#693,#687,#385,.T.);
#850=EDGE_CURVE('',#689,#694,#386,.T.);
#851=EDGE_CURVE('',#695,#696,#387,.T.);
#852=EDGE_CURVE('',#696,#697,#388,.T.);
#853=EDGE_CURVE('',#697,#698,#389,.T.);
#854=EDGE_CURVE('',#699,#698,#390,.T.);
#855=EDGE_CURVE('',#699,#700,#391,.T.);
#856=EDGE_CURVE('',#701,#700,#392,.T.);
#857=EDGE_CURVE('',#702,#701,#393,.T.);
#858=EDGE_CURVE('',#695,#702,#394,.T.);
#859=EDGE_CURVE('',#703,#698,#395,.T.);
#860=EDGE_CURVE('',#703,#704,#396,.T.);
#861=EDGE_CURVE('',#704,#705,#397,.T.);
#862=EDGE_CURVE('',#706,#705,#398,.T.);
#863=EDGE_CURVE('',#707,#706,#399,.T.);
#864=EDGE_CURVE('',#708,#707,#400,.T.);
#865=EDGE_CURVE('',#699,#708,#401,.T.);
#866=EDGE_CURVE('',#709,#695,#402,.T.);
#867=EDGE_CURVE('',#710,#702,#403,.T.);
#868=EDGE_CURVE('',#710,#711,#404,.T.);
#869=EDGE_CURVE('',#711,#712,#405,.T.);
#870=EDGE_CURVE('',#712,#713,#406,.T.);
#871=EDGE_CURVE('',#713,#714,#407,.T.);
#872=EDGE_CURVE('',#714,#709,#408,.T.);
#873=EDGE_CURVE('',#715,#716,#409,.T.);
#874=EDGE_CURVE('',#705,#715,#410,.T.);
#875=EDGE_CURVE('',#704,#717,#411,.T.);
#876=EDGE_CURVE('',#717,#718,#412,.T.);
#877=EDGE_CURVE('',#718,#716,#413,.T.);
#878=EDGE_CURVE('',#719,#720,#414,.T.);
#879=EDGE_CURVE('',#713,#719,#415,.T.);
#880=EDGE_CURVE('',#712,#720,#416,.T.);
#881=EDGE_CURVE('',#720,#721,#417,.T.);
#882=EDGE_CURVE('',#711,#721,#418,.T.);
#883=EDGE_CURVE('',#721,#722,#419,.T.);
#884=EDGE_CURVE('',#710,#722,#420,.T.);
#885=EDGE_CURVE('',#723,#724,#421,.T.);
#886=EDGE_CURVE('',#709,#724,#422,.T.);
#887=EDGE_CURVE('',#714,#723,#423,.T.);
#888=EDGE_CURVE('',#725,#719,#424,.T.);
#889=EDGE_CURVE('',#725,#726,#425,.T.);
#890=EDGE_CURVE('',#726,#723,#426,.T.);
#891=EDGE_CURVE('',#724,#696,#427,.T.);
#892=EDGE_CURVE('',#727,#697,#428,.T.);
#893=EDGE_CURVE('',#703,#727,#429,.T.);
#894=EDGE_CURVE('',#727,#717,#430,.T.);
#895=EDGE_CURVE('',#722,#701,#431,.T.);
#896=EDGE_CURVE('',#700,#728,#432,.T.);
#897=EDGE_CURVE('',#728,#729,#433,.T.);
#898=EDGE_CURVE('',#729,#730,#434,.T.);
#899=EDGE_CURVE('',#730,#715,#435,.T.);
#900=EDGE_CURVE('',#725,#716,#436,.T.);
#901=EDGE_CURVE('',#718,#726,#437,.T.);
#902=EDGE_CURVE('',#708,#728,#438,.T.);
#903=EDGE_CURVE('',#707,#729,#439,.T.);
#904=EDGE_CURVE('',#706,#730,#440,.T.);
#905=ORIENTED_EDGE('',*,*,#731,.F.);
#906=ORIENTED_EDGE('',*,*,#732,.T.);
#907=ORIENTED_EDGE('',*,*,#733,.T.);
#908=ORIENTED_EDGE('',*,*,#732,.F.);
#909=ORIENTED_EDGE('',*,*,#734,.F.);
#910=ORIENTED_EDGE('',*,*,#735,.T.);
#911=ORIENTED_EDGE('',*,*,#736,.F.);
#912=ORIENTED_EDGE('',*,*,#737,.F.);
#913=ORIENTED_EDGE('',*,*,#738,.F.);
#914=ORIENTED_EDGE('',*,*,#737,.T.);
#915=ORIENTED_EDGE('',*,*,#739,.F.);
#916=ORIENTED_EDGE('',*,*,#740,.F.);
#917=ORIENTED_EDGE('',*,*,#741,.T.);
#918=ORIENTED_EDGE('',*,*,#740,.T.);
#919=ORIENTED_EDGE('',*,*,#742,.F.);
#920=ORIENTED_EDGE('',*,*,#743,.F.);
#921=ORIENTED_EDGE('',*,*,#744,.T.);
#922=ORIENTED_EDGE('',*,*,#743,.T.);
#923=ORIENTED_EDGE('',*,*,#745,.F.);
#924=ORIENTED_EDGE('',*,*,#735,.F.);
#925=ORIENTED_EDGE('',*,*,#745,.T.);
#926=ORIENTED_EDGE('',*,*,#742,.T.);
#927=ORIENTED_EDGE('',*,*,#739,.T.);
#928=ORIENTED_EDGE('',*,*,#736,.T.);
#929=ORIENTED_EDGE('',*,*,#731,.T.);
#930=ORIENTED_EDGE('',*,*,#744,.F.);
#931=ORIENTED_EDGE('',*,*,#734,.T.);
#932=ORIENTED_EDGE('',*,*,#738,.T.);
#933=ORIENTED_EDGE('',*,*,#741,.F.);
#934=ORIENTED_EDGE('',*,*,#733,.F.);
#935=ORIENTED_EDGE('',*,*,#746,.F.);
#936=ORIENTED_EDGE('',*,*,#747,.T.);
#937=ORIENTED_EDGE('',*,*,#748,.F.);
#938=ORIENTED_EDGE('',*,*,#749,.F.);
#939=ORIENTED_EDGE('',*,*,#750,.F.);
#940=ORIENTED_EDGE('',*,*,#749,.T.);
#941=ORIENTED_EDGE('',*,*,#751,.F.);
#942=ORIENTED_EDGE('',*,*,#752,.F.);
#943=ORIENTED_EDGE('',*,*,#753,.F.);
#944=ORIENTED_EDGE('',*,*,#752,.T.);
#945=ORIENTED_EDGE('',*,*,#754,.F.);
#946=ORIENTED_EDGE('',*,*,#755,.F.);
#947=ORIENTED_EDGE('',*,*,#756,.F.);
#948=ORIENTED_EDGE('',*,*,#755,.T.);
#949=ORIENTED_EDGE('',*,*,#757,.F.);
#950=ORIENTED_EDGE('',*,*,#747,.F.);
#951=ORIENTED_EDGE('',*,*,#757,.T.);
#952=ORIENTED_EDGE('',*,*,#754,.T.);
#953=ORIENTED_EDGE('',*,*,#751,.T.);
#954=ORIENTED_EDGE('',*,*,#748,.T.);
#955=ORIENTED_EDGE('',*,*,#756,.T.);
#956=ORIENTED_EDGE('',*,*,#746,.T.);
#957=ORIENTED_EDGE('',*,*,#750,.T.);
#958=ORIENTED_EDGE('',*,*,#753,.T.);
#959=ORIENTED_EDGE('',*,*,#758,.F.);
#960=ORIENTED_EDGE('',*,*,#759,.T.);
#961=ORIENTED_EDGE('',*,*,#760,.T.);
#962=ORIENTED_EDGE('',*,*,#759,.F.);
#963=ORIENTED_EDGE('',*,*,#761,.F.);
#964=ORIENTED_EDGE('',*,*,#762,.T.);
#965=ORIENTED_EDGE('',*,*,#763,.F.);
#966=ORIENTED_EDGE('',*,*,#764,.F.);
#967=ORIENTED_EDGE('',*,*,#765,.F.);
#968=ORIENTED_EDGE('',*,*,#764,.T.);
#969=ORIENTED_EDGE('',*,*,#766,.F.);
#970=ORIENTED_EDGE('',*,*,#767,.F.);
#971=ORIENTED_EDGE('',*,*,#768,.T.);
#972=ORIENTED_EDGE('',*,*,#767,.T.);
#973=ORIENTED_EDGE('',*,*,#769,.F.);
#974=ORIENTED_EDGE('',*,*,#770,.F.);
#975=ORIENTED_EDGE('',*,*,#771,.T.);
#976=ORIENTED_EDGE('',*,*,#770,.T.);
#977=ORIENTED_EDGE('',*,*,#772,.F.);
#978=ORIENTED_EDGE('',*,*,#762,.F.);
#979=ORIENTED_EDGE('',*,*,#772,.T.);
#980=ORIENTED_EDGE('',*,*,#769,.T.);
#981=ORIENTED_EDGE('',*,*,#766,.T.);
#982=ORIENTED_EDGE('',*,*,#763,.T.);
#983=ORIENTED_EDGE('',*,*,#758,.T.);
#984=ORIENTED_EDGE('',*,*,#771,.F.);
#985=ORIENTED_EDGE('',*,*,#761,.T.);
#986=ORIENTED_EDGE('',*,*,#765,.T.);
#987=ORIENTED_EDGE('',*,*,#768,.F.);
#988=ORIENTED_EDGE('',*,*,#760,.F.);
#989=ORIENTED_EDGE('',*,*,#773,.F.);
#990=ORIENTED_EDGE('',*,*,#774,.T.);
#991=ORIENTED_EDGE('',*,*,#775,.T.);
#992=ORIENTED_EDGE('',*,*,#774,.F.);
#993=ORIENTED_EDGE('',*,*,#776,.F.);
#994=ORIENTED_EDGE('',*,*,#777,.T.);
#995=ORIENTED_EDGE('',*,*,#778,.F.);
#996=ORIENTED_EDGE('',*,*,#779,.F.);
#997=ORIENTED_EDGE('',*,*,#780,.F.);
#998=ORIENTED_EDGE('',*,*,#779,.T.);
#999=ORIENTED_EDGE('',*,*,#781,.F.);
#1000=ORIENTED_EDGE('',*,*,#782,.F.);
#1001=ORIENTED_EDGE('',*,*,#783,.F.);
#1002=ORIENTED_EDGE('',*,*,#782,.T.);
#1003=ORIENTED_EDGE('',*,*,#784,.F.);
#1004=ORIENTED_EDGE('',*,*,#785,.F.);
#1005=ORIENTED_EDGE('',*,*,#786,.F.);
#1006=ORIENTED_EDGE('',*,*,#785,.T.);
#1007=ORIENTED_EDGE('',*,*,#787,.F.);
#1008=ORIENTED_EDGE('',*,*,#777,.F.);
#1009=ORIENTED_EDGE('',*,*,#787,.T.);
#1010=ORIENTED_EDGE('',*,*,#784,.T.);
#1011=ORIENTED_EDGE('',*,*,#781,.T.);
#1012=ORIENTED_EDGE('',*,*,#778,.T.);
#1013=ORIENTED_EDGE('',*,*,#773,.T.);
#1014=ORIENTED_EDGE('',*,*,#786,.T.);
#1015=ORIENTED_EDGE('',*,*,#776,.T.);
#1016=ORIENTED_EDGE('',*,*,#780,.T.);
#1017=ORIENTED_EDGE('',*,*,#783,.T.);
#1018=ORIENTED_EDGE('',*,*,#775,.F.);
#1019=ORIENTED_EDGE('',*,*,#788,.F.);
#1020=ORIENTED_EDGE('',*,*,#789,.T.);
#1021=ORIENTED_EDGE('',*,*,#790,.T.);
#1022=ORIENTED_EDGE('',*,*,#789,.F.);
#1023=ORIENTED_EDGE('',*,*,#791,.F.);
#1024=ORIENTED_EDGE('',*,*,#792,.T.);
#1025=ORIENTED_EDGE('',*,*,#793,.T.);
#1026=ORIENTED_EDGE('',*,*,#792,.F.);
#1027=ORIENTED_EDGE('',*,*,#794,.T.);
#1028=ORIENTED_EDGE('',*,*,#795,.T.);
#1029=ORIENTED_EDGE('',*,*,#796,.F.);
#1030=ORIENTED_EDGE('',*,*,#797,.F.);
#1031=ORIENTED_EDGE('',*,*,#798,.T.);
#1032=ORIENTED_EDGE('',*,*,#797,.T.);
#1033=ORIENTED_EDGE('',*,*,#799,.F.);
#1034=ORIENTED_EDGE('',*,*,#800,.F.);
#1035=ORIENTED_EDGE('',*,*,#801,.T.);
#1036=ORIENTED_EDGE('',*,*,#800,.T.);
#1037=ORIENTED_EDGE('',*,*,#802,.F.);
#1038=ORIENTED_EDGE('',*,*,#803,.F.);
#1039=ORIENTED_EDGE('',*,*,#804,.T.);
#1040=ORIENTED_EDGE('',*,*,#803,.T.);
#1041=ORIENTED_EDGE('',*,*,#805,.F.);
#1042=ORIENTED_EDGE('',*,*,#795,.F.);
#1043=ORIENTED_EDGE('',*,*,#805,.T.);
#1044=ORIENTED_EDGE('',*,*,#802,.T.);
#1045=ORIENTED_EDGE('',*,*,#799,.T.);
#1046=ORIENTED_EDGE('',*,*,#796,.T.);
#1047=ORIENTED_EDGE('',*,*,#791,.T.);
#1048=ORIENTED_EDGE('',*,*,#788,.T.);
#1049=ORIENTED_EDGE('',*,*,#804,.F.);
#1050=ORIENTED_EDGE('',*,*,#794,.F.);
#1051=ORIENTED_EDGE('',*,*,#798,.F.);
#1052=ORIENTED_EDGE('',*,*,#801,.F.);
#1053=ORIENTED_EDGE('',*,*,#793,.F.);
#1054=ORIENTED_EDGE('',*,*,#790,.F.);
#1055=ORIENTED_EDGE('',*,*,#806,.F.);
#1056=ORIENTED_EDGE('',*,*,#807,.T.);
#1057=ORIENTED_EDGE('',*,*,#808,.F.);
#1058=ORIENTED_EDGE('',*,*,#809,.F.);
#1059=ORIENTED_EDGE('',*,*,#810,.F.);
#1060=ORIENTED_EDGE('',*,*,#809,.T.);
#1061=ORIENTED_EDGE('',*,*,#811,.F.);
#1062=ORIENTED_EDGE('',*,*,#812,.F.);
#1063=ORIENTED_EDGE('',*,*,#813,.F.);
#1064=ORIENTED_EDGE('',*,*,#812,.T.);
#1065=ORIENTED_EDGE('',*,*,#814,.F.);
#1066=ORIENTED_EDGE('',*,*,#815,.F.);
#1067=ORIENTED_EDGE('',*,*,#816,.F.);
#1068=ORIENTED_EDGE('',*,*,#815,.T.);
#1069=ORIENTED_EDGE('',*,*,#817,.F.);
#1070=ORIENTED_EDGE('',*,*,#807,.F.);
#1071=ORIENTED_EDGE('',*,*,#817,.T.);
#1072=ORIENTED_EDGE('',*,*,#814,.T.);
#1073=ORIENTED_EDGE('',*,*,#811,.T.);
#1074=ORIENTED_EDGE('',*,*,#808,.T.);
#1075=ORIENTED_EDGE('',*,*,#816,.T.);
#1076=ORIENTED_EDGE('',*,*,#806,.T.);
#1077=ORIENTED_EDGE('',*,*,#810,.T.);
#1078=ORIENTED_EDGE('',*,*,#813,.T.);
#1079=ORIENTED_EDGE('',*,*,#818,.F.);
#1080=ORIENTED_EDGE('',*,*,#819,.T.);
#1081=ORIENTED_EDGE('',*,*,#820,.T.);
#1082=ORIENTED_EDGE('',*,*,#819,.F.);
#1083=ORIENTED_EDGE('',*,*,#821,.F.);
#1084=ORIENTED_EDGE('',*,*,#822,.T.);
#1085=ORIENTED_EDGE('',*,*,#823,.T.);
#1086=ORIENTED_EDGE('',*,*,#822,.F.);
#1087=ORIENTED_EDGE('',*,*,#824,.F.);
#1088=ORIENTED_EDGE('',*,*,#825,.T.);
#1089=ORIENTED_EDGE('',*,*,#826,.F.);
#1090=ORIENTED_EDGE('',*,*,#827,.F.);
#1091=ORIENTED_EDGE('',*,*,#828,.F.);
#1092=ORIENTED_EDGE('',*,*,#827,.T.);
#1093=ORIENTED_EDGE('',*,*,#829,.F.);
#1094=ORIENTED_EDGE('',*,*,#830,.F.);
#1095=ORIENTED_EDGE('',*,*,#831,.F.);
#1096=ORIENTED_EDGE('',*,*,#830,.T.);
#1097=ORIENTED_EDGE('',*,*,#832,.F.);
#1098=ORIENTED_EDGE('',*,*,#833,.F.);
#1099=ORIENTED_EDGE('',*,*,#834,.F.);
#1100=ORIENTED_EDGE('',*,*,#833,.T.);
#1101=ORIENTED_EDGE('',*,*,#835,.F.);
#1102=ORIENTED_EDGE('',*,*,#825,.F.);
#1103=ORIENTED_EDGE('',*,*,#835,.T.);
#1104=ORIENTED_EDGE('',*,*,#832,.T.);
#1105=ORIENTED_EDGE('',*,*,#829,.T.);
#1106=ORIENTED_EDGE('',*,*,#826,.T.);
#1107=ORIENTED_EDGE('',*,*,#821,.T.);
#1108=ORIENTED_EDGE('',*,*,#818,.T.);
#1109=ORIENTED_EDGE('',*,*,#834,.T.);
#1110=ORIENTED_EDGE('',*,*,#824,.T.);
#1111=ORIENTED_EDGE('',*,*,#828,.T.);
#1112=ORIENTED_EDGE('',*,*,#831,.T.);
#1113=ORIENTED_EDGE('',*,*,#823,.F.);
#1114=ORIENTED_EDGE('',*,*,#820,.F.);
#1115=ORIENTED_EDGE('',*,*,#836,.F.);
#1116=ORIENTED_EDGE('',*,*,#837,.T.);
#1117=ORIENTED_EDGE('',*,*,#838,.T.);
#1118=ORIENTED_EDGE('',*,*,#837,.F.);
#1119=ORIENTED_EDGE('',*,*,#839,.F.);
#1120=ORIENTED_EDGE('',*,*,#840,.T.);
#1121=ORIENTED_EDGE('',*,*,#841,.F.);
#1122=ORIENTED_EDGE('',*,*,#842,.F.);
#1123=ORIENTED_EDGE('',*,*,#843,.F.);
#1124=ORIENTED_EDGE('',*,*,#842,.T.);
#1125=ORIENTED_EDGE('',*,*,#844,.F.);
#1126=ORIENTED_EDGE('',*,*,#845,.F.);
#1127=ORIENTED_EDGE('',*,*,#846,.F.);
#1128=ORIENTED_EDGE('',*,*,#845,.T.);
#1129=ORIENTED_EDGE('',*,*,#847,.F.);
#1130=ORIENTED_EDGE('',*,*,#848,.F.);
#1131=ORIENTED_EDGE('',*,*,#849,.F.);
#1132=ORIENTED_EDGE('',*,*,#848,.T.);
#1133=ORIENTED_EDGE('',*,*,#850,.F.);
#1134=ORIENTED_EDGE('',*,*,#840,.F.);
#1135=ORIENTED_EDGE('',*,*,#850,.T.);
#1136=ORIENTED_EDGE('',*,*,#847,.T.);
#1137=ORIENTED_EDGE('',*,*,#844,.T.);
#1138=ORIENTED_EDGE('',*,*,#841,.T.);
#1139=ORIENTED_EDGE('',*,*,#836,.T.);
#1140=ORIENTED_EDGE('',*,*,#849,.T.);
#1141=ORIENTED_EDGE('',*,*,#839,.T.);
#1142=ORIENTED_EDGE('',*,*,#843,.T.);
#1143=ORIENTED_EDGE('',*,*,#846,.T.);
#1144=ORIENTED_EDGE('',*,*,#838,.F.);
#1145=ORIENTED_EDGE('',*,*,#851,.T.);
#1146=ORIENTED_EDGE('',*,*,#852,.T.);
#1147=ORIENTED_EDGE('',*,*,#853,.T.);
#1148=ORIENTED_EDGE('',*,*,#854,.F.);
#1149=ORIENTED_EDGE('',*,*,#855,.T.);
#1150=ORIENTED_EDGE('',*,*,#856,.F.);
#1151=ORIENTED_EDGE('',*,*,#857,.F.);
#1152=ORIENTED_EDGE('',*,*,#858,.F.);
#1153=ORIENTED_EDGE('',*,*,#859,.F.);
#1154=ORIENTED_EDGE('',*,*,#860,.T.);
#1155=ORIENTED_EDGE('',*,*,#861,.T.);
#1156=ORIENTED_EDGE('',*,*,#862,.F.);
#1157=ORIENTED_EDGE('',*,*,#863,.F.);
#1158=ORIENTED_EDGE('',*,*,#864,.F.);
#1159=ORIENTED_EDGE('',*,*,#865,.F.);
#1160=ORIENTED_EDGE('',*,*,#854,.T.);
#1161=ORIENTED_EDGE('',*,*,#866,.T.);
#1162=ORIENTED_EDGE('',*,*,#858,.T.);
#1163=ORIENTED_EDGE('',*,*,#867,.F.);
#1164=ORIENTED_EDGE('',*,*,#868,.T.);
#1165=ORIENTED_EDGE('',*,*,#869,.T.);
#1166=ORIENTED_EDGE('',*,*,#870,.T.);
#1167=ORIENTED_EDGE('',*,*,#871,.T.);
#1168=ORIENTED_EDGE('',*,*,#872,.T.);
#1169=ORIENTED_EDGE('',*,*,#873,.F.);
#1170=ORIENTED_EDGE('',*,*,#874,.F.);
#1171=ORIENTED_EDGE('',*,*,#861,.F.);
#1172=ORIENTED_EDGE('',*,*,#875,.T.);
#1173=ORIENTED_EDGE('',*,*,#876,.T.);
#1174=ORIENTED_EDGE('',*,*,#877,.T.);
#1175=ORIENTED_EDGE('',*,*,#878,.F.);
#1176=ORIENTED_EDGE('',*,*,#879,.F.);
#1177=ORIENTED_EDGE('',*,*,#870,.F.);
#1178=ORIENTED_EDGE('',*,*,#880,.T.);
#1179=ORIENTED_EDGE('',*,*,#881,.F.);
#1180=ORIENTED_EDGE('',*,*,#880,.F.);
#1181=ORIENTED_EDGE('',*,*,#869,.F.);
#1182=ORIENTED_EDGE('',*,*,#882,.T.);
#1183=ORIENTED_EDGE('',*,*,#883,.F.);
#1184=ORIENTED_EDGE('',*,*,#882,.F.);
#1185=ORIENTED_EDGE('',*,*,#868,.F.);
#1186=ORIENTED_EDGE('',*,*,#884,.T.);
#1187=ORIENTED_EDGE('',*,*,#885,.T.);
#1188=ORIENTED_EDGE('',*,*,#886,.F.);
#1189=ORIENTED_EDGE('',*,*,#872,.F.);
#1190=ORIENTED_EDGE('',*,*,#887,.T.);
#1191=ORIENTED_EDGE('',*,*,#888,.F.);
#1192=ORIENTED_EDGE('',*,*,#889,.T.);
#1193=ORIENTED_EDGE('',*,*,#890,.T.);
#1194=ORIENTED_EDGE('',*,*,#887,.F.);
#1195=ORIENTED_EDGE('',*,*,#871,.F.);
#1196=ORIENTED_EDGE('',*,*,#879,.T.);
#1197=ORIENTED_EDGE('',*,*,#891,.T.);
#1198=ORIENTED_EDGE('',*,*,#851,.F.);
#1199=ORIENTED_EDGE('',*,*,#866,.F.);
#1200=ORIENTED_EDGE('',*,*,#886,.T.);
#1201=ORIENTED_EDGE('',*,*,#892,.F.);
#1202=ORIENTED_EDGE('',*,*,#893,.F.);
#1203=ORIENTED_EDGE('',*,*,#859,.T.);
#1204=ORIENTED_EDGE('',*,*,#853,.F.);
#1205=ORIENTED_EDGE('',*,*,#894,.T.);
#1206=ORIENTED_EDGE('',*,*,#875,.F.);
#1207=ORIENTED_EDGE('',*,*,#860,.F.);
#1208=ORIENTED_EDGE('',*,*,#893,.T.);
#1209=ORIENTED_EDGE('',*,*,#888,.T.);
#1210=ORIENTED_EDGE('',*,*,#878,.T.);
#1211=ORIENTED_EDGE('',*,*,#881,.T.);
#1212=ORIENTED_EDGE('',*,*,#883,.T.);
#1213=ORIENTED_EDGE('',*,*,#895,.T.);
#1214=ORIENTED_EDGE('',*,*,#856,.T.);
#1215=ORIENTED_EDGE('',*,*,#896,.T.);
#1216=ORIENTED_EDGE('',*,*,#897,.T.);
#1217=ORIENTED_EDGE('',*,*,#898,.T.);
#1218=ORIENTED_EDGE('',*,*,#899,.T.);
#1219=ORIENTED_EDGE('',*,*,#873,.T.);
#1220=ORIENTED_EDGE('',*,*,#900,.F.);
#1221=ORIENTED_EDGE('',*,*,#877,.F.);
#1222=ORIENTED_EDGE('',*,*,#901,.T.);
#1223=ORIENTED_EDGE('',*,*,#889,.F.);
#1224=ORIENTED_EDGE('',*,*,#900,.T.);
#1225=ORIENTED_EDGE('',*,*,#876,.F.);
#1226=ORIENTED_EDGE('',*,*,#894,.F.);
#1227=ORIENTED_EDGE('',*,*,#892,.T.);
#1228=ORIENTED_EDGE('',*,*,#852,.F.);
#1229=ORIENTED_EDGE('',*,*,#891,.F.);
#1230=ORIENTED_EDGE('',*,*,#885,.F.);
#1231=ORIENTED_EDGE('',*,*,#890,.F.);
#1232=ORIENTED_EDGE('',*,*,#901,.F.);
#1233=ORIENTED_EDGE('',*,*,#895,.F.);
#1234=ORIENTED_EDGE('',*,*,#884,.F.);
#1235=ORIENTED_EDGE('',*,*,#867,.T.);
#1236=ORIENTED_EDGE('',*,*,#857,.T.);
#1237=ORIENTED_EDGE('',*,*,#896,.F.);
#1238=ORIENTED_EDGE('',*,*,#855,.F.);
#1239=ORIENTED_EDGE('',*,*,#865,.T.);
#1240=ORIENTED_EDGE('',*,*,#902,.T.);
#1241=ORIENTED_EDGE('',*,*,#897,.F.);
#1242=ORIENTED_EDGE('',*,*,#902,.F.);
#1243=ORIENTED_EDGE('',*,*,#864,.T.);
#1244=ORIENTED_EDGE('',*,*,#903,.T.);
#1245=ORIENTED_EDGE('',*,*,#898,.F.);
#1246=ORIENTED_EDGE('',*,*,#903,.F.);
#1247=ORIENTED_EDGE('',*,*,#863,.T.);
#1248=ORIENTED_EDGE('',*,*,#904,.T.);
#1249=ORIENTED_EDGE('',*,*,#899,.F.);
#1250=ORIENTED_EDGE('',*,*,#904,.F.);
#1251=ORIENTED_EDGE('',*,*,#862,.T.);
#1252=ORIENTED_EDGE('',*,*,#874,.T.);
#1253=CYLINDRICAL_SURFACE('',#1359,1.00000000000001);
#1254=CYLINDRICAL_SURFACE('',#1374,1.00000000000001);
#1255=CYLINDRICAL_SURFACE('',#1383,1.);
#1256=CYLINDRICAL_SURFACE('',#1392,0.999999999999996);
#1257=CYLINDRICAL_SURFACE('',#1395,0.999999999999996);
#1258=CYLINDRICAL_SURFACE('',#1410,0.999999999999996);
#1259=CYLINDRICAL_SURFACE('',#1413,0.999999999999996);
#1260=CYLINDRICAL_SURFACE('',#1422,1.);
#1261=ADVANCED_FACE('',(#115),#1253,.F.);
#1262=ADVANCED_FACE('',(#116),#47,.T.);
#1263=ADVANCED_FACE('',(#117),#48,.T.);
#1264=ADVANCED_FACE('',(#118),#49,.T.);
#1265=ADVANCED_FACE('',(#119),#50,.T.);
#1266=ADVANCED_FACE('',(#120,#31),#51,.T.);
#1267=ADVANCED_FACE('',(#121,#32),#52,.F.);
#1268=ADVANCED_FACE('',(#122),#53,.T.);
#1269=ADVANCED_FACE('',(#123),#54,.T.);
#1270=ADVANCED_FACE('',(#124),#55,.T.);
#1271=ADVANCED_FACE('',(#125),#56,.T.);
#1272=ADVANCED_FACE('',(#126),#57,.T.);
#1273=ADVANCED_FACE('',(#127),#58,.F.);
#1274=ADVANCED_FACE('',(#128),#1254,.F.);
#1275=ADVANCED_FACE('',(#129),#59,.T.);
#1276=ADVANCED_FACE('',(#130),#60,.T.);
#1277=ADVANCED_FACE('',(#131),#61,.T.);
#1278=ADVANCED_FACE('',(#132),#62,.T.);
#1279=ADVANCED_FACE('',(#133,#33),#63,.T.);
#1280=ADVANCED_FACE('',(#134,#34),#64,.F.);
#1281=ADVANCED_FACE('',(#135),#1255,.F.);
#1282=ADVANCED_FACE('',(#136),#65,.T.);
#1283=ADVANCED_FACE('',(#137),#66,.T.);
#1284=ADVANCED_FACE('',(#138),#67,.T.);
#1285=ADVANCED_FACE('',(#139),#68,.T.);
#1286=ADVANCED_FACE('',(#140,#35),#69,.T.);
#1287=ADVANCED_FACE('',(#141,#36),#70,.F.);
#1288=ADVANCED_FACE('',(#142),#1256,.F.);
#1289=ADVANCED_FACE('',(#143),#1257,.F.);
#1290=ADVANCED_FACE('',(#144),#71,.T.);
#1291=ADVANCED_FACE('',(#145),#72,.T.);
#1292=ADVANCED_FACE('',(#146),#73,.T.);
#1293=ADVANCED_FACE('',(#147),#74,.T.);
#1294=ADVANCED_FACE('',(#148,#37,#38),#75,.T.);
#1295=ADVANCED_FACE('',(#149,#39,#40),#76,.F.);
#1296=ADVANCED_FACE('',(#150),#77,.T.);
#1297=ADVANCED_FACE('',(#151),#78,.T.);
#1298=ADVANCED_FACE('',(#152),#79,.T.);
#1299=ADVANCED_FACE('',(#153),#80,.T.);
#1300=ADVANCED_FACE('',(#154),#81,.T.);
#1301=ADVANCED_FACE('',(#155),#82,.F.);
#1302=ADVANCED_FACE('',(#156),#1258,.F.);
#1303=ADVANCED_FACE('',(#157),#1259,.F.);
#1304=ADVANCED_FACE('',(#158),#83,.T.);
#1305=ADVANCED_FACE('',(#159),#84,.T.);
#1306=ADVANCED_FACE('',(#160),#85,.T.);
#1307=ADVANCED_FACE('',(#161),#86,.T.);
#1308=ADVANCED_FACE('',(#162,#41,#42),#87,.T.);
#1309=ADVANCED_FACE('',(#163,#43,#44),#88,.F.);
#1310=ADVANCED_FACE('',(#164),#1260,.F.);
#1311=ADVANCED_FACE('',(#165),#89,.T.);
#1312=ADVANCED_FACE('',(#166),#90,.T.);
#1313=ADVANCED_FACE('',(#167),#91,.T.);
#1314=ADVANCED_FACE('',(#168),#92,.T.);
#1315=ADVANCED_FACE('',(#169,#45),#93,.T.);
#1316=ADVANCED_FACE('',(#170,#46),#94,.F.);
#1317=ADVANCED_FACE('',(#171),#95,.T.);
#1318=ADVANCED_FACE('',(#172),#96,.F.);
#1319=ADVANCED_FACE('',(#173),#97,.F.);
#1320=ADVANCED_FACE('',(#174),#98,.T.);
#1321=ADVANCED_FACE('',(#175),#99,.T.);
#1322=ADVANCED_FACE('',(#176),#100,.T.);
#1323=ADVANCED_FACE('',(#177),#101,.T.);
#1324=ADVANCED_FACE('',(#178),#102,.T.);
#1325=ADVANCED_FACE('',(#179),#103,.T.);
#1326=ADVANCED_FACE('',(#180),#104,.T.);
#1327=ADVANCED_FACE('',(#181),#105,.T.);
#1328=ADVANCED_FACE('',(#182),#106,.T.);
#1329=ADVANCED_FACE('',(#183),#107,.T.);
#1330=ADVANCED_FACE('',(#184),#108,.T.);
#1331=ADVANCED_FACE('',(#185),#109,.T.);
#1332=ADVANCED_FACE('',(#186),#110,.T.);
#1333=ADVANCED_FACE('',(#187),#111,.T.);
#1334=ADVANCED_FACE('',(#188),#112,.T.);
#1335=ADVANCED_FACE('',(#189),#113,.T.);
#1336=ADVANCED_FACE('',(#190),#114,.T.);
#1337=CLOSED_SHELL('',(#1261,#1262,#1263,#1264,#1265,#1266,#1267));
#1338=CLOSED_SHELL('',(#1268,#1269,#1270,#1271,#1272,#1273));
#1339=CLOSED_SHELL('',(#1274,#1275,#1276,#1277,#1278,#1279,#1280));
#1340=CLOSED_SHELL('',(#1281,#1282,#1283,#1284,#1285,#1286,#1287));
#1341=CLOSED_SHELL('',(#1288,#1289,#1290,#1291,#1292,#1293,#1294,#1295));
#1342=CLOSED_SHELL('',(#1296,#1297,#1298,#1299,#1300,#1301));
#1343=CLOSED_SHELL('',(#1302,#1303,#1304,#1305,#1306,#1307,#1308,#1309));
#1344=CLOSED_SHELL('',(#1310,#1311,#1312,#1313,#1314,#1315,#1316));
#1345=CLOSED_SHELL('',(#1317,#1318,#1319,#1320,#1321,#1322,#1323,#1324,
#1325,#1326,#1327,#1328,#1329,#1330,#1331,#1332,#1333,#1334,#1335,#1336));
#1346=DERIVED_UNIT_ELEMENT(#1348,1.);
#1347=DERIVED_UNIT_ELEMENT(#2167,-3.);
#1348=(
MASS_UNIT()
NAMED_UNIT(*)
SI_UNIT(.KILO.,.GRAM.)
);
#1349=DERIVED_UNIT((#1346,#1347));
#1350=MEASURE_REPRESENTATION_ITEM('density measure',
POSITIVE_RATIO_MEASURE(7850.),#1349);
#1351=PROPERTY_DEFINITION_REPRESENTATION(#1356,#1353);
#1352=PROPERTY_DEFINITION_REPRESENTATION(#1357,#1354);
#1353=REPRESENTATION('material name',(#1355),#2164);
#1354=REPRESENTATION('density',(#1350),#2164);
#1355=DESCRIPTIVE_REPRESENTATION_ITEM('Steel','Steel');
#1356=PROPERTY_DEFINITION('material property','material name',#2174);
#1357=PROPERTY_DEFINITION('material property','density of part',#2174);
#1358=AXIS2_PLACEMENT_3D('',#1795,#1451,#1452);
#1359=AXIS2_PLACEMENT_3D('',#1796,#1453,#1454);
#1360=AXIS2_PLACEMENT_3D('',#1798,#1455,#1456);
#1361=AXIS2_PLACEMENT_3D('',#1801,#1458,#1459);
#1362=AXIS2_PLACEMENT_3D('',#1802,#1460,#1461);
#1363=AXIS2_PLACEMENT_3D('',#1811,#1466,#1467);
#1364=AXIS2_PLACEMENT_3D('',#1817,#1471,#1472);
#1365=AXIS2_PLACEMENT_3D('',#1823,#1476,#1477);
#1366=AXIS2_PLACEMENT_3D('',#1826,#1480,#1481);
#1367=AXIS2_PLACEMENT_3D('',#1827,#1482,#1483);
#1368=AXIS2_PLACEMENT_3D('',#1828,#1484,#1485);
#1369=AXIS2_PLACEMENT_3D('',#1837,#1490,#1491);
#1370=AXIS2_PLACEMENT_3D('',#1843,#1495,#1496);
#1371=AXIS2_PLACEMENT_3D('',#1849,#1500,#1501);
#1372=AXIS2_PLACEMENT_3D('',#1852,#1504,#1505);
#1373=AXIS2_PLACEMENT_3D('',#1853,#1506,#1507);
#1374=AXIS2_PLACEMENT_3D('',#1854,#1508,#1509);
#1375=AXIS2_PLACEMENT_3D('',#1856,#1510,#1511);
#1376=AXIS2_PLACEMENT_3D('',#1859,#1513,#1514);
#1377=AXIS2_PLACEMENT_3D('',#1860,#1515,#1516);
#1378=AXIS2_PLACEMENT_3D('',#1869,#1521,#1522);
#1379=AXIS2_PLACEMENT_3D('',#1875,#1526,#1527);
#1380=AXIS2_PLACEMENT_3D('',#1881,#1531,#1532);
#1381=AXIS2_PLACEMENT_3D('',#1884,#1535,#1536);
#1382=AXIS2_PLACEMENT_3D('',#1885,#1537,#1538);
#1383=AXIS2_PLACEMENT_3D('',#1886,#1539,#1540);
#1384=AXIS2_PLACEMENT_3D('',#1888,#1541,#1542);
#1385=AXIS2_PLACEMENT_3D('',#1891,#1544,#1545);
#1386=AXIS2_PLACEMENT_3D('',#1892,#1546,#1547);
#1387=AXIS2_PLACEMENT_3D('',#1901,#1552,#1553);
#1388=AXIS2_PLACEMENT_3D('',#1907,#1557,#1558);
#1389=AXIS2_PLACEMENT_3D('',#1913,#1562,#1563);
#1390=AXIS2_PLACEMENT_3D('',#1916,#1566,#1567);
#1391=AXIS2_PLACEMENT_3D('',#1917,#1568,#1569);
#1392=AXIS2_PLACEMENT_3D('',#1918,#1570,#1571);
#1393=AXIS2_PLACEMENT_3D('',#1920,#1572,#1573);
#1394=AXIS2_PLACEMENT_3D('',#1923,#1575,#1576);
#1395=AXIS2_PLACEMENT_3D('',#1924,#1577,#1578);
#1396=AXIS2_PLACEMENT_3D('',#1926,#1579,#1580);
#1397=AXIS2_PLACEMENT_3D('',#1929,#1582,#1583);
#1398=AXIS2_PLACEMENT_3D('',#1930,#1584,#1585);
#1399=AXIS2_PLACEMENT_3D('',#1939,#1590,#1591);
#1400=AXIS2_PLACEMENT_3D('',#1945,#1595,#1596);
#1401=AXIS2_PLACEMENT_3D('',#1951,#1600,#1601);
#1402=AXIS2_PLACEMENT_3D('',#1954,#1604,#1605);
#1403=AXIS2_PLACEMENT_3D('',#1955,#1606,#1607);
#1404=AXIS2_PLACEMENT_3D('',#1956,#1608,#1609);
#1405=AXIS2_PLACEMENT_3D('',#1965,#1614,#1615);
#1406=AXIS2_PLACEMENT_3D('',#1971,#1619,#1620);
#1407=AXIS2_PLACEMENT_3D('',#1977,#1624,#1625);
#1408=AXIS2_PLACEMENT_3D('',#1980,#1628,#1629);
#1409=AXIS2_PLACEMENT_3D('',#1981,#1630,#1631);
#1410=AXIS2_PLACEMENT_3D('',#1982,#1632,#1633);
#1411=AXIS2_PLACEMENT_3D('',#1984,#1634,#1635);
#1412=AXIS2_PLACEMENT_3D('',#1987,#1637,#1638);
#1413=AXIS2_PLACEMENT_3D('',#1988,#1639,#1640);
#1414=AXIS2_PLACEMENT_3D('',#1990,#1641,#1642);
#1415=AXIS2_PLACEMENT_3D('',#1993,#1644,#1645);
#1416=AXIS2_PLACEMENT_3D('',#1994,#1646,#1647);
#1417=AXIS2_PLACEMENT_3D('',#2003,#1652,#1653);
#1418=AXIS2_PLACEMENT_3D('',#2009,#1657,#1658);
#1419=AXIS2_PLACEMENT_3D('',#2015,#1662,#1663);
#1420=AXIS2_PLACEMENT_3D('',#2018,#1666,#1667);
#1421=AXIS2_PLACEMENT_3D('',#2019,#1668,#1669);
#1422=AXIS2_PLACEMENT_3D('',#2020,#1670,#1671);
#1423=AXIS2_PLACEMENT_3D('',#2022,#1672,#1673);
#1424=AXIS2_PLACEMENT_3D('',#2025,#1675,#1676);
#1425=AXIS2_PLACEMENT_3D('',#2026,#1677,#1678);
#1426=AXIS2_PLACEMENT_3D('',#2035,#1683,#1684);
#1427=AXIS2_PLACEMENT_3D('',#2041,#1688,#1689);
#1428=AXIS2_PLACEMENT_3D('',#2047,#1693,#1694);
#1429=AXIS2_PLACEMENT_3D('',#2050,#1697,#1698);
#1430=AXIS2_PLACEMENT_3D('',#2051,#1699,#1700);
#1431=AXIS2_PLACEMENT_3D('',#2052,#1701,#1702);
#1432=AXIS2_PLACEMENT_3D('',#2069,#1711,#1712);
#1433=AXIS2_PLACEMENT_3D('',#2083,#1720,#1721);
#1434=AXIS2_PLACEMENT_3D('',#2097,#1729,#1730);
#1435=AXIS2_PLACEMENT_3D('',#2107,#1736,#1737);
#1436=AXIS2_PLACEMENT_3D('',#2113,#1741,#1742);
#1437=AXIS2_PLACEMENT_3D('',#2117,#1745,#1746);
#1438=AXIS2_PLACEMENT_3D('',#2121,#1749,#1750);
#1439=AXIS2_PLACEMENT_3D('',#2127,#1754,#1755);
#1440=AXIS2_PLACEMENT_3D('',#2133,#1759,#1760);
#1441=AXIS2_PLACEMENT_3D('',#2135,#1762,#1763);
#1442=AXIS2_PLACEMENT_3D('',#2139,#1766,#1767);
#1443=AXIS2_PLACEMENT_3D('',#2141,#1769,#1770);
#1444=AXIS2_PLACEMENT_3D('',#2151,#1777,#1778);
#1445=AXIS2_PLACEMENT_3D('',#2153,#1780,#1781);
#1446=AXIS2_PLACEMENT_3D('',#2154,#1782,#1783);
#1447=AXIS2_PLACEMENT_3D('',#2155,#1784,#1785);
#1448=AXIS2_PLACEMENT_3D('',#2157,#1787,#1788);
#1449=AXIS2_PLACEMENT_3D('',#2159,#1790,#1791);
#1450=AXIS2_PLACEMENT_3D('',#2161,#1793,#1794);
#1451=DIRECTION('axis',(0.,0.,1.));
#1452=DIRECTION('refdir',(1.,0.,0.));
#1453=DIRECTION('center_axis',(0.,0.,-1.));
#1454=DIRECTION('ref_axis',(1.,0.,0.));
#1455=DIRECTION('center_axis',(0.,0.,1.));
#1456=DIRECTION('ref_axis',(1.,0.,0.));
#1457=DIRECTION('',(0.,0.,1.));
#1458=DIRECTION('center_axis',(0.,0.,1.));
#1459=DIRECTION('ref_axis',(1.,0.,0.));
#1460=DIRECTION('center_axis',(-1.39315341756141E-15,1.,0.));
#1461=DIRECTION('ref_axis',(1.,1.39315341756141E-15,0.));
#1462=DIRECTION('',(-1.,-1.39315341756141E-15,0.));
#1463=DIRECTION('',(0.,0.,-1.));
#1464=DIRECTION('',(1.,1.39315341756141E-15,0.));
#1465=DIRECTION('',(0.,0.,-1.));
#1466=DIRECTION('center_axis',(-1.,0.,0.));
#1467=DIRECTION('ref_axis',(0.,1.,0.));
#1468=DIRECTION('',(0.,-1.,0.));
#1469=DIRECTION('',(0.,1.,0.));
#1470=DIRECTION('',(0.,0.,-1.));
#1471=DIRECTION('center_axis',(1.39315341756141E-15,-1.,0.));
#1472=DIRECTION('ref_axis',(-1.,-1.39315341756141E-15,0.));
#1473=DIRECTION('',(-1.,-1.39315341756141E-15,0.));
#1474=DIRECTION('',(-1.,-1.39315341756141E-15,0.));
#1475=DIRECTION('',(0.,0.,-1.));
#1476=DIRECTION('center_axis',(1.,0.,0.));
#1477=DIRECTION('ref_axis',(0.,-1.,0.));
#1478=DIRECTION('',(0.,-1.,0.));
#1479=DIRECTION('',(0.,-1.,0.));
#1480=DIRECTION('center_axis',(0.,0.,-1.));
#1481=DIRECTION('ref_axis',(1.,0.,0.));
#1482=DIRECTION('center_axis',(0.,0.,-1.));
#1483=DIRECTION('ref_axis',(1.,0.,0.));
#1484=DIRECTION('center_axis',(-1.,0.,0.));
#1485=DIRECTION('ref_axis',(0.,1.,0.));
#1486=DIRECTION('',(0.,-1.,0.));
#1487=DIRECTION('',(0.,0.,-1.));
#1488=DIRECTION('',(0.,1.,0.));
#1489=DIRECTION('',(0.,0.,-1.));
#1490=DIRECTION('center_axis',(0.,-1.,0.));
#1491=DIRECTION('ref_axis',(-1.,0.,0.));
#1492=DIRECTION('',(1.,0.,0.));
#1493=DIRECTION('',(-1.,0.,0.));
#1494=DIRECTION('',(0.,0.,-1.));
#1495=DIRECTION('center_axis',(1.,0.,0.));
#1496=DIRECTION('ref_axis',(0.,-1.,0.));
#1497=DIRECTION('',(0.,1.,0.));
#1498=DIRECTION('',(0.,-1.,0.));
#1499=DIRECTION('',(0.,0.,-1.));
#1500=DIRECTION('center_axis',(0.,1.,0.));
#1501=DIRECTION('ref_axis',(1.,0.,0.));
#1502=DIRECTION('',(-1.,0.,0.));
#1503=DIRECTION('',(1.,0.,0.));
#1504=DIRECTION('center_axis',(0.,0.,-1.));
#1505=DIRECTION('ref_axis',(-1.,0.,0.));
#1506=DIRECTION('center_axis',(0.,0.,-1.));
#1507=DIRECTION('ref_axis',(1.,0.,0.));
#1508=DIRECTION('center_axis',(0.,0.,-1.));
#1509=DIRECTION('ref_axis',(1.,0.,0.));
#1510=DIRECTION('center_axis',(0.,0.,1.));
#1511=DIRECTION('ref_axis',(1.,0.,0.));
#1512=DIRECTION('',(0.,0.,1.));
#1513=DIRECTION('center_axis',(0.,0.,1.));
#1514=DIRECTION('ref_axis',(1.,0.,0.));
#1515=DIRECTION('center_axis',(3.48288354390352E-16,1.,0.));
#1516=DIRECTION('ref_axis',(1.,-3.48288354390352E-16,0.));
#1517=DIRECTION('',(-1.,3.48288354390352E-16,0.));
#1518=DIRECTION('',(0.,0.,-1.));
#1519=DIRECTION('',(1.,-3.48288354390352E-16,0.));
#1520=DIRECTION('',(0.,0.,-1.));
#1521=DIRECTION('center_axis',(-1.,0.,0.));
#1522=DIRECTION('ref_axis',(0.,1.,0.));
#1523=DIRECTION('',(0.,-1.,0.));
#1524=DIRECTION('',(0.,1.,0.));
#1525=DIRECTION('',(0.,0.,-1.));
#1526=DIRECTION('center_axis',(-3.43526599545171E-16,-1.,0.));
#1527=DIRECTION('ref_axis',(-1.,3.43526599545171E-16,0.));
#1528=DIRECTION('',(-1.,3.43526599545171E-16,0.));
#1529=DIRECTION('',(-1.,3.43526599545171E-16,0.));
#1530=DIRECTION('',(0.,0.,-1.));
#1531=DIRECTION('center_axis',(1.,0.,0.));
#1532=DIRECTION('ref_axis',(0.,-1.,0.));
#1533=DIRECTION('',(0.,-1.,0.));
#1534=DIRECTION('',(0.,-1.,0.));
#1535=DIRECTION('center_axis',(0.,0.,-1.));
#1536=DIRECTION('ref_axis',(1.,0.,0.));
#1537=DIRECTION('center_axis',(0.,0.,-1.));
#1538=DIRECTION('ref_axis',(1.,0.,0.));
#1539=DIRECTION('center_axis',(0.,0.,-1.));
#1540=DIRECTION('ref_axis',(1.,0.,0.));
#1541=DIRECTION('center_axis',(0.,0.,1.));
#1542=DIRECTION('ref_axis',(1.,0.,0.));
#1543=DIRECTION('',(0.,0.,1.));
#1544=DIRECTION('center_axis',(0.,0.,1.));
#1545=DIRECTION('ref_axis',(1.,0.,0.));
#1546=DIRECTION('center_axis',(-1.,0.,0.));
#1547=DIRECTION('ref_axis',(0.,1.,0.));
#1548=DIRECTION('',(0.,-1.,0.));
#1549=DIRECTION('',(0.,0.,-1.));
#1550=DIRECTION('',(0.,1.,0.));
#1551=DIRECTION('',(0.,0.,-1.));
#1552=DIRECTION('center_axis',(0.,-1.,0.));
#1553=DIRECTION('ref_axis',(-1.,0.,0.));
#1554=DIRECTION('',(1.,0.,0.));
#1555=DIRECTION('',(-1.,0.,0.));
#1556=DIRECTION('',(0.,0.,-1.));
#1557=DIRECTION('center_axis',(1.,-9.25185853854297E-17,0.));
#1558=DIRECTION('ref_axis',(-9.25185853854297E-17,-1.,0.));
#1559=DIRECTION('',(9.25185853854297E-17,1.,0.));
#1560=DIRECTION('',(-9.25185853854297E-17,-1.,0.));
#1561=DIRECTION('',(0.,0.,-1.));
#1562=DIRECTION('center_axis',(0.,1.,0.));
#1563=DIRECTION('ref_axis',(1.,0.,0.));
#1564=DIRECTION('',(-1.,0.,0.));
#1565=DIRECTION('',(1.,0.,0.));
#1566=DIRECTION('center_axis',(0.,0.,-1.));
#1567=DIRECTION('ref_axis',(1.,0.,0.));
#1568=DIRECTION('center_axis',(0.,0.,-1.));
#1569=DIRECTION('ref_axis',(1.,0.,0.));
#1570=DIRECTION('center_axis',(0.,0.,-1.));
#1571=DIRECTION('ref_axis',(1.,0.,0.));
#1572=DIRECTION('center_axis',(0.,0.,1.));
#1573=DIRECTION('ref_axis',(1.,0.,0.));
#1574=DIRECTION('',(0.,0.,1.));
#1575=DIRECTION('center_axis',(0.,0.,1.));
#1576=DIRECTION('ref_axis',(1.,0.,0.));
#1577=DIRECTION('center_axis',(0.,0.,-1.));
#1578=DIRECTION('ref_axis',(1.,0.,0.));
#1579=DIRECTION('center_axis',(0.,0.,1.));
#1580=DIRECTION('ref_axis',(1.,0.,0.));
#1581=DIRECTION('',(0.,0.,1.));
#1582=DIRECTION('center_axis',(0.,0.,1.));
#1583=DIRECTION('ref_axis',(1.,0.,0.));
#1584=DIRECTION('center_axis',(0.,1.,0.));
#1585=DIRECTION('ref_axis',(1.,0.,0.));
#1586=DIRECTION('',(1.,0.,0.));
#1587=DIRECTION('',(0.,0.,-1.));
#1588=DIRECTION('',(1.,0.,0.));
#1589=DIRECTION('',(0.,0.,-1.));
#1590=DIRECTION('center_axis',(-1.,0.,0.));
#1591=DIRECTION('ref_axis',(0.,1.,0.));
#1592=DIRECTION('',(0.,1.,0.));
#1593=DIRECTION('',(0.,1.,0.));
#1594=DIRECTION('',(0.,0.,-1.));
#1595=DIRECTION('center_axis',(0.,-1.,0.));
#1596=DIRECTION('ref_axis',(-1.,0.,0.));
#1597=DIRECTION('',(-1.,0.,0.));
#1598=DIRECTION('',(-1.,0.,0.));
#1599=DIRECTION('',(0.,0.,-1.));
#1600=DIRECTION('center_axis',(1.,0.,0.));
#1601=DIRECTION('ref_axis',(0.,-1.,0.));
#1602=DIRECTION('',(0.,-1.,0.));
#1603=DIRECTION('',(0.,-1.,0.));
#1604=DIRECTION('center_axis',(0.,0.,-1.));
#1605=DIRECTION('ref_axis',(1.,0.,0.));
#1606=DIRECTION('center_axis',(0.,0.,-1.));
#1607=DIRECTION('ref_axis',(1.,0.,0.));
#1608=DIRECTION('center_axis',(-1.,0.,0.));
#1609=DIRECTION('ref_axis',(0.,1.,0.));
#1610=DIRECTION('',(0.,-1.,0.));
#1611=DIRECTION('',(0.,0.,-1.));
#1612=DIRECTION('',(0.,1.,0.));
#1613=DIRECTION('',(0.,0.,-1.));
#1614=DIRECTION('center_axis',(-6.29126380620921E-15,-1.,0.));
#1615=DIRECTION('ref_axis',(-1.,6.29126380620921E-15,0.));
#1616=DIRECTION('',(1.,-6.29126380620921E-15,0.));
#1617=DIRECTION('',(-1.,6.29126380620921E-15,0.));
#1618=DIRECTION('',(0.,0.,-1.));
#1619=DIRECTION('center_axis',(1.,0.,0.));
#1620=DIRECTION('ref_axis',(0.,-1.,0.));
#1621=DIRECTION('',(0.,1.,0.));
#1622=DIRECTION('',(0.,-1.,0.));
#1623=DIRECTION('',(0.,0.,-1.));
#1624=DIRECTION('center_axis',(6.29126380620921E-15,1.,0.));
#1625=DIRECTION('ref_axis',(1.,-6.29126380620921E-15,0.));
#1626=DIRECTION('',(-1.,6.29126380620921E-15,0.));
#1627=DIRECTION('',(1.,-6.29126380620921E-15,0.));
#1628=DIRECTION('center_axis',(0.,0.,-1.));
#1629=DIRECTION('ref_axis',(-1.,0.,0.));
#1630=DIRECTION('center_axis',(0.,0.,-1.));
#1631=DIRECTION('ref_axis',(1.,0.,0.));
#1632=DIRECTION('center_axis',(0.,0.,-1.));
#1633=DIRECTION('ref_axis',(1.,0.,0.));
#1634=DIRECTION('center_axis',(0.,0.,1.));
#1635=DIRECTION('ref_axis',(1.,0.,0.));
#1636=DIRECTION('',(0.,0.,1.));
#1637=DIRECTION('center_axis',(0.,0.,1.));
#1638=DIRECTION('ref_axis',(1.,0.,0.));
#1639=DIRECTION('center_axis',(0.,0.,-1.));
#1640=DIRECTION('ref_axis',(1.,0.,0.));
#1641=DIRECTION('center_axis',(0.,0.,1.));
#1642=DIRECTION('ref_axis',(1.,0.,0.));
#1643=DIRECTION('',(0.,0.,1.));
#1644=DIRECTION('center_axis',(0.,0.,1.));
#1645=DIRECTION('ref_axis',(1.,0.,0.));
#1646=DIRECTION('center_axis',(1.,0.,0.));
#1647=DIRECTION('ref_axis',(0.,-1.,0.));
#1648=DIRECTION('',(0.,1.,0.));
#1649=DIRECTION('',(0.,0.,-1.));
#1650=DIRECTION('',(0.,-1.,0.));
#1651=DIRECTION('',(0.,0.,-1.));
#1652=DIRECTION('center_axis',(0.,1.,0.));
#1653=DIRECTION('ref_axis',(1.,0.,0.));
#1654=DIRECTION('',(-1.,0.,0.));
#1655=DIRECTION('',(1.,0.,0.));
#1656=DIRECTION('',(0.,0.,-1.));
#1657=DIRECTION('center_axis',(-1.,0.,0.));
#1658=DIRECTION('ref_axis',(0.,1.,0.));
#1659=DIRECTION('',(0.,-1.,0.));
#1660=DIRECTION('',(0.,1.,0.));
#1661=DIRECTION('',(0.,0.,-1.));
#1662=DIRECTION('center_axis',(-2.59874696004597E-17,-1.,0.));
#1663=DIRECTION('ref_axis',(-1.,2.59874696004597E-17,0.));
#1664=DIRECTION('',(1.,-2.59874696004597E-17,0.));
#1665=DIRECTION('',(-1.,2.59874696004597E-17,0.));
#1666=DIRECTION('center_axis',(0.,0.,-1.));
#1667=DIRECTION('ref_axis',(1.,0.,0.));
#1668=DIRECTION('center_axis',(0.,0.,-1.));
#1669=DIRECTION('ref_axis',(1.,0.,0.));
#1670=DIRECTION('center_axis',(0.,0.,-1.));
#1671=DIRECTION('ref_axis',(1.,0.,0.));
#1672=DIRECTION('center_axis',(0.,0.,1.));
#1673=DIRECTION('ref_axis',(1.,0.,0.));
#1674=DIRECTION('',(0.,0.,1.));
#1675=DIRECTION('center_axis',(0.,0.,1.));
#1676=DIRECTION('ref_axis',(1.,0.,0.));
#1677=DIRECTION('center_axis',(-1.,0.,0.));
#1678=DIRECTION('ref_axis',(0.,1.,0.));
#1679=DIRECTION('',(0.,-1.,0.));
#1680=DIRECTION('',(0.,0.,-1.));
#1681=DIRECTION('',(0.,1.,0.));
#1682=DIRECTION('',(0.,0.,-1.));
#1683=DIRECTION('center_axis',(0.,-1.,0.));
#1684=DIRECTION('ref_axis',(-1.,0.,0.));
#1685=DIRECTION('',(1.,0.,0.));
#1686=DIRECTION('',(-1.,0.,0.));
#1687=DIRECTION('',(0.,0.,-1.));
#1688=DIRECTION('center_axis',(1.,0.,0.));
#1689=DIRECTION('ref_axis',(0.,-1.,0.));
#1690=DIRECTION('',(0.,1.,0.));
#1691=DIRECTION('',(0.,-1.,0.));
#1692=DIRECTION('',(0.,0.,-1.));
#1693=DIRECTION('center_axis',(0.,1.,0.));
#1694=DIRECTION('ref_axis',(1.,0.,0.));
#1695=DIRECTION('',(-1.,0.,0.));
#1696=DIRECTION('',(1.,0.,0.));
#1697=DIRECTION('center_axis',(0.,0.,-1.));
#1698=DIRECTION('ref_axis',(1.,0.,0.));
#1699=DIRECTION('center_axis',(0.,0.,-1.));
#1700=DIRECTION('ref_axis',(1.,0.,0.));
#1701=DIRECTION('center_axis',(0.,0.,-1.));
#1702=DIRECTION('ref_axis',(0.,1.,0.));
#1703=DIRECTION('',(1.,0.,0.));
#1704=DIRECTION('',(0.,1.,0.));
#1705=DIRECTION('',(-1.,0.,0.));
#1706=DIRECTION('',(0.,-1.,0.));
#1707=DIRECTION('',(1.,0.,0.));
#1708=DIRECTION('',(0.,1.,0.));
#1709=DIRECTION('',(1.,0.,0.));
#1710=DIRECTION('',(0.,-1.,0.));
#1711=DIRECTION('center_axis',(1.,0.,0.));
#1712=DIRECTION('ref_axis',(0.,1.,0.));
#1713=DIRECTION('',(0.,0.,-1.));
#1714=DIRECTION('',(0.,1.,0.));
#1715=DIRECTION('',(0.,0.,1.));
#1716=DIRECTION('',(0.,-1.,0.));
#1717=DIRECTION('',(0.,0.,1.));
#1718=DIRECTION('',(0.,1.,0.));
#1719=DIRECTION('',(0.,0.,1.));
#1720=DIRECTION('center_axis',(1.,0.,0.));
#1721=DIRECTION('ref_axis',(0.,1.,0.));
#1722=DIRECTION('',(0.,0.,-1.));
#1723=DIRECTION('',(0.,0.,-1.));
#1724=DIRECTION('',(0.,-1.,0.));
#1725=DIRECTION('',(0.,0.,1.));
#1726=DIRECTION('',(0.,1.,0.));
#1727=DIRECTION('',(0.,0.,-1.));
#1728=DIRECTION('',(0.,1.,0.));
#1729=DIRECTION('center_axis',(0.,-1.,0.));
#1730=DIRECTION('ref_axis',(0.,0.,-1.));
#1731=DIRECTION('',(0.,0.,-1.));
#1732=DIRECTION('',(1.,0.,0.));
#1733=DIRECTION('',(1.,0.,0.));
#1734=DIRECTION('',(0.,0.,1.));
#1735=DIRECTION('',(1.,0.,0.));
#1736=DIRECTION('center_axis',(0.,0.,1.));
#1737=DIRECTION('ref_axis',(0.,-1.,0.));
#1738=DIRECTION('',(0.,-1.,0.));
#1739=DIRECTION('',(1.,0.,0.));
#1740=DIRECTION('',(1.,0.,0.));
#1741=DIRECTION('center_axis',(0.,-1.,0.));
#1742=DIRECTION('ref_axis',(0.,0.,-1.));
#1743=DIRECTION('',(0.,0.,-1.));
#1744=DIRECTION('',(1.,0.,0.));
#1745=DIRECTION('center_axis',(0.,0.,-1.));
#1746=DIRECTION('ref_axis',(0.,1.,0.));
#1747=DIRECTION('',(0.,1.,0.));
#1748=DIRECTION('',(1.,0.,0.));
#1749=DIRECTION('center_axis',(0.,0.,1.));
#1750=DIRECTION('ref_axis',(0.,-1.,0.));
#1751=DIRECTION('',(0.,1.,0.));
#1752=DIRECTION('',(1.,0.,0.));
#1753=DIRECTION('',(1.,0.,0.));
#1754=DIRECTION('center_axis',(0.,1.,0.));
#1755=DIRECTION('ref_axis',(0.,0.,1.));
#1756=DIRECTION('',(0.,0.,1.));
#1757=DIRECTION('',(-1.,0.,0.));
#1758=DIRECTION('',(0.,0.,-1.));
#1759=DIRECTION('center_axis',(0.,1.,0.));
#1760=DIRECTION('ref_axis',(0.,0.,1.));
#1761=DIRECTION('',(0.,0.,-1.));
#1762=DIRECTION('center_axis',(0.,-1.,0.));
#1763=DIRECTION('ref_axis',(0.,0.,-1.));
#1764=DIRECTION('',(0.,0.,-1.));
#1765=DIRECTION('',(1.,0.,0.));
#1766=DIRECTION('center_axis',(0.,0.,1.));
#1767=DIRECTION('ref_axis',(0.,-1.,0.));
#1768=DIRECTION('',(0.,1.,0.));
#1769=DIRECTION('center_axis',(1.,0.,0.));
#1770=DIRECTION('ref_axis',(0.,1.,0.));
#1771=DIRECTION('',(0.,0.,-1.));
#1772=DIRECTION('',(0.,0.,1.));
#1773=DIRECTION('',(0.,1.,0.));
#1774=DIRECTION('',(0.,0.,1.));
#1775=DIRECTION('',(0.,-1.,0.));
#1776=DIRECTION('',(0.,1.,0.));
#1777=DIRECTION('center_axis',(0.,0.,1.));
#1778=DIRECTION('ref_axis',(1.,0.,0.));
#1779=DIRECTION('',(0.,-1.,0.));
#1780=DIRECTION('center_axis',(-1.,0.,0.));
#1781=DIRECTION('ref_axis',(0.,-1.,0.));
#1782=DIRECTION('center_axis',(0.,-1.,0.));
#1783=DIRECTION('ref_axis',(0.,0.,-1.));
#1784=DIRECTION('center_axis',(0.,1.,0.));
#1785=DIRECTION('ref_axis',(0.,0.,1.));
#1786=DIRECTION('',(1.,0.,0.));
#1787=DIRECTION('center_axis',(0.,0.,-1.));
#1788=DIRECTION('ref_axis',(0.,1.,0.));
#1789=DIRECTION('',(1.,0.,0.));
#1790=DIRECTION('center_axis',(0.,1.,0.));
#1791=DIRECTION('ref_axis',(0.,0.,1.));
#1792=DIRECTION('',(1.,0.,0.));
#1793=DIRECTION('center_axis',(0.,0.,1.));
#1794=DIRECTION('ref_axis',(0.,-1.,0.));
#1795=CARTESIAN_POINT('',(0.,0.,0.));
#1796=CARTESIAN_POINT('Origin',(243.696067811865,-126.753932188135,0.));
#1797=CARTESIAN_POINT('',(242.696067811865,-126.753932188135,-2.));
#1798=CARTESIAN_POINT('Origin',(243.696067811865,-126.753932188135,-2.));
#1799=CARTESIAN_POINT('',(242.696067811865,-126.753932188135,0.));
#1800=CARTESIAN_POINT('',(242.696067811865,-126.753932188135,0.));
#1801=CARTESIAN_POINT('Origin',(243.696067811865,-126.753932188135,0.));
#1802=CARTESIAN_POINT('Origin',(233.94544884192,-123.753932188135,0.));
#1803=CARTESIAN_POINT('',(246.696067811865,-123.753932188135,0.));
#1804=CARTESIAN_POINT('',(233.94544884192,-123.753932188135,0.));
#1805=CARTESIAN_POINT('',(246.696067811865,-123.753932188135,0.));
#1806=CARTESIAN_POINT('',(246.696067811865,-123.753932188135,-2.));
#1807=CARTESIAN_POINT('',(246.696067811865,-123.753932188135,0.));
#1808=CARTESIAN_POINT('',(233.94544884192,-123.753932188135,-2.));
#1809=CARTESIAN_POINT('',(246.696067811865,-123.753932188135,-2.));
#1810=CARTESIAN_POINT('',(233.94544884192,-123.753932188135,0.));
#1811=CARTESIAN_POINT('Origin',(233.94544884192,-129.753932188135,0.));
#1812=CARTESIAN_POINT('',(233.94544884192,-129.753932188135,0.));
#1813=CARTESIAN_POINT('',(233.94544884192,-123.753932188135,0.));
#1814=CARTESIAN_POINT('',(233.94544884192,-129.753932188135,-2.));
#1815=CARTESIAN_POINT('',(233.94544884192,-123.753932188135,-2.));
#1816=CARTESIAN_POINT('',(233.94544884192,-129.753932188135,0.));
#1817=CARTESIAN_POINT('Origin',(246.696067811865,-129.753932188135,0.));
#1818=CARTESIAN_POINT('',(246.696067811865,-129.753932188135,0.));
#1819=CARTESIAN_POINT('',(246.696067811865,-129.753932188135,0.));
#1820=CARTESIAN_POINT('',(246.696067811865,-129.753932188135,-2.));
#1821=CARTESIAN_POINT('',(246.696067811865,-129.753932188135,-2.));
#1822=CARTESIAN_POINT('',(246.696067811865,-129.753932188135,0.));
#1823=CARTESIAN_POINT('Origin',(246.696067811865,-123.753932188135,0.));
#1824=CARTESIAN_POINT('',(246.696067811865,-123.753932188135,0.));
#1825=CARTESIAN_POINT('',(246.696067811865,-123.753932188135,-2.));
#1826=CARTESIAN_POINT('Origin',(240.320758326893,-126.753932188135,-2.));
#1827=CARTESIAN_POINT('Origin',(240.320758326893,-126.753932188135,0.));
#1828=CARTESIAN_POINT('Origin',(347.591432188135,-129.753932188135,0.));
#1829=CARTESIAN_POINT('',(347.591432188135,-123.753932188135,0.));
#1830=CARTESIAN_POINT('',(347.591432188135,-129.753932188135,0.));
#1831=CARTESIAN_POINT('',(347.591432188135,-123.753932188135,0.));
#1832=CARTESIAN_POINT('',(347.591432188135,-123.753932188135,-2.));
#1833=CARTESIAN_POINT('',(347.591432188135,-123.753932188135,0.));
#1834=CARTESIAN_POINT('',(347.591432188135,-129.753932188135,-2.));
#1835=CARTESIAN_POINT('',(347.591432188135,-123.753932188135,-2.));
#1836=CARTESIAN_POINT('',(347.591432188135,-129.753932188135,0.));
#1837=CARTESIAN_POINT('Origin',(353.591432188135,-129.753932188135,0.));
#1838=CARTESIAN_POINT('',(353.591432188135,-129.753932188135,0.));
#1839=CARTESIAN_POINT('',(347.591432188135,-129.753932188135,0.));
#1840=CARTESIAN_POINT('',(353.591432188135,-129.753932188135,-2.));
#1841=CARTESIAN_POINT('',(347.591432188135,-129.753932188135,-2.));
#1842=CARTESIAN_POINT('',(353.591432188135,-129.753932188135,0.));
#1843=CARTESIAN_POINT('Origin',(353.591432188135,-123.753932188135,0.));
#1844=CARTESIAN_POINT('',(353.591432188135,-123.753932188135,0.));
#1845=CARTESIAN_POINT('',(353.591432188135,-129.753932188135,0.));
#1846=CARTESIAN_POINT('',(353.591432188135,-123.753932188135,-2.));
#1847=CARTESIAN_POINT('',(353.591432188135,-129.753932188135,-2.));
#1848=CARTESIAN_POINT('',(353.591432188135,-123.753932188135,0.));
#1849=CARTESIAN_POINT('Origin',(347.591432188135,-123.753932188135,0.));
#1850=CARTESIAN_POINT('',(353.591432188135,-123.753932188135,0.));
#1851=CARTESIAN_POINT('',(353.591432188135,-123.753932188135,-2.));
#1852=CARTESIAN_POINT('Origin',(350.591432188135,-126.753932188135,-2.));
#1853=CARTESIAN_POINT('Origin',(350.591432188135,-126.753932188135,0.));
#1854=CARTESIAN_POINT('Origin',(243.696067811865,2.92893218813453,0.));
#1855=CARTESIAN_POINT('',(242.696067811865,2.92893218813453,-2.));
#1856=CARTESIAN_POINT('Origin',(243.696067811865,2.92893218813453,-2.));
#1857=CARTESIAN_POINT('',(242.696067811865,2.92893218813453,0.));
#1858=CARTESIAN_POINT('',(242.696067811865,2.92893218813453,0.));
#1859=CARTESIAN_POINT('Origin',(243.696067811865,2.92893218813453,0.));
#1860=CARTESIAN_POINT('Origin',(233.94544884192,5.92893218813454,0.));
#1861=CARTESIAN_POINT('',(246.696067811865,5.92893218813453,0.));
#1862=CARTESIAN_POINT('',(233.94544884192,5.92893218813454,0.));
#1863=CARTESIAN_POINT('',(246.696067811865,5.92893218813453,0.));
#1864=CARTESIAN_POINT('',(246.696067811865,5.92893218813453,-2.));
#1865=CARTESIAN_POINT('',(246.696067811865,5.92893218813453,0.));
#1866=CARTESIAN_POINT('',(233.94544884192,5.92893218813454,-2.));
#1867=CARTESIAN_POINT('',(246.696067811865,5.92893218813453,-2.));
#1868=CARTESIAN_POINT('',(233.94544884192,5.92893218813454,0.));
#1869=CARTESIAN_POINT('Origin',(233.94544884192,-0.0710678118654628,0.));
#1870=CARTESIAN_POINT('',(233.94544884192,-0.0710678118654628,0.));
#1871=CARTESIAN_POINT('',(233.94544884192,5.92893218813454,0.));
#1872=CARTESIAN_POINT('',(233.94544884192,-0.0710678118654628,-2.));
#1873=CARTESIAN_POINT('',(233.94544884192,5.92893218813454,-2.));
#1874=CARTESIAN_POINT('',(233.94544884192,-0.0710678118654628,0.));
#1875=CARTESIAN_POINT('Origin',(246.696067811865,-0.0710678118654673,0.));
#1876=CARTESIAN_POINT('',(246.696067811865,-0.0710678118654673,0.));
#1877=CARTESIAN_POINT('',(246.696067811865,-0.0710678118654673,0.));
#1878=CARTESIAN_POINT('',(246.696067811865,-0.0710678118654673,-2.));
#1879=CARTESIAN_POINT('',(246.696067811865,-0.0710678118654673,-2.));
#1880=CARTESIAN_POINT('',(246.696067811865,-0.0710678118654673,0.));
#1881=CARTESIAN_POINT('Origin',(246.696067811865,5.92893218813453,0.));
#1882=CARTESIAN_POINT('',(246.696067811865,5.92893218813453,0.));
#1883=CARTESIAN_POINT('',(246.696067811865,5.92893218813453,-2.));
#1884=CARTESIAN_POINT('Origin',(240.320758326893,2.92893218813454,-2.));
#1885=CARTESIAN_POINT('Origin',(240.320758326893,2.92893218813454,0.));
#1886=CARTESIAN_POINT('Origin',(-6.64374441258332,2.92893218813453,0.));
#1887=CARTESIAN_POINT('',(-7.64374441258332,2.92893218813453,-2.));
#1888=CARTESIAN_POINT('Origin',(-6.64374441258332,2.92893218813453,-2.));
#1889=CARTESIAN_POINT('',(-7.64374441258332,2.92893218813453,0.));
#1890=CARTESIAN_POINT('',(-7.64374441258332,2.92893218813453,0.));
#1891=CARTESIAN_POINT('Origin',(-6.64374441258332,2.92893218813453,0.));
#1892=CARTESIAN_POINT('Origin',(-9.64374441258332,-0.0710678118654706,0.));
#1893=CARTESIAN_POINT('',(-9.64374441258332,5.92893218813453,0.));
#1894=CARTESIAN_POINT('',(-9.64374441258332,-0.0710678118654706,0.));
#1895=CARTESIAN_POINT('',(-9.64374441258332,5.92893218813453,0.));
#1896=CARTESIAN_POINT('',(-9.64374441258332,5.92893218813453,-2.));
#1897=CARTESIAN_POINT('',(-9.64374441258332,5.92893218813453,0.));
#1898=CARTESIAN_POINT('',(-9.64374441258332,-0.0710678118654706,-2.));
#1899=CARTESIAN_POINT('',(-9.64374441258332,5.92893218813453,-2.));
#1900=CARTESIAN_POINT('',(-9.64374441258332,-0.0710678118654706,0.));
#1901=CARTESIAN_POINT('Origin',(-3.64374441258332,-0.0710678118654706,0.));
#1902=CARTESIAN_POINT('',(-3.64374441258332,-0.0710678118654706,0.));
#1903=CARTESIAN_POINT('',(-9.64374441258332,-0.0710678118654706,0.));
#1904=CARTESIAN_POINT('',(-3.64374441258332,-0.0710678118654706,-2.));
#1905=CARTESIAN_POINT('',(-9.64374441258332,-0.0710678118654706,-2.));
#1906=CARTESIAN_POINT('',(-3.64374441258332,-0.0710678118654706,0.));
#1907=CARTESIAN_POINT('Origin',(-3.64374441258332,5.92893218813453,0.));
#1908=CARTESIAN_POINT('',(-3.64374441258332,5.92893218813453,0.));
#1909=CARTESIAN_POINT('',(-3.64374441258332,-0.0710678118654706,0.));
#1910=CARTESIAN_POINT('',(-3.64374441258332,5.92893218813453,-2.));
#1911=CARTESIAN_POINT('',(-3.64374441258332,-0.0710678118654706,-2.));
#1912=CARTESIAN_POINT('',(-3.64374441258332,5.92893218813453,0.));
#1913=CARTESIAN_POINT('Origin',(-9.64374441258332,5.92893218813453,0.));
#1914=CARTESIAN_POINT('',(-3.64374441258332,5.92893218813453,0.));
#1915=CARTESIAN_POINT('',(-3.64374441258332,5.92893218813453,-2.));
#1916=CARTESIAN_POINT('Origin',(-6.64374441258332,2.92893218813453,-2.));
#1917=CARTESIAN_POINT('Origin',(-6.64374441258332,2.92893218813453,0.));
#1918=CARTESIAN_POINT('Origin',(126.729138074924,-126.753932188135,0.));
#1919=CARTESIAN_POINT('',(125.729138074924,-126.753932188135,-2.));
#1920=CARTESIAN_POINT('Origin',(126.729138074924,-126.753932188135,-2.));
#1921=CARTESIAN_POINT('',(125.729138074924,-126.753932188135,0.));
#1922=CARTESIAN_POINT('',(125.729138074924,-126.753932188135,0.));
#1923=CARTESIAN_POINT('Origin',(126.729138074924,-126.753932188135,0.));
#1924=CARTESIAN_POINT('Origin',(140.421067811865,-126.753932188135,0.));
#1925=CARTESIAN_POINT('',(139.421067811865,-126.753932188135,-2.));
#1926=CARTESIAN_POINT('Origin',(140.421067811865,-126.753932188135,-2.));
#1927=CARTESIAN_POINT('',(139.421067811865,-126.753932188135,0.));
#1928=CARTESIAN_POINT('',(139.421067811865,-126.753932188135,0.));
#1929=CARTESIAN_POINT('Origin',(140.421067811865,-126.753932188135,0.));
#1930=CARTESIAN_POINT('Origin',(123.729138074924,-123.753932188135,0.));
#1931=CARTESIAN_POINT('',(123.729138074924,-123.753932188135,0.));
#1932=CARTESIAN_POINT('',(143.421067811865,-123.753932188135,0.));
#1933=CARTESIAN_POINT('',(123.729138074924,-123.753932188135,0.));
#1934=CARTESIAN_POINT('',(143.421067811865,-123.753932188135,-2.));
#1935=CARTESIAN_POINT('',(143.421067811865,-123.753932188135,0.));
#1936=CARTESIAN_POINT('',(123.729138074924,-123.753932188135,-2.));
#1937=CARTESIAN_POINT('',(123.729138074924,-123.753932188135,-2.));
#1938=CARTESIAN_POINT('',(123.729138074924,-123.753932188135,0.));
#1939=CARTESIAN_POINT('Origin',(123.729138074924,-129.753932188135,0.));
#1940=CARTESIAN_POINT('',(123.729138074924,-129.753932188135,0.));
#1941=CARTESIAN_POINT('',(123.729138074924,-129.753932188135,0.));
#1942=CARTESIAN_POINT('',(123.729138074924,-129.753932188135,-2.));
#1943=CARTESIAN_POINT('',(123.729138074924,-129.753932188135,-2.));
#1944=CARTESIAN_POINT('',(123.729138074924,-129.753932188135,0.));
#1945=CARTESIAN_POINT('Origin',(143.421067811865,-129.753932188135,0.));
#1946=CARTESIAN_POINT('',(143.421067811865,-129.753932188135,0.));
#1947=CARTESIAN_POINT('',(143.421067811865,-129.753932188135,0.));
#1948=CARTESIAN_POINT('',(143.421067811865,-129.753932188135,-2.));
#1949=CARTESIAN_POINT('',(143.421067811865,-129.753932188135,-2.));
#1950=CARTESIAN_POINT('',(143.421067811865,-129.753932188135,0.));
#1951=CARTESIAN_POINT('Origin',(143.421067811865,-123.753932188135,0.));
#1952=CARTESIAN_POINT('',(143.421067811865,-123.753932188135,0.));
#1953=CARTESIAN_POINT('',(143.421067811865,-123.753932188135,-2.));
#1954=CARTESIAN_POINT('Origin',(133.575102943395,-126.753932188135,-2.));
#1955=CARTESIAN_POINT('Origin',(133.575102943395,-126.753932188135,0.));
#1956=CARTESIAN_POINT('Origin',(347.591432188135,-0.0710678118654906,0.));
#1957=CARTESIAN_POINT('',(347.591432188135,5.92893218813452,0.));
#1958=CARTESIAN_POINT('',(347.591432188135,-0.0710678118654906,0.));
#1959=CARTESIAN_POINT('',(347.591432188135,5.92893218813452,0.));
#1960=CARTESIAN_POINT('',(347.591432188135,5.92893218813452,-2.));
#1961=CARTESIAN_POINT('',(347.591432188135,5.92893218813452,0.));
#1962=CARTESIAN_POINT('',(347.591432188135,-0.0710678118654906,-2.));
#1963=CARTESIAN_POINT('',(347.591432188135,5.92893218813452,-2.));
#1964=CARTESIAN_POINT('',(347.591432188135,-0.0710678118654906,0.));
#1965=CARTESIAN_POINT('Origin',(353.591432188135,-0.0710678118655284,0.));
#1966=CARTESIAN_POINT('',(353.591432188135,-0.0710678118655284,0.));
#1967=CARTESIAN_POINT('',(347.591432188135,-0.0710678118654906,0.));
#1968=CARTESIAN_POINT('',(353.591432188135,-0.0710678118655284,-2.));
#1969=CARTESIAN_POINT('',(347.591432188135,-0.0710678118654906,-2.));
#1970=CARTESIAN_POINT('',(353.591432188135,-0.0710678118655284,0.));
#1971=CARTESIAN_POINT('Origin',(353.591432188135,5.92893218813449,0.));
#1972=CARTESIAN_POINT('',(353.591432188135,5.92893218813449,0.));
#1973=CARTESIAN_POINT('',(353.591432188135,-0.0710678118655284,0.));
#1974=CARTESIAN_POINT('',(353.591432188135,5.92893218813449,-2.));
#1975=CARTESIAN_POINT('',(353.591432188135,-0.0710678118655284,-2.));
#1976=CARTESIAN_POINT('',(353.591432188135,5.92893218813449,0.));
#1977=CARTESIAN_POINT('Origin',(347.591432188135,5.92893218813452,0.));
#1978=CARTESIAN_POINT('',(353.591432188135,5.92893218813449,0.));
#1979=CARTESIAN_POINT('',(353.591432188135,5.92893218813449,-2.));
#1980=CARTESIAN_POINT('Origin',(350.591432188135,2.9289321881345,-2.));
#1981=CARTESIAN_POINT('Origin',(350.591432188135,2.9289321881345,0.));
#1982=CARTESIAN_POINT('Origin',(140.421067811865,2.92893218813453,0.));
#1983=CARTESIAN_POINT('',(139.421067811865,2.92893218813453,-2.));
#1984=CARTESIAN_POINT('Origin',(140.421067811865,2.92893218813453,-2.));
#1985=CARTESIAN_POINT('',(139.421067811865,2.92893218813453,0.));
#1986=CARTESIAN_POINT('',(139.421067811865,2.92893218813453,0.));
#1987=CARTESIAN_POINT('Origin',(140.421067811865,2.92893218813453,0.));
#1988=CARTESIAN_POINT('Origin',(126.729138074924,2.92893218813453,0.));
#1989=CARTESIAN_POINT('',(125.729138074924,2.92893218813453,-2.));
#1990=CARTESIAN_POINT('Origin',(126.729138074924,2.92893218813453,-2.));
#1991=CARTESIAN_POINT('',(125.729138074924,2.92893218813453,0.));
#1992=CARTESIAN_POINT('',(125.729138074924,2.92893218813453,0.));
#1993=CARTESIAN_POINT('Origin',(126.729138074924,2.92893218813453,0.));
#1994=CARTESIAN_POINT('Origin',(143.421067811865,5.92893218813453,0.));
#1995=CARTESIAN_POINT('',(143.421067811865,-0.0710678118654726,0.));
#1996=CARTESIAN_POINT('',(143.421067811865,5.92893218813453,0.));
#1997=CARTESIAN_POINT('',(143.421067811865,-0.0710678118654726,0.));
#1998=CARTESIAN_POINT('',(143.421067811865,-0.0710678118654728,-2.));
#1999=CARTESIAN_POINT('',(143.421067811865,-0.0710678118654726,0.));
#2000=CARTESIAN_POINT('',(143.421067811865,5.92893218813453,-2.));
#2001=CARTESIAN_POINT('',(143.421067811865,-0.0710678118654726,-2.));
#2002=CARTESIAN_POINT('',(143.421067811865,5.92893218813453,0.));
#2003=CARTESIAN_POINT('Origin',(123.729138074924,5.92893218813453,0.));
#2004=CARTESIAN_POINT('',(123.729138074924,5.92893218813453,0.));
#2005=CARTESIAN_POINT('',(143.421067811865,5.92893218813453,0.));
#2006=CARTESIAN_POINT('',(123.729138074924,5.92893218813453,-2.));
#2007=CARTESIAN_POINT('',(143.421067811865,5.92893218813453,-2.));
#2008=CARTESIAN_POINT('',(123.729138074924,5.92893218813453,0.));
#2009=CARTESIAN_POINT('Origin',(123.729138074924,-0.0710678118654717,0.));
#2010=CARTESIAN_POINT('',(123.729138074924,-0.071067811865472,0.));
#2011=CARTESIAN_POINT('',(123.729138074924,5.92893218813453,0.));
#2012=CARTESIAN_POINT('',(123.729138074924,-0.0710678118654723,-2.));
#2013=CARTESIAN_POINT('',(123.729138074924,5.92893218813453,-2.));
#2014=CARTESIAN_POINT('',(123.729138074924,-0.071067811865472,0.));
#2015=CARTESIAN_POINT('Origin',(143.421067811865,-0.0710678118654726,0.));
#2016=CARTESIAN_POINT('',(123.729138074924,-0.071067811865472,0.));
#2017=CARTESIAN_POINT('',(123.729138074924,-0.071067811865472,-2.));
#2018=CARTESIAN_POINT('Origin',(133.575102943395,2.92893218813453,-2.));
#2019=CARTESIAN_POINT('Origin',(133.575102943395,2.92893218813453,0.));
#2020=CARTESIAN_POINT('Origin',(-6.64374441258445,-126.753932188132,0.));
#2021=CARTESIAN_POINT('',(-7.64374441258445,-126.753932188132,-2.));
#2022=CARTESIAN_POINT('Origin',(-6.64374441258445,-126.753932188132,-2.));
#2023=CARTESIAN_POINT('',(-7.64374441258445,-126.753932188132,0.));
#2024=CARTESIAN_POINT('',(-7.64374441258445,-126.753932188132,0.));
#2025=CARTESIAN_POINT('Origin',(-6.64374441258445,-126.753932188132,0.));
#2026=CARTESIAN_POINT('Origin',(-9.64374441258445,-129.753932188132,0.));
#2027=CARTESIAN_POINT('',(-9.64374441258445,-123.753932188132,0.));
#2028=CARTESIAN_POINT('',(-9.64374441258445,-129.753932188132,0.));
#2029=CARTESIAN_POINT('',(-9.64374441258445,-123.753932188132,0.));
#2030=CARTESIAN_POINT('',(-9.64374441258445,-123.753932188132,-2.));
#2031=CARTESIAN_POINT('',(-9.64374441258445,-123.753932188132,0.));
#2032=CARTESIAN_POINT('',(-9.64374441258445,-129.753932188132,-2.));
#2033=CARTESIAN_POINT('',(-9.64374441258445,-123.753932188132,-2.));
#2034=CARTESIAN_POINT('',(-9.64374441258445,-129.753932188132,0.));
#2035=CARTESIAN_POINT('Origin',(-3.64374441258444,-129.753932188132,0.));
#2036=CARTESIAN_POINT('',(-3.64374441258444,-129.753932188132,0.));
#2037=CARTESIAN_POINT('',(-9.64374441258445,-129.753932188132,0.));
#2038=CARTESIAN_POINT('',(-3.64374441258444,-129.753932188132,-2.));
#2039=CARTESIAN_POINT('',(-9.64374441258445,-129.753932188132,-2.));
#2040=CARTESIAN_POINT('',(-3.64374441258444,-129.753932188132,0.));
#2041=CARTESIAN_POINT('Origin',(-3.64374441258444,-123.753932188132,0.));
#2042=CARTESIAN_POINT('',(-3.64374441258444,-123.753932188132,0.));
#2043=CARTESIAN_POINT('',(-3.64374441258444,-129.753932188132,0.));
#2044=CARTESIAN_POINT('',(-3.64374441258444,-123.753932188132,-2.));
#2045=CARTESIAN_POINT('',(-3.64374441258444,-129.753932188132,-2.));
#2046=CARTESIAN_POINT('',(-3.64374441258444,-123.753932188132,0.));
#2047=CARTESIAN_POINT('Origin',(-9.64374441258445,-123.753932188132,0.));
#2048=CARTESIAN_POINT('',(-3.64374441258444,-123.753932188132,0.));
#2049=CARTESIAN_POINT('',(-3.64374441258444,-123.753932188132,-2.));
#2050=CARTESIAN_POINT('Origin',(-6.64374441258445,-126.753932188132,-2.));
#2051=CARTESIAN_POINT('Origin',(-6.64374441258445,-126.753932188132,0.));
#2052=CARTESIAN_POINT('Origin',(309.96875,-17.025,-9.00000013411045));
#2053=CARTESIAN_POINT('',(309.96875,-13.625,-9.00000013411045));
#2054=CARTESIAN_POINT('',(312.76875,-13.625,-9.00000013411045));
#2055=CARTESIAN_POINT('',(311.36875,-13.625,-9.00000013411045));
#2056=CARTESIAN_POINT('',(312.76875,-5.425,-9.00000013411045));
#2057=CARTESIAN_POINT('',(312.76875,-11.225,-9.00000013411045));
#2058=CARTESIAN_POINT('',(309.96875,-5.425,-9.00000013411045));
#2059=CARTESIAN_POINT('',(309.96875,-5.425,-9.00000013411045));
#2060=CARTESIAN_POINT('',(309.96875,-2.02500000000001,-9.00000013411045));
#2061=CARTESIAN_POINT('',(309.96875,-2.02500000000001,-9.00000013411045));
#2062=CARTESIAN_POINT('',(313.76875,-2.02500000000001,-9.00000013411045));
#2063=CARTESIAN_POINT('',(309.96875,-2.02500000000001,-9.00000013411045));
#2064=CARTESIAN_POINT('',(313.76875,-17.025,-9.00000013411045));
#2065=CARTESIAN_POINT('',(313.76875,-13.275,-9.00000013411045));
#2066=CARTESIAN_POINT('',(309.96875,-17.025,-9.00000013411045));
#2067=CARTESIAN_POINT('',(309.96875,-17.025,-9.00000013411045));
#2068=CARTESIAN_POINT('',(309.96875,-2.02500000000001,-9.00000013411045));
#2069=CARTESIAN_POINT('Origin',(309.96875,-9.525,-3.00000004470348));
#2070=CARTESIAN_POINT('',(309.96875,-5.425,-7.));
#2071=CARTESIAN_POINT('',(309.96875,-5.425,-7.));
#2072=CARTESIAN_POINT('',(309.96875,-3.775,-7.));
#2073=CARTESIAN_POINT('',(309.96875,-5.425,-7.));
#2074=CARTESIAN_POINT('',(309.96875,-3.775,3.00000004470348));
#2075=CARTESIAN_POINT('',(309.96875,-3.775,0.));
#2076=CARTESIAN_POINT('',(309.96875,-0.525000000000002,3.00000004470348));
#2077=CARTESIAN_POINT('',(309.96875,-0.525000000000002,3.00000004470348));
#2078=CARTESIAN_POINT('',(309.96875,-0.525000000000002,2.));
#2079=CARTESIAN_POINT('',(309.96875,-0.525000000000002,2.));
#2080=CARTESIAN_POINT('',(309.96875,-2.02500000000001,2.));
#2081=CARTESIAN_POINT('',(309.96875,-2.02500000000001,2.));
#2082=CARTESIAN_POINT('',(309.96875,-2.02500000000001,-9.00000013411045));
#2083=CARTESIAN_POINT('Origin',(309.96875,-9.525,-3.00000004470348));
#2084=CARTESIAN_POINT('',(309.96875,-13.625,-7.));
#2085=CARTESIAN_POINT('',(309.96875,-13.625,-5.50000002235174));
#2086=CARTESIAN_POINT('',(309.96875,-17.025,2.));
#2087=CARTESIAN_POINT('',(309.96875,-17.025,2.));
#2088=CARTESIAN_POINT('',(309.96875,-18.525,2.));
#2089=CARTESIAN_POINT('',(309.96875,-17.025,2.));
#2090=CARTESIAN_POINT('',(309.96875,-18.525,3.00000004470348));
#2091=CARTESIAN_POINT('',(309.96875,-18.525,2.));
#2092=CARTESIAN_POINT('',(309.96875,-15.275,3.00000004470348));
#2093=CARTESIAN_POINT('',(309.96875,-18.525,3.00000004470348));
#2094=CARTESIAN_POINT('',(309.96875,-15.275,-7.));
#2095=CARTESIAN_POINT('',(309.96875,-15.275,0.));
#2096=CARTESIAN_POINT('',(309.96875,-15.275,-7.));
#2097=CARTESIAN_POINT('Origin',(309.96875,-3.775,3.00000004470348));
#2098=CARTESIAN_POINT('',(313.76875,-3.775,3.00000004470348));
#2099=CARTESIAN_POINT('',(313.76875,-3.775,2.22044604925031E-15));
#2100=CARTESIAN_POINT('',(313.76875,-3.775,0.));
#2101=CARTESIAN_POINT('',(309.96875,-3.775,3.00000004470348));
#2102=CARTESIAN_POINT('',(312.76875,-3.775,-7.));
#2103=CARTESIAN_POINT('',(309.96875,-3.775,-7.));
#2104=CARTESIAN_POINT('',(312.76875,-3.775,2.22044604925031E-15));
#2105=CARTESIAN_POINT('',(312.76875,-3.775,-2.49999997764826));
#2106=CARTESIAN_POINT('',(311.61875,-3.775,2.22044604925031E-15));
#2107=CARTESIAN_POINT('Origin',(309.96875,-15.275,3.00000004470348));
#2108=CARTESIAN_POINT('',(313.76875,-15.275,3.00000004470348));
#2109=CARTESIAN_POINT('',(313.76875,-18.525,3.00000004470348));
#2110=CARTESIAN_POINT('',(313.76875,-12.4,3.00000004470348));
#2111=CARTESIAN_POINT('',(309.96875,-15.275,3.00000004470348));
#2112=CARTESIAN_POINT('',(309.96875,-18.525,3.00000004470348));
#2113=CARTESIAN_POINT('Origin',(309.96875,-18.525,3.00000004470348));
#2114=CARTESIAN_POINT('',(313.76875,-18.525,2.));
#2115=CARTESIAN_POINT('',(313.76875,-18.525,0.));
#2116=CARTESIAN_POINT('',(309.96875,-18.525,2.));
#2117=CARTESIAN_POINT('Origin',(309.96875,-18.525,2.));
#2118=CARTESIAN_POINT('',(313.76875,-17.025,2.));
#2119=CARTESIAN_POINT('',(313.76875,-14.025,2.));
#2120=CARTESIAN_POINT('',(309.96875,-17.025,2.));
#2121=CARTESIAN_POINT('Origin',(309.96875,-13.625,-7.));
#2122=CARTESIAN_POINT('',(312.76875,-15.275,-7.));
#2123=CARTESIAN_POINT('',(312.76875,-13.625,-7.));
#2124=CARTESIAN_POINT('',(312.76875,-8.675,-7.));
#2125=CARTESIAN_POINT('',(309.96875,-13.625,-7.));
#2126=CARTESIAN_POINT('',(309.96875,-15.275,-7.));
#2127=CARTESIAN_POINT('Origin',(309.96875,-15.275,-7.));
#2128=CARTESIAN_POINT('',(313.76875,-15.275,2.22044604925031E-15));
#2129=CARTESIAN_POINT('',(313.76875,-15.275,-5.00000002235174));
#2130=CARTESIAN_POINT('',(312.76875,-15.275,2.22044604925031E-15));
#2131=CARTESIAN_POINT('',(311.61875,-15.275,2.22044604925031E-15));
#2132=CARTESIAN_POINT('',(312.76875,-15.275,-7.5));
#2133=CARTESIAN_POINT('Origin',(309.96875,-13.625,-8.));
#2134=CARTESIAN_POINT('',(312.76875,-13.625,-8.));
#2135=CARTESIAN_POINT('Origin',(309.96875,-5.425,-7.));
#2136=CARTESIAN_POINT('',(312.76875,-5.425,-7.));
#2137=CARTESIAN_POINT('',(312.76875,-5.425,-8.));
#2138=CARTESIAN_POINT('',(309.96875,-5.425,-7.));
#2139=CARTESIAN_POINT('Origin',(309.96875,-3.775,-7.));
#2140=CARTESIAN_POINT('',(312.76875,-3.75,-7.));
#2141=CARTESIAN_POINT('Origin',(313.76875,-15.325,-8.));
#2142=CARTESIAN_POINT('',(313.76875,-17.025,-0.500000022351742));
#2143=CARTESIAN_POINT('',(313.76875,-2.02500000000001,2.));
#2144=CARTESIAN_POINT('',(313.76875,-2.02500000000001,-6.00000008940697));
#2145=CARTESIAN_POINT('',(313.76875,-0.525000000000002,2.));
#2146=CARTESIAN_POINT('',(313.76875,-5.775,2.));
#2147=CARTESIAN_POINT('',(313.76875,-0.525000000000002,3.00000004470348));
#2148=CARTESIAN_POINT('',(313.76875,-0.525000000000002,-0.500000022351742));
#2149=CARTESIAN_POINT('',(313.76875,-5.025,3.00000004470348));
#2150=CARTESIAN_POINT('',(313.76875,-15.325,2.22044604925031E-15));
#2151=CARTESIAN_POINT('Origin',(313.26875,-9.525,2.22044604925031E-15));
#2152=CARTESIAN_POINT('',(312.76875,-5.425,2.22044604925031E-15));
#2153=CARTESIAN_POINT('Origin',(312.76875,-3.725,-8.));
#2154=CARTESIAN_POINT('Origin',(309.96875,-17.025,2.));
#2155=CARTESIAN_POINT('Origin',(309.96875,-2.02500000000001,-9.00000013411045));
#2156=CARTESIAN_POINT('',(309.96875,-2.02500000000001,2.));
#2157=CARTESIAN_POINT('Origin',(309.96875,-2.02500000000001,2.));
#2158=CARTESIAN_POINT('',(309.96875,-0.525000000000002,2.));
#2159=CARTESIAN_POINT('Origin',(309.96875,-0.525000000000002,2.));
#2160=CARTESIAN_POINT('',(309.96875,-0.525000000000002,3.00000004470348));
#2161=CARTESIAN_POINT('Origin',(309.96875,-0.525000000000002,3.00000004470348));
#2162=UNCERTAINTY_MEASURE_WITH_UNIT(LENGTH_MEASURE(0.01),#2166,
'DISTANCE_ACCURACY_VALUE',
'Maximum model space distance between geometric entities at asserted c
onnectivities');
#2163=UNCERTAINTY_MEASURE_WITH_UNIT(LENGTH_MEASURE(0.01),#2166,
'DISTANCE_ACCURACY_VALUE',
'Maximum model space distance between geometric entities at asserted c
onnectivities');
#2164=(
GEOMETRIC_REPRESENTATION_CONTEXT(3)
GLOBAL_UNCERTAINTY_ASSIGNED_CONTEXT((#2162))
GLOBAL_UNIT_ASSIGNED_CONTEXT((#2166,#2168,#2169))
REPRESENTATION_CONTEXT('','3D')
);
#2165=(
GEOMETRIC_REPRESENTATION_CONTEXT(3)
GLOBAL_UNCERTAINTY_ASSIGNED_CONTEXT((#2163))
GLOBAL_UNIT_ASSIGNED_CONTEXT((#2166,#2168,#2169))
REPRESENTATION_CONTEXT('','3D')
);
#2166=(
LENGTH_UNIT()
NAMED_UNIT(*)
SI_UNIT(.MILLI.,.METRE.)
);
#2167=(
LENGTH_UNIT()
NAMED_UNIT(*)
SI_UNIT($,.METRE.)
);
#2168=(
NAMED_UNIT(*)
PLANE_ANGLE_UNIT()
SI_UNIT($,.RADIAN.)
);
#2169=(
NAMED_UNIT(*)
SI_UNIT($,.STERADIAN.)
SOLID_ANGLE_UNIT()
);
#2170=SHAPE_DEFINITION_REPRESENTATION(#2171,#2172);
#2171=PRODUCT_DEFINITION_SHAPE('',$,#2174);
#2172=SHAPE_REPRESENTATION('',(#1358),#2164);
#2173=PRODUCT_DEFINITION_CONTEXT('part definition',#2178,'design');
#2174=PRODUCT_DEFINITION('HandwireTKL','HandwireTKL v28',#2175,#2173);
#2175=PRODUCT_DEFINITION_FORMATION('',$,#2180);
#2176=PRODUCT_RELATED_PRODUCT_CATEGORY('HandwireTKL v28',
'HandwireTKL v28',(#2180));
#2177=APPLICATION_PROTOCOL_DEFINITION('international standard',
'automotive_design',2009,#2178);
#2178=APPLICATION_CONTEXT(
'Core Data for Automotive Mechanical Design Process');
#2179=PRODUCT_CONTEXT('part definition',#2178,'mechanical');
#2180=PRODUCT('HandwireTKL','HandwireTKL v28',$,(#2179));
#2181=PRESENTATION_STYLE_ASSIGNMENT((#2184));
#2182=PRESENTATION_STYLE_ASSIGNMENT((#2185));
#2183=PRESENTATION_STYLE_ASSIGNMENT((#2186));
#2184=SURFACE_STYLE_USAGE(.BOTH.,#2187);
#2185=SURFACE_STYLE_USAGE(.BOTH.,#2188);
#2186=SURFACE_STYLE_USAGE(.BOTH.,#2189);
#2187=SURFACE_SIDE_STYLE('',(#2190));
#2188=SURFACE_SIDE_STYLE('',(#2191));
#2189=SURFACE_SIDE_STYLE('',(#2192));
#2190=SURFACE_STYLE_FILL_AREA(#2193);
#2191=SURFACE_STYLE_FILL_AREA(#2194);
#2192=SURFACE_STYLE_FILL_AREA(#2195);
#2193=FILL_AREA_STYLE('Steel - Satin',(#2196));
#2194=FILL_AREA_STYLE('Plastic - Glossy (Black)',(#2197));
#2195=FILL_AREA_STYLE('Aluminum - Polished',(#2198));
#2196=FILL_AREA_STYLE_COLOUR('Steel - Satin',#2199);
#2197=FILL_AREA_STYLE_COLOUR('Plastic - Glossy (Black)',#2200);
#2198=FILL_AREA_STYLE_COLOUR('Aluminum - Polished',#2201);
#2199=COLOUR_RGB('Steel - Satin',0.627450980392157,0.627450980392157,0.627450980392157);
#2200=COLOUR_RGB('Plastic - Glossy (Black)',0.0980392156862745,0.0980392156862745,
0.0980392156862745);
#2201=COLOUR_RGB('Aluminum - Polished',0.96078431372549,0.96078431372549,
0.964705882352941);
ENDSEC;
END-ISO-10303-21;
